G04 DipTrace 3.0.0.2*
G04 BottomSilk.gbr*
%MOIN*%
G04 #@! TF.FileFunction,Legend,Bot*
G04 #@! TF.Part,Single*
%ADD96C,0.012351*%
%ADD97C,0.010807*%
%FSLAX26Y26*%
G04*
G70*
G90*
G75*
G01*
G04 BotSilk*
%LPD*%
X2561955Y2400933D2*
D96*
X2569560Y2408627D1*
X2581056Y2412429D1*
X2596355D1*
X2607851Y2408627D1*
X2615545Y2400933D1*
Y2393328D1*
X2611654Y2385635D1*
X2607851Y2381832D1*
X2600246Y2378030D1*
X2577254Y2370336D1*
X2569560Y2366533D1*
X2565758Y2362643D1*
X2561955Y2355037D1*
Y2343541D1*
X2569560Y2335936D1*
X2581056Y2332045D1*
X2596355D1*
X2607851Y2335936D1*
X2615545Y2343541D1*
X2537252Y2385635D2*
Y2347344D1*
X2533450Y2335936D1*
X2525756Y2332045D1*
X2514260D1*
X2506655Y2335936D1*
X2495159Y2347344D1*
Y2385635D2*
Y2332045D1*
X2470456Y2385635D2*
Y2332045D1*
Y2370336D2*
X2458960Y2381832D1*
X2451267Y2385635D1*
X2439859D1*
X2432166Y2381832D1*
X2428363Y2370336D1*
Y2332045D1*
Y2370336D2*
X2416867Y2381832D1*
X2409174Y2385635D1*
X2397766D1*
X2390072Y2381832D1*
X2386181Y2370336D1*
Y2332045D1*
X2342377Y2385635D2*
X2349983Y2381832D1*
X2357676Y2374139D1*
X2361479Y2362643D1*
Y2355037D1*
X2357676Y2343541D1*
X2349983Y2335936D1*
X2342377Y2332045D1*
X2330881D1*
X2323188Y2335936D1*
X2315583Y2343541D1*
X2311692Y2355037D1*
Y2362643D1*
X2315583Y2374139D1*
X2323188Y2381832D1*
X2330881Y2385635D1*
X2342377D1*
X2205336Y2393240D2*
Y2397042D1*
X2201534Y2404736D1*
X2197731Y2408538D1*
X2190038Y2412341D1*
X2174739D1*
X2167134Y2408538D1*
X2163332Y2404736D1*
X2159441Y2397042D1*
Y2389437D1*
X2163332Y2381744D1*
X2170937Y2370336D1*
X2209227Y2332045D1*
X2155638D1*
X2107943Y2412341D2*
X2119439Y2408538D1*
X2127133Y2397042D1*
X2130935Y2377941D1*
Y2366445D1*
X2127133Y2347344D1*
X2119439Y2335848D1*
X2107943Y2332045D1*
X2100338D1*
X2088842Y2335848D1*
X2081237Y2347344D1*
X2077346Y2366445D1*
Y2377941D1*
X2081237Y2397042D1*
X2088842Y2408538D1*
X2100338Y2412341D1*
X2107943D1*
X2081237Y2397042D2*
X2127133Y2347344D1*
X2052643Y2397042D2*
X2044950Y2400933D1*
X2033454Y2412341D1*
Y2332045D1*
X1993452D2*
X1955161Y2412341D1*
X2008751D1*
X2556445Y2092490D2*
D97*
X2610068D1*
X2620049Y2095817D1*
X2623454Y2099144D1*
X2626781Y2105876D1*
Y2115935D1*
X2623454Y2122590D1*
X2566504Y2092490D2*
X2559850Y2099144D1*
X2556445Y2105876D1*
Y2115935D1*
X2559850Y2122590D1*
X2566504Y2129322D1*
X2576563Y2132649D1*
X2583295D1*
X2593277Y2129322D1*
X2600009Y2122590D1*
X2603336Y2115935D1*
Y2105876D1*
X2600009Y2099144D1*
X2593277Y2092490D1*
X2529673Y2070875D2*
X2600009D1*
X2566504D2*
X2556445Y2060816D1*
X2553118Y2054084D1*
Y2044025D1*
X2556445Y2037371D1*
X2566504Y2034043D1*
X2600009D1*
X2553118Y1995715D2*
X2556445Y2002369D1*
X2563177Y2009101D1*
X2573236Y2012428D1*
X2579891D1*
X2589950Y2009101D1*
X2596604Y2002369D1*
X2600009Y1995715D1*
Y1985656D1*
X2596604Y1978924D1*
X2589950Y1972270D1*
X2579891Y1968865D1*
X2573236D1*
X2563177Y1972270D1*
X2556445Y1978924D1*
X2553118Y1985656D1*
Y1995715D1*
Y1947250D2*
X2586622D1*
X2596604Y1943923D1*
X2600009Y1937191D1*
Y1927132D1*
X2596604Y1920478D1*
X2586622Y1910418D1*
X2553118D2*
X2600009D1*
X2556445Y1848645D2*
X2610068D1*
X2620049Y1851972D1*
X2623454Y1855299D1*
X2626781Y1862031D1*
Y1872090D1*
X2623454Y1878744D1*
X2566504Y1848645D2*
X2559850Y1855299D1*
X2556445Y1862031D1*
Y1872090D1*
X2559850Y1878744D1*
X2566504Y1885476D1*
X2576563Y1888804D1*
X2583295D1*
X2593277Y1885476D1*
X2600009Y1878744D1*
X2603336Y1872090D1*
Y1862031D1*
X2600009Y1855299D1*
X2593277Y1848645D1*
X2529673Y1827030D2*
X2600009D1*
X2566504D2*
X2556445Y1816971D1*
X2553118Y1810239D1*
Y1800180D1*
X2556445Y1793525D1*
X2566504Y1790198D1*
X2600009D1*
X2553118Y1768583D2*
X2623454D1*
X2563177D2*
X2556523Y1761851D1*
X2553118Y1755197D1*
Y1745138D1*
X2556523Y1738406D1*
X2563177Y1731752D1*
X2573236Y1728347D1*
X2579968D1*
X2589950Y1731752D1*
X2596681Y1738406D1*
X2600009Y1745138D1*
Y1755197D1*
X2596681Y1761851D1*
X2589950Y1768583D1*
X2529673Y1706732D2*
X2600009D1*
X2566504D2*
X2556445Y1696673D1*
X2553118Y1689941D1*
Y1679882D1*
X2556445Y1673228D1*
X2566504Y1669900D1*
X2600009D1*
X2529673Y1638226D2*
X2586622D1*
X2596604Y1634899D1*
X2600009Y1628167D1*
Y1621513D1*
X2553118Y1648285D2*
Y1624840D1*
X2529673Y1599898D2*
X2600009D1*
X2566504D2*
X2556445Y1589839D1*
X2553118Y1583107D1*
Y1573048D1*
X2556445Y1566394D1*
X2566504Y1563066D1*
X2600009D1*
X2573236Y1541451D2*
Y1501293D1*
X2566504D1*
X2559772Y1504620D1*
X2556445Y1507947D1*
X2553118Y1514679D1*
Y1524738D1*
X2556445Y1531392D1*
X2563177Y1538124D1*
X2573236Y1541451D1*
X2579891D1*
X2589950Y1538124D1*
X2596604Y1531392D1*
X2600009Y1524738D1*
Y1514679D1*
X2596604Y1507947D1*
X2589950Y1501293D1*
X2529673Y1479678D2*
X2533000Y1476350D1*
X2529673Y1472946D1*
X2526268Y1476350D1*
X2529673Y1479678D1*
X2553118Y1476350D2*
X2600009D1*
X2556445Y1411172D2*
X2610068D1*
X2620049Y1414499D1*
X2623454Y1417826D1*
X2626781Y1424558D1*
Y1434617D1*
X2623454Y1441272D1*
X2566504Y1411172D2*
X2559850Y1417826D1*
X2556445Y1424558D1*
Y1434617D1*
X2559850Y1441272D1*
X2566504Y1448004D1*
X2576563Y1451331D1*
X2583295D1*
X2593277Y1448004D1*
X2600009Y1441272D1*
X2603336Y1434617D1*
Y1424558D1*
X2600009Y1417826D1*
X2593277Y1411172D1*
X2529673Y1389557D2*
X2600009D1*
X2566504D2*
X2556445Y1379498D1*
X2553118Y1372766D1*
Y1362707D1*
X2556445Y1356053D1*
X2566504Y1352725D1*
X2600009D1*
X2529673Y1321051D2*
X2586622D1*
X2596604Y1317724D1*
X2600009Y1310992D1*
Y1304338D1*
X2553118Y1331110D2*
Y1307665D1*
X2529673Y1272664D2*
X2586622D1*
X2596604Y1269337D1*
X2600009Y1262605D1*
Y1255950D1*
X2553118Y1282723D2*
Y1259278D1*
X2573236Y1234335D2*
Y1194177D1*
X2566504D1*
X2559772Y1197504D1*
X2556445Y1200831D1*
X2553118Y1207563D1*
Y1217622D1*
X2556445Y1224276D1*
X2563177Y1231008D1*
X2573236Y1234335D1*
X2579891D1*
X2589950Y1231008D1*
X2596604Y1224276D1*
X2600009Y1217622D1*
Y1207563D1*
X2596604Y1200831D1*
X2589950Y1194177D1*
X2573236Y1172562D2*
Y1132403D1*
X2566504D1*
X2559772Y1135730D1*
X2556445Y1139057D1*
X2553118Y1145789D1*
Y1155848D1*
X2556445Y1162503D1*
X2563177Y1169234D1*
X2573236Y1172562D1*
X2579891D1*
X2589950Y1169234D1*
X2596604Y1162503D1*
X2600009Y1155848D1*
Y1145789D1*
X2596604Y1139057D1*
X2589950Y1132403D1*
X2553118Y1070629D2*
X2600009D1*
X2563177D2*
X2556445Y1077284D1*
X2553118Y1084015D1*
Y1093997D1*
X2556445Y1100729D1*
X2563177Y1107383D1*
X2573236Y1110788D1*
X2579891D1*
X2589950Y1107383D1*
X2596604Y1100729D1*
X2600009Y1093997D1*
Y1084015D1*
X2596604Y1077283D1*
X2589950Y1070629D1*
X2553118Y1049014D2*
X2586622D1*
X2596604Y1045687D1*
X2600009Y1038955D1*
Y1028896D1*
X2596604Y1022242D1*
X2586622Y1012183D1*
X2553118D2*
X2600009D1*
M02*
