G04 DipTrace 3.0.0.2*
G04 BottomMask.gbr*
%MOIN*%
G04 #@! TF.FileFunction,Soldermask,Bot*
G04 #@! TF.Part,Single*
%ADD35R,0.066929X0.066929*%
%ADD36C,0.066929*%
%ADD52C,0.105*%
%ADD61C,0.129921*%
%ADD63R,0.129921X0.129921*%
%ADD65C,0.047244*%
%ADD67C,0.066929*%
%ADD80C,0.074803*%
%ADD81R,0.074803X0.074803*%
%ADD82C,0.086614*%
%ADD83R,0.283465X0.244094*%
%FSLAX26Y26*%
G04*
G70*
G90*
G75*
G01*
G04 BotMask*
%LPD*%
D83*
X618701Y2518701D3*
Y2802166D3*
D82*
X1890869Y1387688D3*
X1990869D3*
X2090869D3*
X2190869D3*
Y2687688D3*
X2090869D3*
X1990869D3*
X1890869D3*
X984179Y1353561D3*
X1084179D3*
X1184179D3*
X1284179D3*
Y2653561D3*
X1184179D3*
X1084179D3*
X984179D3*
D81*
X1518701Y1368701D3*
D80*
Y1468701D3*
Y1568701D3*
Y1668701D3*
D81*
X1631201D3*
D80*
Y1568701D3*
Y1468701D3*
Y1368701D3*
D52*
X1068201Y481201D3*
X2006201D3*
X1068201Y2931201D3*
X2006201D3*
D80*
X923798Y466386D3*
X823798D3*
X723798D3*
X623798D3*
X2475631Y465458D3*
X2375631D3*
X2275631D3*
X2175631D3*
X918701Y685131D3*
X818701D3*
X718701D3*
X618701D3*
X2481201Y673708D3*
X2381201D3*
X2281201D3*
X2181201D3*
D35*
X1516973Y2882820D3*
D36*
X1438232D3*
X1359492D3*
X1280752D3*
Y2804080D3*
X1359492D3*
X1438232D3*
X1516973D3*
D67*
X443701Y456201D3*
Y531201D3*
Y606201D3*
Y681201D3*
Y756201D3*
Y831201D3*
X518701Y456201D3*
Y531201D3*
Y606201D3*
Y681201D3*
Y756201D3*
Y831201D3*
D65*
X1934958Y2456568D3*
X1936229Y2507015D3*
D81*
X1831201Y478454D3*
D80*
X1731201D3*
X1631201D3*
D81*
X1493701D3*
D80*
X1393701D3*
X1293701D3*
D82*
X493701Y1631201D3*
X749607D3*
X493701Y1431201D3*
X749607D3*
X493701Y1218701D3*
X749607D3*
X493701Y1006201D3*
X749607D3*
D63*
X618701Y1856201D3*
D61*
Y2041240D3*
Y2226280D3*
D35*
X1733347Y2782921D3*
D36*
X1633347D3*
X1733347Y2882921D3*
X1633347D3*
M02*
