G04 DipTrace 3.0.0.2*
G04 Bottom.gbr*
%MOIN*%
G04 #@! TF.FileFunction,Copper,L2,Bot*
G04 #@! TF.Part,Single*
G04 #@! TA.AperFunction,ComponentPad*
%ADD14C,0.03937*%
G04 #@! TA.AperFunction,Conductor*
%ADD15C,0.008005*%
%ADD17C,0.019685*%
%ADD20C,0.027559*%
G04 #@! TA.AperFunction,CopperBalancing*
%ADD22C,0.025*%
G04 #@! TA.AperFunction,ComponentPad*
%ADD32R,0.275591X0.23622*%
%ADD34C,0.07874*%
%ADD35R,0.066929X0.066929*%
%ADD36C,0.066929*%
%ADD45R,0.059055X0.059055*%
%ADD46C,0.059055*%
%ADD47C,0.059055*%
%ADD48R,0.122047X0.122047*%
%ADD49C,0.122047*%
G04 #@! TA.AperFunction,ViaPad*
%ADD50C,0.04*%
%FSLAX26Y26*%
G04*
G70*
G90*
G75*
G01*
G04 Bottom*
%LPD*%
X2338765Y1244498D2*
D14*
Y1028524D1*
X2286836Y976595D1*
X1368253Y2138247D2*
D15*
X1370395D1*
Y2279753D1*
X1336776Y2313373D1*
Y2461877D1*
X1287121Y2511532D1*
Y2580016D1*
X1361335Y2654230D1*
Y2805923D1*
X1359492Y2804080D1*
X1576692Y1740849D2*
D14*
X1830460D1*
X1963592Y1873982D1*
X2019453D1*
X2048714Y1844722D1*
Y1811028D1*
X1917356Y1679670D1*
Y1628630D1*
X2094872Y1451116D1*
X2137786D1*
X2186575Y1499903D1*
Y1487534D1*
X493701Y1431201D2*
D15*
Y1356201D1*
X706201Y1143701D1*
X1097621D1*
X1127538Y1173618D1*
Y1288529D1*
X1493701Y478454D2*
D17*
X1479708D1*
X1331834Y626328D1*
X1269605D1*
X1205876Y690058D1*
Y753613D1*
X1213931Y761668D1*
X1359492Y2882820D2*
D15*
Y2894575D1*
X1313554Y2940513D1*
X1246047D1*
X1208399Y2902865D1*
Y2712030D1*
X1234671Y2685759D1*
Y2620848D1*
X1262924Y2592595D1*
Y2486142D1*
X1313554Y2435512D1*
Y2286218D1*
X1352500Y2247272D1*
Y2185019D1*
X1302694Y2135213D1*
X1943453Y921294D2*
D17*
Y937036D1*
X1969664Y963247D1*
Y1128974D1*
X1931037Y1167601D1*
Y1196466D1*
X2064075Y1329504D1*
X2151086D1*
X2202021Y1278568D1*
X815622Y1764877D2*
D20*
Y1897537D1*
X1093555Y2175470D1*
X1117282D1*
X1132778Y2159974D1*
X1516267Y1017900D2*
D15*
X1514188D1*
Y977437D1*
X1404156Y867406D1*
X1298769D1*
X1297915Y868260D1*
X1273221Y1072210D2*
Y1113331D1*
X1297687Y1137797D1*
Y1237575D1*
X1360404Y1300293D1*
Y1399095D1*
X1327729Y1431771D1*
X1248335D1*
X1242970Y1437135D1*
Y1571554D1*
X1245511Y1574095D1*
X1218701Y1043701D2*
X1220253D1*
Y1087150D1*
X1281624Y1148520D1*
Y1251196D1*
X1340931Y1310503D1*
Y1383971D1*
X1318701Y1406201D1*
X1236614D1*
X1175407Y1467408D1*
Y1537907D1*
X1181201Y1543701D1*
X1162705Y1011652D2*
X1170687Y1019634D1*
Y1074835D1*
X1234711Y1138860D1*
Y1378727D1*
X1149589Y1463849D1*
Y1637089D1*
X1181201Y1668701D1*
X1044012Y1721841D2*
X1039868D1*
X988407Y1670381D1*
Y1442612D1*
X928715Y1382920D1*
Y1312231D1*
X961235Y1279711D1*
X1034019D1*
X1070116Y1243614D1*
Y1247668D1*
X1705297Y890067D2*
X1698776D1*
Y917311D1*
X1745822Y964357D1*
X1889357D1*
X1918701Y993701D1*
Y1089181D1*
X1898134Y1109748D1*
X1848134Y1117814D2*
X1874021Y1143701D1*
X1918701D1*
X1943701Y1118701D1*
Y986953D1*
X1899908Y943160D1*
X1818260D1*
X1727449Y852349D1*
X1677301D1*
X1631042Y850473D2*
X1622474D1*
Y878358D1*
X1725316Y981201D1*
X1856201D1*
X1885807Y1010807D1*
Y1058248D1*
X1582066Y847814D2*
X1592697D1*
Y887911D1*
X1710987Y1006201D1*
X1826983D1*
X1849588Y1028806D1*
X1681201Y668701D2*
Y528454D1*
X1631201Y478454D1*
X618701Y685131D2*
X589771D1*
X518701Y756201D1*
X2181201Y673708D2*
Y650576D1*
X2231209Y600568D1*
Y521036D1*
X2175631Y465458D1*
X1890869Y2687688D2*
X1631002D1*
X1616221Y2702469D1*
X1018701Y2781201D2*
X1149882D1*
X1156929Y2788248D1*
X923798Y466386D2*
Y534441D1*
X1183058Y793701D1*
X1374732D1*
Y801504D1*
X1298281Y758326D2*
X1383326D1*
X1437236Y812236D1*
X1909672D1*
X2151743Y570166D1*
X2327211Y1305677D2*
X2333511D1*
Y1354603D1*
X2319740Y1368373D1*
Y1847011D1*
X2130315Y2036436D1*
X2003008D1*
X1973792Y2065652D1*
X1934250D1*
X1931201Y2068701D1*
X1377025Y2359547D2*
Y2349551D1*
X1517503Y2209074D1*
Y2148086D1*
X2056201Y1018701D2*
X2057773D1*
X2293776Y1254704D1*
Y1828274D1*
X2111579Y2010471D1*
X1972423D1*
X1951693Y2031201D1*
X1893701D1*
X1372742Y2412385D2*
X1367028D1*
X1581232Y2198180D1*
Y2151326D1*
X1564167Y2134260D1*
X1762970Y2109677D2*
Y2149432D1*
X1595927Y2316475D1*
Y2657074D1*
X1570331Y2682670D1*
Y2921189D1*
X1546390Y2945130D1*
X1466588D1*
X1438232Y2916774D1*
Y2882820D1*
X1593637Y1846563D2*
X1561788D1*
X1559696Y1848655D1*
X1514634D1*
X1355067Y1689088D1*
X1232664D1*
X1213878Y1670302D1*
Y1496146D1*
X1209617Y1491885D1*
X1438232Y2804080D2*
X1437138D1*
Y2702080D1*
X1310536Y2575478D1*
Y2532815D1*
X1610792Y2232559D1*
Y2089654D1*
X1349075Y2056702D2*
X1342622D1*
X1380630Y2094710D1*
X1610792D1*
Y2089654D1*
X1831201Y1981201D2*
Y1992769D1*
X2082074D1*
X2265037Y1809806D1*
Y1694423D1*
X2227415Y1656801D1*
X2222242D1*
X1287313Y1961704D2*
Y1963629D1*
X1402641D1*
X1482530Y2043519D1*
X1536410D1*
X749607Y1631201D2*
X839420D1*
X997533Y1789314D1*
X1308121D1*
X1495790Y1976983D1*
Y2006281D1*
X749607Y1431201D2*
X918701D1*
X958975Y1471475D1*
Y1700776D1*
X1020381Y1762181D1*
X1328071D1*
X1523915Y1958025D1*
Y1962933D1*
X1524872D1*
X749607Y1218701D2*
X793701D1*
X831201Y1181201D1*
X1055570D1*
X1104932Y1230563D1*
Y1257386D1*
X1034638Y1327680D1*
Y1637116D1*
X1136311Y1738789D1*
X1343009D1*
X1538937Y1934717D1*
X1565666D1*
Y1933007D1*
X749607Y1006201D2*
X1018701D1*
X1195049Y1182549D1*
Y1287051D1*
X1178032Y1304068D1*
X1155007D1*
X1134100Y1324975D1*
Y1671600D1*
X1174956Y1712456D1*
X1341956D1*
X1506925Y1877425D1*
X1560234D1*
Y1885198D1*
X1487948Y854780D2*
Y867433D1*
X1578810Y958295D1*
X1600793D1*
X1940960Y1298462D1*
Y1496442D1*
X1878914Y1558488D1*
X1859150D1*
X1827316Y1590322D1*
X1841544D1*
X1839404Y1592462D1*
X1534643Y846327D2*
Y885550D1*
X1580294Y931201D1*
X1612605D1*
X2040882Y1359478D1*
Y1446520D1*
X1855670Y1631732D1*
X1871302D1*
X1731201Y478454D2*
Y645137D1*
X1820965Y734900D1*
X2302991Y2191490D2*
Y2196944D1*
X2326499Y2220452D1*
X2424402D1*
X2441680Y2237730D1*
X2526936D1*
X2563222Y2201444D1*
Y2184750D1*
X2552470D1*
X2538624Y940331D2*
X2456715D1*
X2320958Y804574D1*
X2004372D1*
X2007499Y801446D1*
X1768534Y733000D2*
X1683000D1*
X1568701Y618701D1*
Y532620D1*
X1566944D1*
Y457584D1*
X1528541Y419181D1*
X1430584D1*
X1393701Y456065D1*
Y478454D1*
X2305957Y2245276D2*
X2403688D1*
X2415150Y2256738D1*
X2569368D1*
X2579538Y2246567D1*
X2014465Y856883D2*
X2324271D1*
X2460897Y993509D1*
X2546879D1*
X2557091Y983298D1*
X2131201Y2137368D2*
X2129303Y2135470D1*
Y2130337D1*
X2157861Y2101780D1*
X2196824D1*
X2431201Y1867403D1*
Y1618701D1*
X2493701Y818701D2*
Y781201D1*
X2456201Y743701D1*
X2168701D1*
X2106201Y681201D1*
X823798Y466386D2*
Y473798D1*
X1168701Y818701D1*
X1343701D1*
X1359635Y834635D1*
X1417083D1*
X1562265Y979818D1*
X1587486D1*
X1835436Y1227768D1*
Y1531672D1*
X1798894Y1568214D1*
Y1631331D1*
X1988495Y1820932D1*
X2056201Y2093701D2*
Y2083643D1*
X2165009D1*
X2393701Y1854950D1*
Y1581201D1*
X2356201Y1531201D2*
Y1853827D1*
X2153529Y2056499D1*
X2046177D1*
X2018701Y2083975D1*
Y2155074D1*
X2025184Y2161557D1*
X1501191Y1174995D2*
X1639251D1*
X1781201Y1316945D1*
Y1318701D1*
X1456899Y1195847D2*
X1458347D1*
X1481201Y1218701D1*
X1643701D1*
X1745130Y1320130D1*
Y1353278D1*
X1796188Y1404336D1*
X1456201Y1243701D2*
X1443701D1*
X1423449Y1223449D1*
Y1176453D1*
X1456201Y1143701D1*
X1641021D1*
X1763823Y1266503D1*
X1797407D1*
X1733347Y2882921D2*
Y2872803D1*
X1816767D1*
X1932436Y2757134D1*
X2214449D1*
X2273881Y2697702D1*
Y2583554D1*
X2273032D1*
X618701Y1856201D2*
X731125D1*
X1235379Y2360456D1*
Y2582659D1*
X1191240Y2626798D1*
Y2646499D1*
X1184179Y2653561D1*
X1345941Y2555093D2*
D14*
X1471470D1*
X1541209Y2485355D1*
D50*
X1762970Y2109677D3*
X2273032Y2583554D3*
X2400067Y2495181D3*
X2473828Y2181016D3*
X784547Y1090246D3*
X788004Y1302340D3*
X783719Y1715189D3*
X813637Y1525311D3*
X2377005Y2014876D3*
X1311977Y687667D3*
X1674822Y767100D3*
X1493701Y1081201D3*
X2056201Y2093701D3*
X1298281Y758326D3*
X2151743Y570166D3*
X1534643Y846327D3*
X1487948Y854780D3*
X1871302Y1631732D3*
X1839404Y1592462D3*
X2025184Y2161557D3*
X2393701Y1581201D3*
X2186575Y1487534D3*
X2131201Y2137368D3*
X1647706Y2397452D3*
X2356201Y1531201D3*
X2431201Y1618701D3*
X2106201Y681201D3*
X2493701Y818701D3*
X1374732Y801504D3*
X1820965Y734900D3*
X1768534Y733000D3*
X2007499Y801446D3*
X2014465Y856883D3*
X2305957Y2245276D3*
X2302991Y2191490D3*
X2579538Y2246567D3*
X2552470Y2184750D3*
X2614424Y2934407D3*
X2557091Y983298D3*
X2538624Y940331D3*
X1213931Y761668D3*
X1147545Y675054D3*
X1127538Y1288529D3*
X1044012Y1721841D3*
X2259062Y1096942D3*
X1070116Y1247668D3*
X1501191Y1174995D3*
X1456899Y1195847D3*
X1456201Y1243701D3*
X1556201Y668701D3*
X1681201D3*
X1495790Y2006281D3*
X1797407Y1266503D3*
X1796188Y1404336D3*
X1781201Y1318701D3*
X1524872Y1962933D3*
X1565666Y1933007D3*
X1560234Y1885198D3*
X1181201Y1668701D3*
Y1543701D3*
X1162705Y1011652D3*
X1218701Y1043701D3*
X1848134Y1117814D3*
X1898134Y1109748D3*
X1885807Y1058248D3*
X1849588Y1028806D3*
X1705297Y890067D3*
X1677301Y852349D3*
X1631042Y850473D3*
X1582066Y847814D3*
X1619126Y1078204D3*
X1931201Y2068701D3*
X1893701Y2031201D3*
X1349075Y2056702D3*
X1610792Y2089654D3*
X2327211Y1305677D3*
X2056201Y1018701D3*
X1372742Y2412385D3*
X1377025Y2359547D3*
X1517503Y2148086D3*
X1564167Y2134260D3*
X1209617Y1491885D3*
X1593637Y1846563D3*
X1298729Y1532751D3*
X2034058Y1663925D3*
X1616221Y2702469D3*
X568701Y2943701D3*
X668701D3*
X1018701Y2781201D3*
X1831201Y1981201D3*
X2222242Y1656801D3*
X1287313Y1961704D3*
X1536410Y2043519D3*
X2338765Y1244498D3*
X2286836Y976595D3*
X1345941Y2555093D3*
X1541209Y2485355D3*
X1089990Y1959753D3*
X1273221Y1072210D3*
X1181201Y1606201D3*
X1245511Y1574095D3*
X1302694Y2135213D3*
X1368253Y2138247D3*
X1516267Y1017900D3*
X1156929Y2788248D3*
X1297915Y868260D3*
X1943453Y921294D3*
X2202021Y1278568D3*
X895890Y1904116D3*
X973402Y1230944D3*
X815622Y1764877D3*
X1132778Y2159974D3*
X2137536Y1580431D3*
X1988495Y1820932D3*
X1576692Y1740849D3*
X593760Y1347188D3*
X641551Y1291592D3*
X577701Y1193769D3*
X623020Y1154067D3*
X446201Y2931332D2*
D22*
X986734D1*
X1149692D2*
X1191274D1*
X1390024D2*
X1407730D1*
X1601596D2*
X1702651D1*
X1764047D2*
X1924722D1*
X2087680D2*
X2641226D1*
X446201Y2906463D2*
X990688D1*
X1145738D2*
X1175650D1*
X1603306D2*
X1679995D1*
X1786655D2*
X1928676D1*
X2083726D2*
X2641226D1*
X446201Y2881595D2*
X1004214D1*
X1132163D2*
X1175406D1*
X1603306D2*
X1674819D1*
X1853599D2*
X1942251D1*
X2070151D2*
X2641226D1*
X446201Y2856726D2*
X1039370D1*
X1097007D2*
X1175406D1*
X1603306D2*
X1681314D1*
X1878452D2*
X1977358D1*
X2035044D2*
X2641226D1*
X446201Y2831857D2*
X1175406D1*
X1241391D2*
X1254995D1*
X1663120D2*
X1674802D1*
X1791879D2*
X1812124D1*
X1903306D2*
X2641226D1*
X446201Y2806988D2*
X1175406D1*
X1241391D2*
X1301040D1*
X1791879D2*
X1836978D1*
X1928208D2*
X2641226D1*
X446201Y2782120D2*
X1175406D1*
X1241391D2*
X1305435D1*
X1791879D2*
X1861831D1*
X2234410D2*
X2641226D1*
X446201Y2757251D2*
X1175406D1*
X1241391D2*
X1326235D1*
X1394322D2*
X1404164D1*
X1471470D2*
X1483714D1*
X1791879D2*
X1886734D1*
X2259946D2*
X2641226D1*
X446201Y2732382D2*
X1175406D1*
X1241391D2*
X1328335D1*
X1394322D2*
X1404164D1*
X1470103D2*
X1537368D1*
X1659995D2*
X1674858D1*
X1791879D2*
X1912124D1*
X2284799D2*
X2641226D1*
X446201Y2707513D2*
X1143911D1*
X1470103D2*
X1537368D1*
X1603306D2*
X2025551D1*
X2305259D2*
X2641226D1*
X446201Y2682645D2*
X1122574D1*
X1463120D2*
X1537368D1*
X1615952D2*
X2022719D1*
X2306870D2*
X2641226D1*
X785483Y2657776D2*
X1115932D1*
X1438462D2*
X1549624D1*
X1628891D2*
X2029702D1*
X2306870D2*
X2641226D1*
X785483Y2632907D2*
X1119155D1*
X1413559D2*
X1562954D1*
X1628891D2*
X2051822D1*
X2129916D2*
X2151822D1*
X2229916D2*
X2240915D1*
X2306870D2*
X2641226D1*
X785483Y2608038D2*
X1134096D1*
X1388706D2*
X1562954D1*
X1628891D2*
X2231020D1*
X2315074D2*
X2641226D1*
X785483Y2583170D2*
X1189272D1*
X1511167D2*
X1562954D1*
X1628891D2*
X2224038D1*
X2322007D2*
X2641226D1*
X785483Y2558301D2*
X1202407D1*
X1536070D2*
X1562954D1*
X1628891D2*
X2231508D1*
X2314584D2*
X2641226D1*
X785483Y2533432D2*
X1202407D1*
X1628891D2*
X1895864D1*
X1976596D2*
X2641226D1*
X785483Y2508563D2*
X1202407D1*
X1380406D2*
X1450210D1*
X1628891D2*
X1887563D1*
X1984898D2*
X2641226D1*
X785483Y2483694D2*
X1202407D1*
X1405259D2*
X1475063D1*
X1628891D2*
X1893862D1*
X1978599D2*
X2641226D1*
X785483Y2458826D2*
X1202407D1*
X1430112D2*
X1499966D1*
X1628891D2*
X1886343D1*
X1983579D2*
X2641226D1*
X785483Y2433957D2*
X1202407D1*
X1455015D2*
X1562954D1*
X1628891D2*
X1892202D1*
X1977719D2*
X2641226D1*
X785483Y2409088D2*
X1202407D1*
X1268344D2*
X1280580D1*
X1479868D2*
X1562954D1*
X1628891D2*
X2641226D1*
X785483Y2384219D2*
X1202407D1*
X1268344D2*
X1280580D1*
X1504722D2*
X1562954D1*
X1628891D2*
X2641226D1*
X446201Y2359351D2*
X1188687D1*
X1268344D2*
X1280580D1*
X1529624D2*
X1562954D1*
X1628891D2*
X2641226D1*
X446201Y2334482D2*
X1163784D1*
X1255015D2*
X1280580D1*
X1554478D2*
X1562967D1*
X1628891D2*
X2641226D1*
X446201Y2309613D2*
X1138931D1*
X1230160D2*
X1280580D1*
X1648374D2*
X2641226D1*
X446201Y2284744D2*
X1114076D1*
X1205259D2*
X1280630D1*
X1673276D2*
X2278872D1*
X2333042D2*
X2400600D1*
X2608579D2*
X2641226D1*
X446201Y2259876D2*
X1089175D1*
X1180406D2*
X1294302D1*
X1403355D2*
X1421108D1*
X1698130D2*
X2259340D1*
X2626596D2*
X2641226D1*
X446201Y2235007D2*
X1064322D1*
X1155551D2*
X1319155D1*
X1403355D2*
X1445962D1*
X1722983D2*
X2258120D1*
X2627084D2*
X2641226D1*
X446201Y2210138D2*
X1039467D1*
X1140268D2*
X1319496D1*
X1403355D2*
X1470815D1*
X1643784D2*
X1656655D1*
X1747886D2*
X2257924D1*
X2610923D2*
X2641226D1*
X446201Y2185269D2*
X1014566D1*
X1174302D2*
X1307143D1*
X1403355D2*
X1484536D1*
X1643784D2*
X1681508D1*
X1772739D2*
X1982680D1*
X2067660D2*
X2254410D1*
X2351547D2*
X2503482D1*
X2601450D2*
X2641226D1*
X446201Y2160400D2*
X989711D1*
X1181772D2*
X1261099D1*
X1411607D2*
X1470180D1*
X1643784D2*
X1706411D1*
X1793931D2*
X1976187D1*
X2074155D2*
X2088316D1*
X2174107D2*
X2265932D1*
X2340074D2*
X2510366D1*
X2594566D2*
X2641226D1*
X446201Y2135532D2*
X964858D1*
X1174839D2*
X1253726D1*
X1417172D2*
X1470230D1*
X1643784D2*
X1721840D1*
X1804087D2*
X1984146D1*
X2180160D2*
X2641226D1*
X446201Y2110663D2*
X562906D1*
X674496D2*
X939956D1*
X1088168D2*
X1260708D1*
X1654771D2*
X1713979D1*
X1811948D2*
X1908706D1*
X1953696D2*
X1985708D1*
X2233530D2*
X2641226D1*
X446201Y2085794D2*
X540883D1*
X696519D2*
X915103D1*
X1063315D2*
X1310318D1*
X1659604D2*
X1720571D1*
X1805356D2*
X1885463D1*
X2258432D2*
X2641226D1*
X446201Y2060925D2*
X530923D1*
X706479D2*
X890248D1*
X1038462D2*
X1300259D1*
X1397886D2*
X1454311D1*
X1649839D2*
X1855435D1*
X2283286D2*
X2641226D1*
X446201Y2036057D2*
X528823D1*
X708579D2*
X865395D1*
X1013559D2*
X1304898D1*
X1393247D2*
X1429458D1*
X1584799D2*
X1844986D1*
X2308139D2*
X2641226D1*
X446201Y2011188D2*
X533999D1*
X703403D2*
X840492D1*
X988706D2*
X1337075D1*
X1361070D2*
X1404604D1*
X1572299D2*
X1793179D1*
X2333042D2*
X2641226D1*
X446201Y1986319D2*
X548062D1*
X689340D2*
X815639D1*
X963852D2*
X1245376D1*
X1567563D2*
X1782486D1*
X2357895D2*
X2641226D1*
X446201Y1961450D2*
X580239D1*
X657163D2*
X790786D1*
X938950D2*
X1238344D1*
X1604916D2*
X1786635D1*
X1875767D2*
X2067788D1*
X2382748D2*
X2641226D1*
X446201Y1936582D2*
X528676D1*
X708726D2*
X765883D1*
X914096D2*
X1245668D1*
X1614536D2*
X1815639D1*
X1846763D2*
X2092642D1*
X2407651D2*
X2641226D1*
X446201Y1911713D2*
X528676D1*
X708726D2*
X741030D1*
X889243D2*
X1384927D1*
X1609507D2*
X1934487D1*
X2048570D2*
X2117544D1*
X2432504D2*
X2641226D1*
X446201Y1886844D2*
X528676D1*
X864340D2*
X1360024D1*
X1619370D2*
X1908658D1*
X2074399D2*
X2142398D1*
X2457163D2*
X2641226D1*
X446201Y1861975D2*
X528676D1*
X858383D2*
X1335171D1*
X1640024D2*
X1883803D1*
X2094028D2*
X2167251D1*
X2464194D2*
X2641226D1*
X446201Y1837107D2*
X528676D1*
X757651D2*
X772866D1*
X858383D2*
X1310318D1*
X1641635D2*
X1858950D1*
X2097398D2*
X2192154D1*
X2464194D2*
X2641226D1*
X446201Y1812238D2*
X528676D1*
X708726D2*
X772866D1*
X858383D2*
X974966D1*
X1523814D2*
X1559780D1*
X1627475D2*
X1834047D1*
X2097398D2*
X2217007D1*
X2464194D2*
X2641226D1*
X446201Y1787369D2*
X528676D1*
X708726D2*
X772427D1*
X858823D2*
X949966D1*
X1498960D2*
X1809194D1*
X2090855D2*
X2232046D1*
X2464194D2*
X2641226D1*
X446201Y1762500D2*
X766714D1*
X864536D2*
X925112D1*
X1474107D2*
X1533071D1*
X2067954D2*
X2232046D1*
X2464194D2*
X2641226D1*
X446201Y1737631D2*
X775454D1*
X855795D2*
X900259D1*
X1449204D2*
X1527798D1*
X2043100D2*
X2232046D1*
X2464194D2*
X2641226D1*
X446201Y1712763D2*
X875356D1*
X1424351D2*
X1475551D1*
X2018247D2*
X2232046D1*
X2464194D2*
X2641226D1*
X446201Y1687894D2*
X457680D1*
X529722D2*
X713588D1*
X785630D2*
X850503D1*
X1399496D2*
X1459390D1*
X1693638D2*
X1809828D1*
X1993344D2*
X2185171D1*
X2464194D2*
X2641226D1*
X553843Y1663025D2*
X689467D1*
X809751D2*
X825660D1*
X916831D2*
X925966D1*
X1373374D2*
X1456508D1*
X1693638D2*
X1784975D1*
X1968491D2*
X2173647D1*
X2464194D2*
X2641226D1*
X561704Y1638156D2*
X681607D1*
X891978D2*
X925991D1*
X1081284D2*
X1101138D1*
X1246860D2*
X1464614D1*
X1693638D2*
X1766664D1*
X1975620D2*
X2177163D1*
X2475912D2*
X2641226D1*
X559604Y1613288D2*
X683706D1*
X867124D2*
X925991D1*
X1067612D2*
X1101138D1*
X1273032D2*
X1476138D1*
X1693638D2*
X1765932D1*
X2000474D2*
X2203383D1*
X2241099D2*
X2260806D1*
X2479868D2*
X2641226D1*
X546274Y1588419D2*
X697036D1*
X802183D2*
X925991D1*
X1067612D2*
X1101138D1*
X1292222D2*
X1459584D1*
X1690318D2*
X1765932D1*
X2025376D2*
X2260806D1*
X2468979D2*
X2641226D1*
X446201Y1563550D2*
X925991D1*
X1067612D2*
X1101138D1*
X1293295D2*
X1456460D1*
X1693442D2*
X1766274D1*
X2050230D2*
X2260806D1*
X2439194D2*
X2641226D1*
X446201Y1538681D2*
X925991D1*
X1067612D2*
X1101138D1*
X1278110D2*
X1464322D1*
X1685580D2*
X1782827D1*
X2075083D2*
X2159047D1*
X2214146D2*
X2260806D1*
X2415024D2*
X2641226D1*
X446201Y1513813D2*
X925991D1*
X1067612D2*
X1101138D1*
X1275962D2*
X1476723D1*
X1560679D2*
X1589223D1*
X1673179D2*
X1802456D1*
X1868394D2*
X1877953D1*
X2099936D2*
X2132680D1*
X2233091D2*
X2260806D1*
X2401840D2*
X2641226D1*
X446201Y1488944D2*
X459536D1*
X527866D2*
X715444D1*
X783774D2*
X925991D1*
X1067612D2*
X1101138D1*
X1275962D2*
X1459780D1*
X1690122D2*
X1802456D1*
X1868394D2*
X1902847D1*
X2235532D2*
X2260806D1*
X2378110D2*
X2641226D1*
X553256Y1464075D2*
X690054D1*
X809164D2*
X905971D1*
X1067612D2*
X1101138D1*
X1275962D2*
X1456411D1*
X1693491D2*
X1802456D1*
X1868394D2*
X1907974D1*
X2229234D2*
X2260806D1*
X2352719D2*
X2641226D1*
X561558Y1439206D2*
X681752D1*
X1067612D2*
X1101138D1*
X1365903D2*
X1463979D1*
X1685923D2*
X1762954D1*
X1868394D2*
X1907974D1*
X1973960D2*
X2002603D1*
X2234410D2*
X2260806D1*
X2352719D2*
X2641226D1*
X559848Y1414337D2*
X683462D1*
X1067612D2*
X1101138D1*
X1389292D2*
X1456264D1*
X1672592D2*
X1748306D1*
X1868394D2*
X1907974D1*
X1973960D2*
X2007924D1*
X2352719D2*
X2641226D1*
X547154Y1389469D2*
X571939D1*
X615610D2*
X696158D1*
X803062D2*
X896450D1*
X980894D2*
X1001675D1*
X1067612D2*
X1101138D1*
X1393394D2*
X1456264D1*
X1689927D2*
X1735708D1*
X1868394D2*
X1907974D1*
X1973960D2*
X2007924D1*
X2352719D2*
X2641226D1*
X446201Y1364600D2*
X460708D1*
X530894D2*
X548159D1*
X639390D2*
X895718D1*
X961704D2*
X1001675D1*
X1067612D2*
X1101138D1*
X1393394D2*
X1456264D1*
X1693540D2*
X1714322D1*
X1868394D2*
X1907974D1*
X1973960D2*
X2000406D1*
X2364828D2*
X2641226D1*
X446201Y1339731D2*
X465542D1*
X642172D2*
X895718D1*
X961704D2*
X1001675D1*
X1068198D2*
X1101138D1*
X1393394D2*
X1456264D1*
X1686215D2*
X1712172D1*
X1868394D2*
X1907974D1*
X2238511D2*
X2260806D1*
X2366490D2*
X2641226D1*
X446201Y1314862D2*
X489419D1*
X684311D2*
X895718D1*
X971714D2*
X1004458D1*
X1393394D2*
X1456264D1*
X1581138D2*
X1602310D1*
X1660092D2*
X1694252D1*
X1868394D2*
X1907974D1*
X2233579D2*
X2260806D1*
X2375278D2*
X2641226D1*
X446201Y1289994D2*
X514322D1*
X690512D2*
X905336D1*
X1391587D2*
X1449379D1*
X1463020D2*
X1669399D1*
X1868394D2*
X1886879D1*
X2078452D2*
X2136734D1*
X2249595D2*
X2260757D1*
X2373471D2*
X2641226D1*
X682260Y1265125D2*
X700406D1*
X798814D2*
X930191D1*
X1370835D2*
X1412416D1*
X1499986D2*
X1644496D1*
X2053550D2*
X2154995D1*
X2249008D2*
X2258616D1*
X2382944D2*
X2641226D1*
X655259Y1240256D2*
X684878D1*
X817759D2*
X1021694D1*
X1345982D2*
X1395523D1*
X2028696D2*
X2173208D1*
X2387583D2*
X2641226D1*
X842612Y1215387D2*
X1034146D1*
X1330650D2*
X1390444D1*
X1758335D2*
X1777456D1*
X2003843D2*
X2208852D1*
X2387436D2*
X2641226D1*
X1330650Y1190519D2*
X1390444D1*
X1733432D2*
X1752603D1*
X1978940D2*
X2183999D1*
X2275180D2*
X2290092D1*
X2387436D2*
X2641226D1*
X1330650Y1165650D2*
X1392446D1*
X1708579D2*
X1727700D1*
X1986851D2*
X2159096D1*
X2250327D2*
X2290103D1*
X2387436D2*
X2641226D1*
X446201Y1140781D2*
X575991D1*
X1330650D2*
X1413491D1*
X1683726D2*
X1702872D1*
X2006528D2*
X2134243D1*
X2225474D2*
X2290103D1*
X2387436D2*
X2641226D1*
X446201Y1115912D2*
X593960D1*
X652084D2*
X691176D1*
X1321420D2*
X1441176D1*
X1656040D2*
X1677992D1*
X2008482D2*
X2109390D1*
X2200571D2*
X2290103D1*
X2387436D2*
X2641226D1*
X446201Y1091044D2*
X1057924D1*
X1318247D2*
X1653091D1*
X2008482D2*
X2084487D1*
X2175718D2*
X2290103D1*
X2387436D2*
X2641226D1*
X446201Y1066175D2*
X463979D1*
X523423D2*
X719887D1*
X779331D2*
X1033071D1*
X1124302D2*
X1137736D1*
X1321811D2*
X1628238D1*
X1793198D2*
X1819448D1*
X2008482D2*
X2059634D1*
X2150864D2*
X2290103D1*
X2387436D2*
X2641226D1*
X551939Y1041306D2*
X691372D1*
X807847D2*
X1008218D1*
X1099399D2*
X1124379D1*
X1310435D2*
X1473599D1*
X1558920D2*
X1603383D1*
X1768295D2*
X1802310D1*
X2125962D2*
X2283755D1*
X2387436D2*
X2641226D1*
X561264Y1016437D2*
X682046D1*
X1074546D2*
X1113979D1*
X1258872D2*
X1467299D1*
X1565219D2*
X1578520D1*
X2105160D2*
X2258902D1*
X2385826D2*
X2438295D1*
X2592222D2*
X2641226D1*
X560435Y991568D2*
X682876D1*
X1049692D2*
X1118276D1*
X1207114D2*
X1475454D1*
X2096470D2*
X2240298D1*
X2369614D2*
X2413344D1*
X2605356D2*
X2641226D1*
X548911Y966700D2*
X694399D1*
X804819D2*
X1148355D1*
X1177084D2*
X1457827D1*
X2008482D2*
X2238931D1*
X2344711D2*
X2388491D1*
X2603012D2*
X2641226D1*
X446201Y941831D2*
X477260D1*
X510142D2*
X733168D1*
X766050D2*
X1432974D1*
X2001499D2*
X2253482D1*
X2320200D2*
X2363588D1*
X2587583D2*
X2641226D1*
X446201Y916962D2*
X1408120D1*
X1992222D2*
X2338735D1*
X2581332D2*
X2641226D1*
X446201Y892093D2*
X1255483D1*
X1812778D2*
X1904799D1*
X2047348D2*
X2313882D1*
X2454087D2*
X2641226D1*
X564096Y867225D2*
X1248940D1*
X1787924D2*
X1966616D1*
X2429234D2*
X2641226D1*
X576108Y842356D2*
X1146987D1*
X1916879D2*
X1967788D1*
X2404331D2*
X2451187D1*
X2536215D2*
X2641226D1*
X575523Y817487D2*
X1121890D1*
X1950034D2*
X1961364D1*
X2379478D2*
X2444742D1*
X2542660D2*
X2641226D1*
X561802Y792618D2*
X1096987D1*
X2354624D2*
X2452700D1*
X2534702D2*
X2641226D1*
X446201Y767750D2*
X1072134D1*
X1438364D2*
X1735171D1*
X1856382D2*
X1908559D1*
X2042026D2*
X2147475D1*
X2523570D2*
X2641226D1*
X446201Y742881D2*
X700063D1*
X737339D2*
X800063D1*
X837339D2*
X900063D1*
X937339D2*
X1047280D1*
X1413511D2*
X1647280D1*
X1869272D2*
X1933412D1*
X2024643D2*
X2122280D1*
X2501011D2*
X2641226D1*
X563412Y718012D2*
X666079D1*
X971323D2*
X1022427D1*
X1152963D2*
X1167055D1*
X1244711D2*
X1272622D1*
X1323960D2*
X1622427D1*
X1866782D2*
X1958267D1*
X2049496D2*
X2075307D1*
X2524107D2*
X2641226D1*
X575912Y693143D2*
X656802D1*
X980600D2*
X997524D1*
X1128110D2*
X1167055D1*
X1256675D2*
X1597524D1*
X1688755D2*
X1733608D1*
X1843882D2*
X1983168D1*
X2163755D2*
X2221987D1*
X2540415D2*
X2641226D1*
X575718Y668274D2*
X658658D1*
X1103256D2*
X1174331D1*
X1281528D2*
X1572671D1*
X1663902D2*
X1708755D1*
X1799936D2*
X2008023D1*
X2153355D2*
X2219008D1*
X2543394D2*
X2641226D1*
X563071Y643406D2*
X673159D1*
X764243D2*
X773114D1*
X864243D2*
X873114D1*
X1078355D2*
X1198647D1*
X1368638D2*
X1547818D1*
X1638999D2*
X1698208D1*
X1775083D2*
X2032876D1*
X2135776D2*
X2226967D1*
X2535435D2*
X2641226D1*
X575864Y618537D2*
X922915D1*
X1053500D2*
X1223550D1*
X1393491D2*
X1535708D1*
X1614146D2*
X1698208D1*
X1764194D2*
X2057778D1*
X2148960D2*
X2255239D1*
X2307163D2*
X2355239D1*
X2407163D2*
X2455239D1*
X2507163D2*
X2641226D1*
X575815Y593668D2*
X898062D1*
X1028647D2*
X1251235D1*
X1418344D2*
X1535708D1*
X1601694D2*
X1698208D1*
X1764194D2*
X2082631D1*
X2194370D2*
X2641226D1*
X562924Y568799D2*
X873208D1*
X1003744D2*
X1335512D1*
X1443247D2*
X1535708D1*
X1601694D2*
X1698208D1*
X1764194D2*
X2102748D1*
X2200718D2*
X2641226D1*
X575767Y543931D2*
X848306D1*
X978891D2*
X1017691D1*
X1118687D2*
X1360366D1*
X1468100D2*
X1535708D1*
X1601694D2*
X1698208D1*
X1764194D2*
X1955679D1*
X2056723D2*
X2110855D1*
X2192612D2*
X2641226D1*
X575912Y519062D2*
X692642D1*
X754916D2*
X792642D1*
X956772D2*
X996352D1*
X1140024D2*
X1347084D1*
X1599936D2*
X1684584D1*
X1893638D2*
X1934390D1*
X2078012D2*
X2246255D1*
X2305015D2*
X2346255D1*
X2405015D2*
X2446255D1*
X2505015D2*
X2641226D1*
X563267Y494193D2*
X668179D1*
X979428D2*
X987761D1*
X1148618D2*
X1333364D1*
X1599936D2*
X1670864D1*
X1893638D2*
X1925795D1*
X2086607D2*
X2220523D1*
X2530747D2*
X2641226D1*
X575668Y469324D2*
X661391D1*
X1148814D2*
X1331948D1*
X1599936D2*
X1669448D1*
X1893638D2*
X1925600D1*
X2086802D2*
X2213295D1*
X2537974D2*
X2641226D1*
X575962Y444456D2*
X665492D1*
X982114D2*
X995767D1*
X1140610D2*
X1341811D1*
X1596958D2*
X1679311D1*
X1893638D2*
X1933755D1*
X2078647D2*
X2216958D1*
X2534311D2*
X2641226D1*
X466914Y2663303D2*
X782988D1*
Y2374099D1*
X454414D1*
Y2663303D1*
X466914D1*
X2256528Y1382520D2*
X2254911Y1372313D1*
X2251718Y1362483D1*
X2247025Y1353274D1*
X2240950Y1344914D1*
X2233643Y1337607D1*
X2225282Y1331532D1*
X2216074Y1326839D1*
X2209257Y1324495D1*
X2216389Y1322785D1*
X2223129Y1319994D1*
X2229348Y1316181D1*
X2234897Y1311444D1*
X2239634Y1305895D1*
X2243446Y1299676D1*
X2246238Y1292936D1*
X2247941Y1285841D1*
X2248513Y1278568D1*
X2247941Y1271295D1*
X2246238Y1264201D1*
X2243446Y1257461D1*
X2239634Y1251242D1*
X2234897Y1245693D1*
X2229348Y1240956D1*
X2223129Y1237143D1*
X2216389Y1234352D1*
X2209294Y1232649D1*
X2202021Y1232076D1*
X2194748Y1232649D1*
X2187654Y1234352D1*
X2180914Y1237143D1*
X2174694Y1240956D1*
X2169146Y1245693D1*
X2164408Y1251242D1*
X2160596Y1257461D1*
X2157805Y1264201D1*
X2156101Y1271295D1*
X2155855Y1273377D1*
X2136036Y1293168D1*
X2079065Y1293170D1*
X1967992Y1182036D1*
X1997293Y1152571D1*
X2000645Y1147958D1*
X2003234Y1142878D1*
X2004995Y1137456D1*
X2005887Y1131824D1*
X2005999Y1041474D1*
X2005887Y960397D1*
X2004995Y954765D1*
X2003234Y949343D1*
X2000645Y944263D1*
X1997293Y939650D1*
X1988900Y931097D1*
X1989802Y924942D1*
Y917646D1*
X1988660Y910441D1*
X1986406Y903503D1*
X1983093Y897002D1*
X1978806Y891100D1*
X1973647Y885941D1*
X1967746Y881654D1*
X1961244Y878341D1*
X1954306Y876087D1*
X1947101Y874945D1*
X1939805D1*
X1932600Y876087D1*
X1925662Y878341D1*
X1919160Y881654D1*
X1913259Y885941D1*
X1908100Y891100D1*
X1903813Y897002D1*
X1900500Y903503D1*
X1898246Y910441D1*
X1897798Y912693D1*
X1830914Y912666D1*
X1760929Y842704D1*
X1912065Y842637D1*
X1919096Y841239D1*
X1925605Y838238D1*
X1931235Y833799D1*
X1931457Y833559D1*
X1961101Y803935D1*
X1962292Y812299D1*
X1964546Y819238D1*
X1967858Y825739D1*
X1972146Y831641D1*
X1974130Y833788D1*
X1971512Y839092D1*
X1969257Y846030D1*
X1968116Y853235D1*
Y860532D1*
X1969257Y867736D1*
X1971512Y874675D1*
X1974824Y881176D1*
X1979112Y887078D1*
X1984271Y892236D1*
X1990172Y896524D1*
X1996673Y899836D1*
X2003612Y902091D1*
X2010816Y903232D1*
X2018113D1*
X2025318Y902091D1*
X2032256Y899836D1*
X2038757Y896524D1*
X2044659Y892236D1*
X2049557Y887360D1*
X2311681Y887378D1*
X2441092Y1016698D1*
X2447053Y1020680D1*
X2453777Y1023162D1*
X2460897Y1024004D1*
X2461223Y1023991D1*
X2534676Y1024004D1*
X2542723Y1027515D1*
X2549818Y1029218D1*
X2557091Y1029790D1*
X2564364Y1029218D1*
X2571458Y1027515D1*
X2578198Y1024723D1*
X2584418Y1020911D1*
X2589966Y1016173D1*
X2594704Y1010625D1*
X2598516Y1004406D1*
X2601307Y997666D1*
X2603011Y990571D1*
X2603583Y983298D1*
X2603011Y976025D1*
X2601307Y968931D1*
X2598516Y962191D1*
X2594704Y955971D1*
X2589966Y950423D1*
X2584765Y945958D1*
X2584973Y936683D1*
X2583831Y929478D1*
X2581576Y922540D1*
X2578264Y916038D1*
X2573977Y910137D1*
X2568818Y904978D1*
X2562916Y900691D1*
X2556415Y897378D1*
X2549477Y895124D1*
X2542272Y893982D1*
X2534975D1*
X2527771Y895124D1*
X2520832Y897378D1*
X2514331Y900691D1*
X2508429Y904978D1*
X2503532Y909855D1*
X2469336Y909836D1*
X2340763Y781385D1*
X2334802Y777403D1*
X2328078Y774921D1*
X2325330Y774407D1*
X2368701Y774196D1*
X2443554D1*
X2458151Y788777D1*
X2454061Y794408D1*
X2450748Y800910D1*
X2448494Y807848D1*
X2447352Y815053D1*
Y822349D1*
X2448494Y829554D1*
X2450748Y836492D1*
X2454061Y842994D1*
X2458348Y848895D1*
X2463507Y854054D1*
X2469408Y858341D1*
X2475910Y861654D1*
X2482848Y863908D1*
X2490053Y865050D1*
X2497349D1*
X2504554Y863908D1*
X2511492Y861654D1*
X2517994Y858341D1*
X2523895Y854054D1*
X2529054Y848895D1*
X2533341Y842994D1*
X2536654Y836492D1*
X2538908Y829554D1*
X2540050Y822349D1*
Y815053D1*
X2538908Y807848D1*
X2536654Y800910D1*
X2533341Y794408D1*
X2529054Y788507D1*
X2524177Y783609D1*
X2523820Y776431D1*
X2521874Y769532D1*
X2518372Y763277D1*
X2515264Y759638D1*
X2488782Y733156D1*
X2495197Y732008D1*
X2504146Y729100D1*
X2512528Y724830D1*
X2520139Y719299D1*
X2526793Y712646D1*
X2532323Y705034D1*
X2536593Y696652D1*
X2539502Y687704D1*
X2540973Y678412D1*
Y669003D1*
X2539502Y659711D1*
X2536593Y650763D1*
X2532323Y642381D1*
X2526793Y634769D1*
X2520139Y628116D1*
X2512528Y622586D1*
X2504146Y618315D1*
X2495197Y615407D1*
X2485906Y613936D1*
X2476496D1*
X2467205Y615407D1*
X2458256Y618315D1*
X2449874Y622586D1*
X2442263Y628116D1*
X2435609Y634769D1*
X2431234Y640652D1*
X2426793Y634769D1*
X2420139Y628116D1*
X2412528Y622586D1*
X2404146Y618315D1*
X2395197Y615407D1*
X2385906Y613936D1*
X2376496D1*
X2367205Y615407D1*
X2358256Y618315D1*
X2349874Y622586D1*
X2342263Y628116D1*
X2335609Y634769D1*
X2331234Y640652D1*
X2326793Y634769D1*
X2320139Y628116D1*
X2312528Y622586D1*
X2304146Y618315D1*
X2295197Y615407D1*
X2285906Y613936D1*
X2276496D1*
X2267205Y615407D1*
X2258256Y618315D1*
X2249874Y622586D1*
X2242263Y628116D1*
X2235609Y634769D1*
X2230079Y642381D1*
X2225809Y650763D1*
X2222900Y659711D1*
X2221429Y669003D1*
Y678412D1*
X2222900Y687704D1*
X2225809Y696652D1*
X2230079Y705034D1*
X2236146Y713227D1*
X2181348Y713206D1*
X2152596Y684469D1*
X2152550Y677553D1*
X2151408Y670348D1*
X2149154Y663410D1*
X2145841Y656908D1*
X2141554Y651007D1*
X2136395Y645848D1*
X2130494Y641561D1*
X2125897Y639125D1*
X2148512Y616523D1*
X2155391Y616515D1*
X2162596Y615373D1*
X2169534Y613118D1*
X2176036Y609806D1*
X2181937Y605519D1*
X2187096Y600360D1*
X2191383Y594458D1*
X2194696Y587957D1*
X2196950Y581019D1*
X2198092Y573814D1*
Y566517D1*
X2196950Y559313D1*
X2194696Y552374D1*
X2191383Y545873D1*
X2187096Y539971D1*
X2181937Y534813D1*
X2176036Y530525D1*
X2169534Y527213D1*
X2162596Y524958D1*
X2155391Y523816D1*
X2148095D1*
X2140890Y524958D1*
X2133952Y527213D1*
X2127450Y530525D1*
X2121549Y534813D1*
X2116390Y539971D1*
X2112103Y545873D1*
X2108790Y552374D1*
X2106536Y559313D1*
X2105394Y566517D1*
X2105379Y573428D1*
X1897021Y781761D1*
X1449857Y781742D1*
X1403130Y735137D1*
X1397170Y731155D1*
X1390445Y728673D1*
X1383326Y727831D1*
X1382999Y727844D1*
X1333374Y727831D1*
X1328475Y722973D1*
X1322574Y718685D1*
X1316072Y715373D1*
X1309134Y713118D1*
X1301929Y711977D1*
X1294633D1*
X1287428Y713118D1*
X1280490Y715373D1*
X1273988Y718685D1*
X1268087Y722973D1*
X1262928Y728131D1*
X1258641Y734033D1*
X1255334Y740521D1*
X1251544Y734341D1*
X1246806Y728793D1*
X1242188Y724788D1*
X1242210Y705126D1*
X1284635Y662683D1*
X1334684Y662551D1*
X1340315Y661659D1*
X1345738Y659898D1*
X1350818Y657309D1*
X1355431Y653957D1*
X1419398Y590149D1*
X1471244Y538411D1*
X1537016D1*
X1538080Y542420D1*
X1538206Y618701D1*
X1539049Y625820D1*
X1541530Y632545D1*
X1545512Y638505D1*
X1644365Y737491D1*
X1663196Y756189D1*
X1669156Y760171D1*
X1675881Y762652D1*
X1683000Y763495D1*
X1683327Y763482D1*
X1733440Y763495D1*
X1738340Y768353D1*
X1744242Y772641D1*
X1750743Y775953D1*
X1757681Y778208D1*
X1764886Y779349D1*
X1772183D1*
X1779387Y778208D1*
X1786326Y775953D1*
X1793336Y772301D1*
X1799857Y776326D1*
X1806597Y779117D1*
X1813692Y780820D1*
X1820965Y781393D1*
X1828238Y780820D1*
X1835332Y779117D1*
X1842072Y776326D1*
X1848292Y772513D1*
X1853840Y767776D1*
X1858578Y762227D1*
X1862390Y756008D1*
X1865181Y749268D1*
X1866885Y742173D1*
X1867457Y734900D1*
X1866885Y727628D1*
X1865181Y720533D1*
X1862390Y713793D1*
X1858578Y707574D1*
X1853840Y702025D1*
X1848292Y697288D1*
X1842072Y693475D1*
X1835332Y690684D1*
X1828238Y688981D1*
X1820965Y688408D1*
X1817702Y688537D1*
X1761701Y632511D1*
X1761696Y530049D1*
X1770139Y524046D1*
X1771234Y523034D1*
X1771244Y538411D1*
X1891158D1*
Y443734D1*
X1936718Y443701D1*
X1933222Y450973D1*
X1929391Y462760D1*
X1927453Y475003D1*
Y487399D1*
X1929391Y499642D1*
X1933222Y511429D1*
X1938849Y522474D1*
X1946135Y532503D1*
X1954899Y541267D1*
X1964928Y548553D1*
X1975973Y554180D1*
X1987760Y558011D1*
X2000003Y559949D1*
X2012399D1*
X2024642Y558011D1*
X2036429Y554180D1*
X2047474Y548553D1*
X2057503Y541267D1*
X2066267Y532503D1*
X2073553Y522474D1*
X2079180Y511429D1*
X2083011Y499642D1*
X2084949Y487399D1*
Y475003D1*
X2083011Y462760D1*
X2079180Y450973D1*
X2075649Y443670D1*
X2219726Y443701D1*
X2217331Y451462D1*
X2215860Y460753D1*
Y470163D1*
X2217331Y479454D1*
X2220239Y488403D1*
X2224509Y496785D1*
X2230040Y504397D1*
X2236693Y511050D1*
X2244305Y516580D1*
X2252687Y520851D1*
X2261635Y523759D1*
X2270927Y525230D1*
X2280336D1*
X2289628Y523759D1*
X2298576Y520851D1*
X2306958Y516580D1*
X2314570Y511050D1*
X2321223Y504397D1*
X2325599Y498513D1*
X2330040Y504397D1*
X2336693Y511050D1*
X2344305Y516580D1*
X2352687Y520851D1*
X2361635Y523759D1*
X2370927Y525230D1*
X2380336D1*
X2389628Y523759D1*
X2398576Y520851D1*
X2406958Y516580D1*
X2414570Y511050D1*
X2421223Y504397D1*
X2425599Y498513D1*
X2430040Y504397D1*
X2436693Y511050D1*
X2444305Y516580D1*
X2452687Y520851D1*
X2461635Y523759D1*
X2470927Y525230D1*
X2480336D1*
X2489628Y523759D1*
X2498576Y520851D1*
X2506958Y516580D1*
X2514570Y511050D1*
X2521223Y504397D1*
X2526753Y496785D1*
X2531024Y488403D1*
X2533932Y479454D1*
X2535403Y470163D1*
Y460753D1*
X2533932Y451462D1*
X2531463Y443704D1*
X2643701Y443701D1*
Y2956201D1*
X2081152D1*
X2084221Y2943558D1*
X2085193Y2931201D1*
X2084221Y2918844D1*
X2081327Y2906792D1*
X2076583Y2895339D1*
X2070107Y2884771D1*
X2062057Y2875345D1*
X2052631Y2867295D1*
X2042063Y2860819D1*
X2030610Y2856075D1*
X2018558Y2853181D1*
X2006201Y2852209D1*
X1993844Y2853181D1*
X1981792Y2856075D1*
X1970339Y2860819D1*
X1959771Y2867295D1*
X1950345Y2875345D1*
X1942295Y2884771D1*
X1935819Y2895339D1*
X1931075Y2906792D1*
X1928181Y2918844D1*
X1927209Y2931201D1*
X1928181Y2943558D1*
X1931075Y2955610D1*
X1931201Y2956201D1*
X1578418D1*
X1593520Y2940994D1*
X1597502Y2935033D1*
X1599983Y2928309D1*
X1600826Y2921189D1*
X1600813Y2920862D1*
X1600826Y2828562D1*
X1607915Y2832835D1*
X1616036Y2836200D1*
X1624583Y2838251D1*
X1633347Y2838941D1*
X1642110Y2838251D1*
X1650658Y2836200D1*
X1658778Y2832835D1*
X1666274Y2828243D1*
X1672958Y2822533D1*
X1677316Y2817563D1*
X1677327Y2838941D1*
X1698666D1*
X1693735Y2843310D1*
X1688025Y2849994D1*
X1683433Y2857490D1*
X1680068Y2865610D1*
X1678017Y2874158D1*
X1677327Y2882921D1*
X1678017Y2891685D1*
X1680068Y2900232D1*
X1683433Y2908353D1*
X1688025Y2915849D1*
X1693735Y2922533D1*
X1700419Y2928243D1*
X1707915Y2932835D1*
X1716036Y2936200D1*
X1724583Y2938251D1*
X1733347Y2938941D1*
X1742110Y2938251D1*
X1750658Y2936200D1*
X1758778Y2932835D1*
X1766274Y2928243D1*
X1772958Y2922533D1*
X1778668Y2915849D1*
X1783260Y2908353D1*
X1785500Y2903280D1*
X1819159Y2903205D1*
X1826191Y2901806D1*
X1832701Y2898805D1*
X1838330Y2894366D1*
X1838553Y2894126D1*
X1945051Y2787645D1*
X2216841Y2787534D1*
X2223873Y2786137D1*
X2230382Y2783135D1*
X2236012Y2778697D1*
X2236234Y2778457D1*
X2297070Y2717507D1*
X2301051Y2711546D1*
X2303533Y2704822D1*
X2304376Y2697702D1*
X2304362Y2697376D1*
X2304376Y2617869D1*
X2308385Y2613748D1*
X2312672Y2607847D1*
X2315984Y2601345D1*
X2318239Y2594407D1*
X2319381Y2587202D1*
Y2579906D1*
X2318239Y2572701D1*
X2315984Y2565763D1*
X2312672Y2559261D1*
X2308385Y2553360D1*
X2303226Y2548201D1*
X2297324Y2543914D1*
X2290823Y2540601D1*
X2283885Y2538347D1*
X2276680Y2537205D1*
X2269383D1*
X2262179Y2538347D1*
X2255240Y2540601D1*
X2248739Y2543914D1*
X2242837Y2548201D1*
X2237679Y2553360D1*
X2233391Y2559261D1*
X2230079Y2565763D1*
X2227824Y2572701D1*
X2226683Y2579906D1*
Y2587202D1*
X2227824Y2594407D1*
X2230079Y2601345D1*
X2233391Y2607847D1*
X2237679Y2613748D1*
X2243408Y2619357D1*
X2243386Y2647958D1*
X2237441Y2641116D1*
X2229582Y2634404D1*
X2220769Y2629004D1*
X2211222Y2625049D1*
X2201172Y2622637D1*
X2190869Y2621826D1*
X2180566Y2622637D1*
X2170516Y2625049D1*
X2160969Y2629004D1*
X2152156Y2634404D1*
X2144297Y2641116D1*
X2140883Y2644810D1*
X2133643Y2637607D1*
X2125282Y2631532D1*
X2116074Y2626839D1*
X2106244Y2623646D1*
X2096037Y2622029D1*
X2085701D1*
X2075494Y2623646D1*
X2065664Y2626839D1*
X2056456Y2631532D1*
X2048095Y2637607D1*
X2040788Y2644914D1*
X2034713Y2653274D1*
X2030020Y2662483D1*
X2026827Y2672313D1*
X2025210Y2682520D1*
Y2692856D1*
X2026827Y2703063D1*
X2030020Y2712893D1*
X2034713Y2722101D1*
X2037773Y2726639D1*
X1930044Y2726734D1*
X1923013Y2728131D1*
X1916503Y2731133D1*
X1910873Y2735571D1*
X1910651Y2735811D1*
X1804151Y2842293D1*
X1771894Y2842309D1*
X1767988Y2838952D1*
X1789366Y2838941D1*
Y2726902D1*
X1677327D1*
Y2748239D1*
X1672958Y2743310D1*
X1666274Y2737600D1*
X1658778Y2733008D1*
X1650658Y2729643D1*
X1642110Y2727592D1*
X1633347Y2726902D1*
X1624583Y2727592D1*
X1616036Y2729643D1*
X1607915Y2733008D1*
X1600805Y2737343D1*
X1600826Y2695261D1*
X1619116Y2676878D1*
X1623097Y2670918D1*
X1625579Y2664193D1*
X1626421Y2657074D1*
X1626408Y2656747D1*
X1626421Y2329095D1*
X1786159Y2169236D1*
X1790141Y2163276D1*
X1792622Y2156551D1*
X1793465Y2149432D1*
X1793452Y2149105D1*
X1793465Y2144793D1*
X1798323Y2139872D1*
X1802610Y2133970D1*
X1805923Y2127469D1*
X1808177Y2120530D1*
X1809319Y2113326D1*
Y2106029D1*
X1808177Y2098824D1*
X1805923Y2091886D1*
X1802610Y2085385D1*
X1798323Y2079483D1*
X1793164Y2074324D1*
X1787263Y2070037D1*
X1780761Y2066725D1*
X1773823Y2064470D1*
X1766618Y2063328D1*
X1759322D1*
X1752117Y2064470D1*
X1745179Y2066725D1*
X1738677Y2070037D1*
X1732776Y2074324D1*
X1727617Y2079483D1*
X1723330Y2085385D1*
X1720017Y2091886D1*
X1717763Y2098824D1*
X1716621Y2106029D1*
Y2113326D1*
X1717763Y2120530D1*
X1720017Y2127469D1*
X1723330Y2133970D1*
X1728479Y2140803D1*
X1641246Y2228030D1*
X1641286Y2124795D1*
X1646145Y2119848D1*
X1650432Y2113946D1*
X1653744Y2107445D1*
X1655999Y2100507D1*
X1657141Y2093302D1*
Y2086005D1*
X1655999Y2078801D1*
X1653744Y2071862D1*
X1650432Y2065361D1*
X1646145Y2059460D1*
X1640986Y2054301D1*
X1635084Y2050013D1*
X1628583Y2046701D1*
X1621645Y2044446D1*
X1614440Y2043305D1*
X1607143D1*
X1599939Y2044446D1*
X1593000Y2046701D1*
X1586499Y2050013D1*
X1581862Y2053303D1*
X1582759Y2047166D1*
Y2039870D1*
X1581617Y2032666D1*
X1579364Y2025727D1*
X1576051Y2019226D1*
X1571763Y2013324D1*
X1566604Y2008166D1*
X1560702Y2003877D1*
X1552851Y2000067D1*
X1557747Y1995809D1*
X1562484Y1990260D1*
X1566297Y1984040D1*
X1568303Y1979427D1*
X1576519Y1978214D1*
X1583457Y1975960D1*
X1589958Y1972647D1*
X1595860Y1968358D1*
X1601019Y1963201D1*
X1605307Y1957298D1*
X1608618Y1950798D1*
X1610873Y1943860D1*
X1612015Y1936654D1*
Y1929358D1*
X1610873Y1922152D1*
X1608618Y1915214D1*
X1605307Y1908714D1*
X1602457Y1904637D1*
X1605442Y1896051D1*
X1606293Y1891295D1*
X1614744Y1887988D1*
X1620965Y1884176D1*
X1626512Y1879439D1*
X1631251Y1873891D1*
X1635062Y1867671D1*
X1637855Y1860931D1*
X1639557Y1853836D1*
X1640129Y1846563D1*
X1639557Y1839290D1*
X1637855Y1832197D1*
X1635062Y1825457D1*
X1631251Y1819236D1*
X1626512Y1813689D1*
X1620965Y1808950D1*
X1614744Y1805139D1*
X1608004Y1802347D1*
X1600911Y1800645D1*
X1593637Y1800071D1*
X1586364Y1800645D1*
X1579271Y1802347D1*
X1572530Y1805139D1*
X1566310Y1808950D1*
X1560763Y1813689D1*
X1558372Y1816276D1*
X1551986Y1817701D1*
X1550685Y1818173D1*
X1527225Y1818160D1*
X1374872Y1665899D1*
X1368911Y1661918D1*
X1362187Y1659436D1*
X1355067Y1658593D1*
X1354740Y1658607D1*
X1245252Y1658593D1*
X1244373Y1645302D1*
Y1620546D1*
X1252784Y1620015D1*
X1259878Y1618311D1*
X1266618Y1615520D1*
X1272837Y1611708D1*
X1278386Y1606970D1*
X1283124Y1601421D1*
X1286936Y1595202D1*
X1289727Y1588462D1*
X1291431Y1581368D1*
X1292003Y1574095D1*
X1291431Y1566822D1*
X1289727Y1559727D1*
X1286936Y1552987D1*
X1283124Y1546768D1*
X1278386Y1541219D1*
X1273454Y1536967D1*
X1273465Y1462227D1*
X1330121Y1462171D1*
X1337152Y1460773D1*
X1343662Y1457772D1*
X1349292Y1453334D1*
X1349513Y1453093D1*
X1383593Y1418899D1*
X1387575Y1412939D1*
X1390057Y1406214D1*
X1390899Y1399095D1*
X1390886Y1398768D1*
X1390805Y1297900D1*
X1389407Y1290869D1*
X1386406Y1284360D1*
X1381967Y1278730D1*
X1381727Y1278508D1*
X1328141Y1224903D1*
X1328087Y1135404D1*
X1326689Y1128373D1*
X1323688Y1121864D1*
X1319250Y1116234D1*
X1319009Y1116012D1*
X1307062Y1104046D1*
X1310834Y1099537D1*
X1314646Y1093318D1*
X1317437Y1086578D1*
X1319141Y1079483D1*
X1319713Y1072210D1*
X1319141Y1064937D1*
X1317437Y1057843D1*
X1314646Y1051103D1*
X1310834Y1044883D1*
X1306096Y1039335D1*
X1300547Y1034597D1*
X1294328Y1030785D1*
X1287588Y1027994D1*
X1280494Y1026290D1*
X1273221Y1025718D1*
X1265948Y1026290D1*
X1262107Y1027076D1*
X1258341Y1019408D1*
X1254054Y1013507D1*
X1248895Y1008348D1*
X1242994Y1004061D1*
X1236492Y1000748D1*
X1229554Y998494D1*
X1222349Y997352D1*
X1215053D1*
X1207340Y998637D1*
X1204130Y990545D1*
X1200318Y984326D1*
X1195580Y978777D1*
X1190032Y974040D1*
X1183813Y970227D1*
X1177072Y967436D1*
X1169978Y965732D1*
X1162705Y965160D1*
X1155432Y965732D1*
X1148337Y967436D1*
X1141597Y970227D1*
X1135378Y974040D1*
X1129830Y978777D1*
X1125092Y984326D1*
X1121280Y990545D1*
X1118488Y997285D1*
X1116785Y1004379D1*
X1116213Y1011652D1*
X1116785Y1018925D1*
X1118488Y1026020D1*
X1121280Y1032760D1*
X1125092Y1038979D1*
X1129830Y1044528D1*
X1135378Y1049265D1*
X1140217Y1052303D1*
X1140286Y1077227D1*
X1141684Y1084259D1*
X1142681Y1086870D1*
X1040264Y984638D1*
X1034634Y980200D1*
X1028125Y977198D1*
X1021093Y975801D1*
X881201Y975706D1*
X808008D1*
X802890Y967488D1*
X796179Y959629D1*
X788319Y952918D1*
X779507Y947517D1*
X769960Y943562D1*
X759910Y941150D1*
X749607Y940339D1*
X739303Y941150D1*
X729253Y943562D1*
X719706Y947517D1*
X710894Y952918D1*
X703034Y959629D1*
X696323Y967488D1*
X690923Y976301D1*
X686967Y985848D1*
X684555Y995898D1*
X683744Y1006201D1*
X684555Y1016504D1*
X686967Y1026554D1*
X690923Y1036101D1*
X696323Y1044914D1*
X703034Y1052773D1*
X710894Y1059484D1*
X719706Y1064885D1*
X729253Y1068840D1*
X739303Y1071252D1*
X749607Y1072063D1*
X759910Y1071252D1*
X769960Y1068840D1*
X779507Y1064885D1*
X788319Y1059484D1*
X796179Y1052773D1*
X802890Y1044914D1*
X807965Y1036684D1*
X1006101Y1036696D1*
X1082592Y1113218D1*
X703809Y1113301D1*
X696777Y1114698D1*
X690268Y1117700D1*
X684638Y1122138D1*
X684416Y1122378D1*
X667202Y1139574D1*
X664445Y1132960D1*
X660633Y1126739D1*
X655895Y1121192D1*
X650348Y1116454D1*
X644128Y1112642D1*
X637387Y1109851D1*
X630293Y1108147D1*
X623020Y1107575D1*
X615747Y1108147D1*
X608654Y1109851D1*
X601914Y1112642D1*
X595693Y1116454D1*
X590146Y1121192D1*
X585407Y1126739D1*
X581596Y1132960D1*
X578803Y1139700D1*
X577042Y1147290D1*
X570428Y1147849D1*
X563335Y1149553D1*
X556595Y1152345D1*
X550374Y1156156D1*
X544826Y1160895D1*
X540088Y1166442D1*
X537858Y1169839D1*
X532414Y1165418D1*
X523601Y1160017D1*
X514054Y1156062D1*
X504004Y1153650D1*
X493701Y1152839D1*
X483398Y1153650D1*
X473348Y1156062D1*
X463801Y1160017D1*
X454988Y1165418D1*
X447129Y1172129D1*
X443688Y1175853D1*
X443701Y1049024D1*
X450927Y1056282D1*
X459288Y1062357D1*
X468496Y1067050D1*
X478326Y1070243D1*
X488533Y1071860D1*
X498869D1*
X509076Y1070243D1*
X518906Y1067050D1*
X528114Y1062357D1*
X536475Y1056282D1*
X543782Y1048975D1*
X549857Y1040614D1*
X554550Y1031406D1*
X557743Y1021576D1*
X559360Y1011369D1*
Y1001033D1*
X557743Y990826D1*
X554550Y980996D1*
X549857Y971788D1*
X543782Y963427D1*
X536475Y956120D1*
X528114Y950045D1*
X518906Y945352D1*
X509076Y942159D1*
X498869Y940542D1*
X488533D1*
X478326Y942159D1*
X468496Y945352D1*
X459288Y950045D1*
X450927Y956120D1*
X443688Y963353D1*
X443701Y887221D1*
X452465Y886530D1*
X461012Y884479D1*
X469133Y881114D1*
X476629Y876523D1*
X481180Y872784D1*
X489431Y878966D1*
X497263Y882957D1*
X505624Y885673D1*
X514306Y887047D1*
X523096D1*
X531778Y885673D1*
X540139Y882957D1*
X547971Y878966D1*
X555083Y873798D1*
X561298Y867583D1*
X566466Y860471D1*
X570457Y852639D1*
X573173Y844278D1*
X574547Y835596D1*
Y826806D1*
X573173Y818124D1*
X570457Y809763D1*
X566466Y801931D1*
X561298Y794819D1*
X555083Y788604D1*
X547971Y783436D1*
X540139Y779445D1*
X531778Y776729D1*
X523096Y775355D1*
X514306D1*
X505624Y776729D1*
X497263Y779445D1*
X489431Y783436D1*
X482319Y788604D1*
X481222Y789618D1*
X472971Y783436D1*
X465139Y779445D1*
X456778Y776729D1*
X448096Y775355D1*
X443684Y775183D1*
X443701Y737221D1*
X452465Y736530D1*
X461012Y734479D1*
X469133Y731114D1*
X476629Y726523D1*
X481180Y722784D1*
X489431Y728966D1*
X497263Y732957D1*
X505624Y735673D1*
X514306Y737047D1*
X523096D1*
X531778Y735673D1*
X540139Y732957D1*
X547971Y728966D1*
X555083Y723798D1*
X561298Y717583D1*
X566466Y710471D1*
X570457Y702639D1*
X573173Y694278D1*
X574547Y685596D1*
Y676806D1*
X573173Y668124D1*
X570457Y659763D1*
X566466Y651931D1*
X561298Y644819D1*
X560284Y643722D1*
X566466Y635471D1*
X570457Y627639D1*
X573173Y619278D1*
X574547Y610596D1*
Y601806D1*
X573173Y593124D1*
X570457Y584763D1*
X566466Y576931D1*
X561298Y569819D1*
X560284Y568722D1*
X566466Y560471D1*
X570457Y552639D1*
X573173Y544278D1*
X574547Y535596D1*
Y526806D1*
X573173Y518124D1*
X570457Y509763D1*
X566466Y501931D1*
X561298Y494819D1*
X560284Y493722D1*
X566466Y485471D1*
X570457Y477639D1*
X573173Y469278D1*
X574547Y460596D1*
Y451806D1*
X573284Y443680D1*
X668261Y443701D1*
X665498Y452390D1*
X664026Y461681D1*
Y471091D1*
X665498Y480382D1*
X668406Y489331D1*
X672676Y497713D1*
X678206Y505324D1*
X684860Y511978D1*
X692471Y517508D1*
X700853Y521778D1*
X709802Y524687D1*
X719093Y526158D1*
X728503D1*
X737794Y524687D1*
X746743Y521778D1*
X755125Y517508D1*
X762736Y511978D1*
X769390Y505324D1*
X773765Y499441D1*
X778206Y505324D1*
X784860Y511978D1*
X792471Y517508D1*
X800853Y521778D1*
X809802Y524687D1*
X819093Y526158D1*
X828503D1*
X832575Y525676D1*
X934024Y627150D1*
X923406Y625360D1*
X913996D1*
X904705Y626831D1*
X895756Y629739D1*
X887374Y634009D1*
X879763Y639540D1*
X873109Y646193D1*
X868734Y652076D1*
X864293Y646193D1*
X857639Y639540D1*
X850028Y634009D1*
X841646Y629739D1*
X832697Y626831D1*
X823406Y625360D1*
X813996D1*
X804705Y626831D1*
X795756Y629739D1*
X787374Y634009D1*
X779763Y639540D1*
X773109Y646193D1*
X768734Y652076D1*
X764293Y646193D1*
X757639Y639540D1*
X750028Y634009D1*
X741646Y629739D1*
X732697Y626831D1*
X723406Y625360D1*
X713996D1*
X704705Y626831D1*
X695756Y629739D1*
X687374Y634009D1*
X679763Y639540D1*
X673109Y646193D1*
X667579Y653805D1*
X663309Y662187D1*
X660400Y671135D1*
X658929Y680427D1*
Y689836D1*
X660400Y699128D1*
X663309Y708076D1*
X667579Y716458D1*
X673109Y724070D1*
X679763Y730723D1*
X687374Y736253D1*
X695756Y740524D1*
X704705Y743432D1*
X713996Y744903D1*
X723406D1*
X732697Y743432D1*
X741646Y740524D1*
X750028Y736253D1*
X757639Y730723D1*
X764293Y724070D1*
X768668Y718187D1*
X773109Y724070D1*
X779763Y730723D1*
X787374Y736253D1*
X795756Y740524D1*
X804705Y743432D1*
X813996Y744903D1*
X823406D1*
X832697Y743432D1*
X841646Y740524D1*
X850028Y736253D1*
X857639Y730723D1*
X864293Y724070D1*
X868668Y718187D1*
X873109Y724070D1*
X879763Y730723D1*
X887374Y736253D1*
X895756Y740524D1*
X904705Y743432D1*
X913996Y744903D1*
X923406D1*
X932697Y743432D1*
X941646Y740524D1*
X950028Y736253D1*
X957639Y730723D1*
X964293Y724070D1*
X969823Y716458D1*
X974093Y708076D1*
X977002Y699128D1*
X978473Y689836D1*
Y680427D1*
X977002Y671135D1*
X976597Y669701D1*
X1148897Y841890D1*
X1154857Y845872D1*
X1161582Y848353D1*
X1168701Y849196D1*
X1169028Y849183D1*
X1255469Y849196D1*
X1252708Y857407D1*
X1251566Y864612D1*
Y871908D1*
X1252708Y879113D1*
X1254962Y886051D1*
X1258274Y892553D1*
X1262562Y898454D1*
X1267721Y903613D1*
X1273622Y907900D1*
X1280124Y911213D1*
X1287062Y913467D1*
X1294267Y914609D1*
X1301563D1*
X1308768Y913467D1*
X1315706Y911213D1*
X1322208Y907900D1*
X1328109Y903613D1*
X1333718Y897883D1*
X1391592Y897900D1*
X1481097Y987474D1*
X1476626Y993608D1*
X1473314Y1000109D1*
X1471059Y1007047D1*
X1469918Y1014252D1*
Y1021549D1*
X1471059Y1028753D1*
X1473314Y1035692D1*
X1476626Y1042193D1*
X1480914Y1048095D1*
X1486072Y1053253D1*
X1491974Y1057541D1*
X1498475Y1060853D1*
X1505414Y1063108D1*
X1512618Y1064250D1*
X1519915D1*
X1527120Y1063108D1*
X1534058Y1060853D1*
X1540559Y1057541D1*
X1546461Y1053253D1*
X1551620Y1048095D1*
X1555907Y1042193D1*
X1559219Y1035692D1*
X1561474Y1028753D1*
X1562616Y1021549D1*
Y1014252D1*
X1562265Y1010313D1*
X1562592Y1010299D1*
X1574912Y1010313D1*
X1785961Y1221420D1*
X1779616Y1223550D1*
X1773114Y1226862D1*
X1769643Y1229234D1*
X1660826Y1120512D1*
X1654865Y1116530D1*
X1648141Y1114049D1*
X1641021Y1113206D1*
X1640694Y1113219D1*
X1453809Y1113301D1*
X1446777Y1114698D1*
X1440268Y1117700D1*
X1434638Y1122138D1*
X1434416Y1122378D1*
X1400260Y1156649D1*
X1396278Y1162609D1*
X1393797Y1169334D1*
X1392954Y1176453D1*
X1392967Y1176780D1*
X1393049Y1225841D1*
X1394446Y1232873D1*
X1397448Y1239382D1*
X1401886Y1245012D1*
X1402126Y1245234D1*
X1410994Y1254554D1*
X1413248Y1261492D1*
X1416561Y1267994D1*
X1420848Y1273895D1*
X1426007Y1279054D1*
X1431908Y1283341D1*
X1438410Y1286654D1*
X1445348Y1288908D1*
X1452553Y1290050D1*
X1459849D1*
X1467054Y1288908D1*
X1473992Y1286654D1*
X1480494Y1283341D1*
X1486395Y1279054D1*
X1491554Y1273895D1*
X1495841Y1267994D1*
X1499154Y1261492D1*
X1501408Y1254554D1*
X1502334Y1249176D1*
X1631054Y1249196D1*
X1714635Y1332761D1*
X1714730Y1355671D1*
X1716128Y1362702D1*
X1719129Y1369211D1*
X1723567Y1374841D1*
X1723807Y1375063D1*
X1749841Y1401117D1*
X1749839Y1407984D1*
X1750981Y1415189D1*
X1753235Y1422128D1*
X1756547Y1428629D1*
X1760835Y1434530D1*
X1765994Y1439689D1*
X1771895Y1443977D1*
X1778397Y1447289D1*
X1785335Y1449544D1*
X1792540Y1450685D1*
X1799836D1*
X1804957Y1449958D1*
X1804941Y1519028D1*
X1775705Y1548408D1*
X1771722Y1554369D1*
X1769242Y1561095D1*
X1768399Y1568214D1*
X1768411Y1568541D1*
X1768492Y1633723D1*
X1769891Y1640753D1*
X1772893Y1647264D1*
X1777331Y1652894D1*
X1777571Y1653116D1*
X1819142Y1694705D1*
X1691152Y1694672D1*
X1691158Y1608744D1*
X1675777D1*
X1679708Y1603942D1*
X1684622Y1595920D1*
X1688223Y1587229D1*
X1690420Y1578080D1*
X1691158Y1568701D1*
X1690420Y1559322D1*
X1688223Y1550173D1*
X1684622Y1541482D1*
X1679708Y1533460D1*
X1673597Y1526305D1*
X1666442Y1520194D1*
X1664256Y1518734D1*
X1670139Y1514293D1*
X1676793Y1507639D1*
X1682323Y1500028D1*
X1686593Y1491646D1*
X1689502Y1482697D1*
X1690973Y1473406D1*
Y1463996D1*
X1689502Y1454705D1*
X1686593Y1445756D1*
X1682323Y1437374D1*
X1676793Y1429763D1*
X1670139Y1423109D1*
X1664256Y1418734D1*
X1670139Y1414293D1*
X1676793Y1407639D1*
X1682323Y1400028D1*
X1686593Y1391646D1*
X1689502Y1382697D1*
X1690973Y1373406D1*
Y1363996D1*
X1689502Y1354705D1*
X1686593Y1345756D1*
X1682323Y1337374D1*
X1676793Y1329763D1*
X1670139Y1323109D1*
X1662528Y1317579D1*
X1654146Y1313309D1*
X1645197Y1310400D1*
X1635906Y1308929D1*
X1626496D1*
X1617205Y1310400D1*
X1608256Y1313309D1*
X1599874Y1317579D1*
X1592263Y1323109D1*
X1585609Y1329763D1*
X1580079Y1337374D1*
X1578651Y1339925D1*
X1578658Y1308744D1*
X1458744D1*
Y1428658D1*
X1474125D1*
X1470194Y1433460D1*
X1465280Y1441482D1*
X1461679Y1450173D1*
X1459482Y1459322D1*
X1458744Y1468701D1*
X1459482Y1478080D1*
X1461679Y1487229D1*
X1465280Y1495920D1*
X1470194Y1503942D1*
X1476305Y1511097D1*
X1483460Y1517208D1*
X1485646Y1518668D1*
X1479763Y1523109D1*
X1473109Y1529763D1*
X1467579Y1537374D1*
X1463309Y1545756D1*
X1460400Y1554705D1*
X1458929Y1563996D1*
Y1573406D1*
X1460400Y1582697D1*
X1463309Y1591646D1*
X1467579Y1600028D1*
X1473109Y1607639D1*
X1479763Y1614293D1*
X1485646Y1618668D1*
X1479763Y1623109D1*
X1473109Y1629763D1*
X1467579Y1637374D1*
X1463309Y1645756D1*
X1460400Y1654705D1*
X1458929Y1663996D1*
Y1673406D1*
X1460400Y1682697D1*
X1463309Y1691646D1*
X1467579Y1700028D1*
X1473109Y1707639D1*
X1479763Y1714293D1*
X1487374Y1719823D1*
X1495756Y1724093D1*
X1504705Y1727002D1*
X1513996Y1728473D1*
X1523406D1*
X1532282Y1727084D1*
X1530772Y1733576D1*
X1530200Y1740849D1*
X1530772Y1748122D1*
X1532475Y1755217D1*
X1535267Y1761957D1*
X1539079Y1768177D1*
X1543816Y1773725D1*
X1549364Y1778462D1*
X1555584Y1782274D1*
X1562324Y1785066D1*
X1569419Y1786769D1*
X1576692Y1787341D1*
X1589192Y1787026D1*
X1811311D1*
X1933603Y1909096D1*
X1939465Y1913355D1*
X1945920Y1916645D1*
X1952813Y1918883D1*
X1959969Y1920017D1*
X2019453Y1920159D1*
X2026677Y1919591D1*
X2033723Y1917899D1*
X2040418Y1915126D1*
X2046596Y1911340D1*
X2052105Y1906634D1*
X2083827Y1874711D1*
X2088087Y1868849D1*
X2091376Y1862393D1*
X2093616Y1855502D1*
X2094748Y1848344D1*
X2094891Y1811028D1*
X2094323Y1803803D1*
X2092631Y1796757D1*
X2089858Y1790063D1*
X2086072Y1783885D1*
X2081366Y1778376D1*
X1963526Y1660536D1*
X1963533Y1647785D1*
X2114045Y1497246D1*
X2122813Y1501445D1*
X2156584Y1535016D1*
X2162446Y1539276D1*
X2168903Y1542566D1*
X2175794Y1544805D1*
X2182952Y1545939D1*
X2190197D1*
X2197355Y1544805D1*
X2204246Y1542566D1*
X2210702Y1539276D1*
X2216565Y1535016D1*
X2221688Y1529893D1*
X2225946Y1524030D1*
X2229236Y1517574D1*
X2231475Y1510683D1*
X2232609Y1503526D1*
X2233067Y1487534D1*
X2232494Y1480260D1*
X2230792Y1473167D1*
X2227999Y1466427D1*
X2224188Y1460206D1*
X2219449Y1454659D1*
X2213391Y1449580D1*
X2220769Y1446372D1*
X2229582Y1440971D1*
X2237441Y1434260D1*
X2244152Y1426400D1*
X2249553Y1417588D1*
X2253508Y1408041D1*
X2255920Y1397991D1*
X2256731Y1387688D1*
X2256528Y1382520D1*
X1252357Y2711168D2*
X1258974Y2714410D1*
X1268803Y2717603D1*
X1279011Y2719219D1*
X1289347D1*
X1299554Y2717603D1*
X1309383Y2714410D1*
X1318592Y2709717D1*
X1326953Y2703642D1*
X1330847Y2700028D1*
X1330840Y2755939D1*
X1323110Y2761483D1*
X1316895Y2767698D1*
X1311727Y2774810D1*
X1307736Y2782642D1*
X1305020Y2791003D1*
X1303646Y2799685D1*
Y2808475D1*
X1305020Y2817158D1*
X1307736Y2825519D1*
X1311727Y2833351D1*
X1315906Y2839208D1*
X1310023Y2835055D1*
X1302191Y2831065D1*
X1293830Y2828348D1*
X1285147Y2826974D1*
X1276357D1*
X1267675Y2828348D1*
X1259314Y2831065D1*
X1251482Y2835055D1*
X1244370Y2840223D1*
X1238889Y2845643D1*
X1238894Y2724692D1*
X1252373Y2711183D1*
X1187105Y2587814D2*
X1179011Y2587902D1*
X1168803Y2589519D1*
X1158974Y2592711D1*
X1149765Y2597404D1*
X1141404Y2603479D1*
X1134097Y2610786D1*
X1128023Y2619147D1*
X1123330Y2628356D1*
X1120137Y2638185D1*
X1118520Y2648393D1*
Y2658729D1*
X1120137Y2668936D1*
X1123330Y2678765D1*
X1128023Y2687974D1*
X1134097Y2696335D1*
X1141404Y2703642D1*
X1149765Y2709717D1*
X1158974Y2714410D1*
X1168803Y2717603D1*
X1177908Y2719089D1*
X1177999Y2905257D1*
X1179397Y2912289D1*
X1182398Y2918798D1*
X1186836Y2924428D1*
X1187076Y2924650D1*
X1218635Y2956227D1*
X1143164Y2956201D1*
X1146221Y2943558D1*
X1147193Y2931201D1*
X1146221Y2918844D1*
X1143327Y2906792D1*
X1138583Y2895339D1*
X1132107Y2884771D1*
X1124057Y2875345D1*
X1114631Y2867295D1*
X1104063Y2860819D1*
X1092610Y2856075D1*
X1080558Y2853181D1*
X1068201Y2852209D1*
X1055844Y2853181D1*
X1043792Y2856075D1*
X1032339Y2860819D1*
X1021771Y2867295D1*
X1012345Y2875345D1*
X1004295Y2884771D1*
X997819Y2895339D1*
X993075Y2906792D1*
X990181Y2918844D1*
X989209Y2931201D1*
X990181Y2943558D1*
X993075Y2955610D1*
X993302Y2956225D1*
X443701Y2956201D1*
Y1674024D1*
X450927Y1681282D1*
X459288Y1687357D1*
X468496Y1692050D1*
X478326Y1695243D1*
X488533Y1696860D1*
X498869D1*
X509076Y1695243D1*
X518906Y1692050D1*
X528114Y1687357D1*
X536475Y1681282D1*
X543782Y1673975D1*
X549857Y1665614D1*
X554550Y1656406D1*
X557743Y1646576D1*
X559360Y1636369D1*
Y1626033D1*
X557743Y1615826D1*
X554550Y1605996D1*
X549857Y1596788D1*
X543782Y1588427D1*
X536475Y1581120D1*
X528114Y1575045D1*
X518906Y1570352D1*
X509076Y1567159D1*
X498869Y1565542D1*
X488533D1*
X478326Y1567159D1*
X468496Y1570352D1*
X459288Y1575045D1*
X450927Y1581120D1*
X443688Y1588353D1*
X443701Y1474024D1*
X450927Y1481282D1*
X459288Y1487357D1*
X468496Y1492050D1*
X478326Y1495243D1*
X488533Y1496860D1*
X498869D1*
X509076Y1495243D1*
X518906Y1492050D1*
X528114Y1487357D1*
X536475Y1481282D1*
X543782Y1473975D1*
X549857Y1465614D1*
X554550Y1456406D1*
X557743Y1446576D1*
X559360Y1436369D1*
Y1426033D1*
X557743Y1415826D1*
X554550Y1405996D1*
X549857Y1396788D1*
X543782Y1388427D1*
X536475Y1381120D1*
X528114Y1375045D1*
X524184Y1372843D1*
X532941Y1360087D1*
X547271Y1345757D1*
X547840Y1354461D1*
X549544Y1361554D1*
X552335Y1368294D1*
X556147Y1374515D1*
X560885Y1380062D1*
X566432Y1384801D1*
X572652Y1388612D1*
X579393Y1391404D1*
X586487Y1393108D1*
X593760Y1393680D1*
X601033Y1393108D1*
X608126Y1391404D1*
X614866Y1388612D1*
X621087Y1384801D1*
X626634Y1380062D1*
X631373Y1374515D1*
X635184Y1368294D1*
X637977Y1361554D1*
X639679Y1354461D1*
X640252Y1347188D1*
X639679Y1339915D1*
X639303Y1338026D1*
X645200Y1337941D1*
X652406Y1336799D1*
X659344Y1334545D1*
X665844Y1331234D1*
X671746Y1326945D1*
X676904Y1321786D1*
X681193Y1315885D1*
X684505Y1309383D1*
X686760Y1302445D1*
X687900Y1295240D1*
Y1287945D1*
X686760Y1280739D1*
X684505Y1273801D1*
X681193Y1267301D1*
X676904Y1261398D1*
X671746Y1256239D1*
X665844Y1251952D1*
X659344Y1248639D1*
X652406Y1246385D1*
X647508Y1245517D1*
X684549Y1208479D1*
X683744Y1218701D1*
X684555Y1229004D1*
X686967Y1239054D1*
X690923Y1248601D1*
X696323Y1257414D1*
X703034Y1265273D1*
X710894Y1271984D1*
X719706Y1277385D1*
X729253Y1281340D1*
X739303Y1283752D1*
X749607Y1284563D1*
X759910Y1283752D1*
X769960Y1281340D1*
X779507Y1277385D1*
X788319Y1271984D1*
X796179Y1265273D1*
X802890Y1257414D1*
X808290Y1248601D1*
X810277Y1244290D1*
X815486Y1240024D1*
X843818Y1211710D1*
X1040625Y1211696D1*
X1034763Y1217474D1*
X1030475Y1223376D1*
X1027163Y1229877D1*
X1024908Y1236815D1*
X1023767Y1244020D1*
X1023651Y1246970D1*
X1021379Y1249223D1*
X958843Y1249311D1*
X951811Y1250709D1*
X945302Y1253710D1*
X939672Y1258149D1*
X939450Y1258389D1*
X905526Y1292427D1*
X901545Y1298387D1*
X899063Y1305112D1*
X898221Y1312231D1*
X898234Y1312558D1*
X898315Y1385313D1*
X899713Y1392344D1*
X902714Y1398853D1*
X902937Y1399188D1*
X902714Y1398853D1*
X902937Y1399188D1*
X893701Y1400706D1*
X808008D1*
X802890Y1392488D1*
X796179Y1384629D1*
X788319Y1377918D1*
X779507Y1372517D1*
X769960Y1368562D1*
X759910Y1366150D1*
X749607Y1365339D1*
X739303Y1366150D1*
X729253Y1368562D1*
X719706Y1372517D1*
X710894Y1377918D1*
X703034Y1384629D1*
X696323Y1392488D1*
X690923Y1401301D1*
X686967Y1410848D1*
X684555Y1420898D1*
X683744Y1431201D1*
X684555Y1441504D1*
X686967Y1451554D1*
X690923Y1461101D1*
X696323Y1469914D1*
X703034Y1477773D1*
X710894Y1484484D1*
X719706Y1489885D1*
X729253Y1493840D1*
X739303Y1496252D1*
X749607Y1497063D1*
X759910Y1496252D1*
X769960Y1493840D1*
X779507Y1489885D1*
X788319Y1484484D1*
X796179Y1477773D1*
X802890Y1469914D1*
X807965Y1461684D1*
X906101Y1461696D1*
X928523Y1484149D1*
X928481Y1677188D1*
X859225Y1608012D1*
X853264Y1604030D1*
X846540Y1601549D1*
X839420Y1600706D1*
X839093Y1600719D1*
X808024Y1600706D1*
X802890Y1592488D1*
X796179Y1584629D1*
X788319Y1577918D1*
X779507Y1572517D1*
X769960Y1568562D1*
X759910Y1566150D1*
X749607Y1565339D1*
X739303Y1566150D1*
X729253Y1568562D1*
X719706Y1572517D1*
X710894Y1577918D1*
X703034Y1584629D1*
X696323Y1592488D1*
X690923Y1601301D1*
X686967Y1610848D1*
X684555Y1620898D1*
X683744Y1631201D1*
X684555Y1641504D1*
X686967Y1651554D1*
X690923Y1661101D1*
X696323Y1669914D1*
X703034Y1677773D1*
X710894Y1684484D1*
X719706Y1689885D1*
X729253Y1693840D1*
X739303Y1696252D1*
X749607Y1697063D1*
X759910Y1696252D1*
X769960Y1693840D1*
X779507Y1689885D1*
X788319Y1684484D1*
X796179Y1677773D1*
X802890Y1669914D1*
X807965Y1661684D1*
X826803Y1661696D1*
X977729Y1812503D1*
X983689Y1816484D1*
X990414Y1818966D1*
X997533Y1819809D1*
X997860Y1819795D1*
X1295532Y1819809D1*
X1409646Y1933965D1*
X1402641Y1933134D1*
X1323979D1*
X1320188Y1928828D1*
X1314641Y1924089D1*
X1308420Y1920278D1*
X1301680Y1917486D1*
X1294586Y1915784D1*
X1287313Y1915211D1*
X1280040Y1915784D1*
X1272946Y1917486D1*
X1266206Y1920278D1*
X1259986Y1924089D1*
X1254439Y1928828D1*
X1249700Y1934376D1*
X1245889Y1940596D1*
X1243096Y1947336D1*
X1241393Y1954431D1*
X1240820Y1961704D1*
X1241393Y1968977D1*
X1243096Y1976070D1*
X1245889Y1982810D1*
X1249700Y1989030D1*
X1254439Y1994578D1*
X1259986Y1999316D1*
X1266206Y2003128D1*
X1272946Y2005920D1*
X1280040Y2007622D1*
X1287313Y2008196D1*
X1294586Y2007622D1*
X1301680Y2005920D1*
X1308420Y2003128D1*
X1314641Y1999316D1*
X1320624Y1994107D1*
X1389999Y1994124D1*
X1460109Y2064225D1*
X1394995Y2063975D1*
X1395567Y2056702D1*
X1394995Y2049429D1*
X1393292Y2042335D1*
X1390500Y2035595D1*
X1386688Y2029376D1*
X1381950Y2023827D1*
X1376402Y2019089D1*
X1370183Y2015277D1*
X1363442Y2012486D1*
X1356348Y2010782D1*
X1349075Y2010210D1*
X1341802Y2010782D1*
X1334708Y2012486D1*
X1327967Y2015277D1*
X1321748Y2019089D1*
X1316200Y2023827D1*
X1311462Y2029376D1*
X1307650Y2035595D1*
X1304858Y2042335D1*
X1303155Y2049429D1*
X1302583Y2056702D1*
X1303155Y2063975D1*
X1304858Y2071070D1*
X1307650Y2077810D1*
X1311462Y2084029D1*
X1316200Y2089578D1*
X1318117Y2091348D1*
X1309967Y2089293D1*
X1302694Y2088721D1*
X1295421Y2089293D1*
X1288328Y2090996D1*
X1281588Y2093788D1*
X1275368Y2097600D1*
X1269820Y2102337D1*
X1265082Y2107885D1*
X1261271Y2114105D1*
X1258478Y2120845D1*
X1256776Y2127940D1*
X1256202Y2135213D1*
X1256776Y2142486D1*
X1258478Y2149579D1*
X1261271Y2156319D1*
X1265082Y2162540D1*
X1269820Y2168088D1*
X1275368Y2172826D1*
X1281588Y2176638D1*
X1288328Y2179429D1*
X1295421Y2181133D1*
X1302694Y2181705D1*
X1305958Y2181576D1*
X1322046Y2197691D1*
X1322005Y2234676D1*
X1290365Y2266414D1*
X1286383Y2272374D1*
X1283902Y2279099D1*
X1283059Y2286218D1*
X1283072Y2286545D1*
X1283059Y2422887D1*
X1265855Y2440086D1*
X1265780Y2358063D1*
X1264382Y2351032D1*
X1261381Y2344523D1*
X1256942Y2338893D1*
X1256702Y2338671D1*
X1131299Y2213250D1*
X1138324Y2209807D1*
X1143718Y2205834D1*
X1153886Y2201399D1*
X1160105Y2197587D1*
X1165654Y2192849D1*
X1170391Y2187301D1*
X1174204Y2181082D1*
X1176995Y2174341D1*
X1178698Y2167247D1*
X1179271Y2159974D1*
X1178698Y2152701D1*
X1176995Y2145607D1*
X1174204Y2138866D1*
X1170391Y2132647D1*
X1165654Y2127099D1*
X1160105Y2122361D1*
X1153886Y2118549D1*
X1147146Y2115757D1*
X1140051Y2114054D1*
X1132778Y2113482D1*
X1125505Y2114054D1*
X1118411Y2115757D1*
X1111671Y2118549D1*
X1105452Y2122361D1*
X1101045Y2126044D1*
X855865Y1880827D1*
X855894Y1788113D1*
X858575Y1782668D1*
X860830Y1775730D1*
X861971Y1768525D1*
Y1761229D1*
X860830Y1754024D1*
X858575Y1747086D1*
X855263Y1740584D1*
X850975Y1734683D1*
X845816Y1729524D1*
X839915Y1725236D1*
X833414Y1721924D1*
X826475Y1719670D1*
X819271Y1718528D1*
X811974D1*
X804769Y1719670D1*
X797831Y1721924D1*
X791330Y1725236D1*
X785428Y1729524D1*
X780269Y1734683D1*
X775982Y1740584D1*
X772670Y1747086D1*
X770415Y1754024D1*
X769273Y1761229D1*
Y1768525D1*
X770415Y1775730D1*
X772670Y1782668D1*
X775361Y1788062D1*
X775351Y1857309D1*
X750929Y1833012D1*
X744969Y1829030D1*
X738244Y1826549D1*
X731125Y1825706D1*
X730798Y1825719D1*
X706173Y1825706D1*
X706217Y1768685D1*
X531185D1*
Y1943717D1*
X706217D1*
Y1886637D1*
X718504Y1886706D1*
X1204916Y2373118D1*
X1204885Y2570075D1*
X1187128Y2587785D1*
X1551756Y1518668D2*
X1557639Y1514293D1*
X1564293Y1507639D1*
X1569823Y1500028D1*
X1574093Y1491646D1*
X1574928Y1489385D1*
X1577780Y1495920D1*
X1582694Y1503942D1*
X1588805Y1511097D1*
X1595960Y1517208D1*
X1598146Y1518668D1*
X1592263Y1523109D1*
X1585609Y1529763D1*
X1580079Y1537374D1*
X1575809Y1545756D1*
X1574974Y1548017D1*
X1572122Y1541482D1*
X1567208Y1533460D1*
X1561097Y1526305D1*
X1553942Y1520194D1*
X1551756Y1518734D1*
X983570Y461681D2*
X982099Y452390D1*
X979286Y443701D1*
X998633D1*
X995222Y450973D1*
X991391Y462760D1*
X989453Y475003D1*
Y487399D1*
X991391Y499642D1*
X995222Y511429D1*
X1000849Y522474D1*
X1008135Y532503D1*
X1016899Y541267D1*
X1026928Y548553D1*
X1037973Y554180D1*
X1049760Y558011D1*
X1062003Y559949D1*
X1074399D1*
X1086642Y558011D1*
X1098429Y554180D1*
X1109474Y548553D1*
X1119503Y541267D1*
X1128267Y532503D1*
X1135553Y522474D1*
X1141180Y511429D1*
X1145011Y499642D1*
X1146949Y487399D1*
Y475003D1*
X1145011Y462760D1*
X1141180Y450973D1*
X1137649Y443670D1*
X1344824Y443701D1*
X1340280Y451235D1*
X1336679Y459927D1*
X1334482Y469075D1*
X1333744Y478454D1*
X1334482Y487834D1*
X1336679Y496982D1*
X1340280Y505673D1*
X1345194Y513696D1*
X1351305Y520851D1*
X1358460Y526961D1*
X1366482Y531876D1*
X1372361Y534439D1*
X1316772Y590005D1*
X1266755Y590105D1*
X1261124Y590998D1*
X1255701Y592759D1*
X1250621Y595348D1*
X1246008Y598700D1*
X1180183Y664365D1*
X1176481Y668701D1*
X1173502Y673562D1*
X1171319Y678830D1*
X1169988Y684374D1*
X1169541Y690058D1*
X1169265Y736782D1*
X954268Y521785D1*
X955125Y517508D1*
X962736Y511978D1*
X969390Y505324D1*
X974920Y497713D1*
X979191Y489331D1*
X982099Y480382D1*
X983570Y471091D1*
Y461681D1*
X1398860Y2922654D2*
X1405305Y2928142D1*
X1411975Y2932273D1*
X1415044Y2936579D1*
X1434520Y2956188D1*
X1341016Y2956201D1*
X1358353Y2938840D1*
X1368256Y2938150D1*
X1376803Y2936099D1*
X1384924Y2932734D1*
X1392420Y2928142D1*
X1398865Y2922654D1*
X1412231Y2932708D1*
X1416670Y2938337D1*
X1416910Y2938559D1*
X1398865Y2764247D2*
X1391806Y2758349D1*
X1391830Y2699918D1*
X1406673Y2714743D1*
X1406643Y2757793D1*
X1398860Y2764247D1*
X1477605D2*
X1471160Y2758759D1*
X1467631Y2756402D1*
X1467538Y2699688D1*
X1466141Y2692656D1*
X1463139Y2686147D1*
X1458701Y2680517D1*
X1458461Y2680295D1*
X1379462Y2601278D1*
X1475093Y2601129D1*
X1482250Y2599995D1*
X1489142Y2597756D1*
X1495597Y2594466D1*
X1501460Y2590206D1*
X1539478Y2552390D1*
X1565477Y2526391D1*
X1565432Y2644454D1*
X1547142Y2662865D1*
X1543160Y2668826D1*
X1540679Y2675550D1*
X1539836Y2682670D1*
X1539849Y2682996D1*
X1539836Y2752933D1*
X1530050Y2749608D1*
X1521368Y2748234D1*
X1512578D1*
X1503895Y2749608D1*
X1495534Y2752324D1*
X1487702Y2756315D1*
X1480591Y2761483D1*
X1477600Y2764247D1*
X1980994Y2452945D2*
X1979860Y2445789D1*
X1977621Y2438898D1*
X1974331Y2432441D1*
X1970071Y2426579D1*
X1964948Y2421456D1*
X1959086Y2417196D1*
X1952629Y2413906D1*
X1945738Y2411667D1*
X1938582Y2410533D1*
X1931335D1*
X1924179Y2411667D1*
X1917288Y2413906D1*
X1910831Y2417196D1*
X1904969Y2421456D1*
X1899845Y2426579D1*
X1895586Y2432441D1*
X1892295Y2438898D1*
X1890057Y2445789D1*
X1888923Y2452945D1*
Y2460192D1*
X1890057Y2467348D1*
X1892295Y2474239D1*
X1895586Y2480696D1*
X1896856Y2482887D1*
X1893566Y2489344D1*
X1891327Y2496235D1*
X1890193Y2503391D1*
Y2510638D1*
X1891327Y2517794D1*
X1893566Y2524685D1*
X1896856Y2531142D1*
X1901116Y2537004D1*
X1906239Y2542128D1*
X1912101Y2546387D1*
X1918558Y2549677D1*
X1925449Y2551916D1*
X1932605Y2553050D1*
X1939852D1*
X1947008Y2551916D1*
X1953899Y2549677D1*
X1960356Y2546387D1*
X1966218Y2542128D1*
X1971341Y2537004D1*
X1975601Y2531142D1*
X1978891Y2524685D1*
X1981130Y2517794D1*
X1982264Y2510638D1*
Y2503391D1*
X1981130Y2496235D1*
X1978891Y2489344D1*
X1975601Y2482887D1*
X1974331Y2480696D1*
X1977621Y2474239D1*
X1979860Y2467348D1*
X1980994Y2460192D1*
Y2452945D1*
X1682378Y443687D2*
X1677780Y451235D1*
X1674179Y459927D1*
X1671982Y469075D1*
X1671244Y478454D1*
X1671982Y487834D1*
X1674179Y496982D1*
X1677780Y505673D1*
X1682694Y513696D1*
X1688805Y520851D1*
X1695960Y526961D1*
X1700725Y530051D1*
X1700801Y647529D1*
X1702198Y654561D1*
X1705200Y661070D1*
X1709638Y666700D1*
X1709878Y666921D1*
X1739572Y696634D1*
X1733442Y702524D1*
X1695634Y702505D1*
X1599154Y606028D1*
X1599101Y530227D1*
X1597704Y523196D1*
X1597565Y522819D1*
X1597704Y523196D1*
X1597439Y520120D1*
X1597344Y455192D1*
X1595946Y448160D1*
X1594083Y443683D1*
X1682324Y443701D1*
X463218Y1372843D2*
X454988Y1377918D1*
X447129Y1384629D1*
X443688Y1388353D1*
X443701Y1261524D1*
X450927Y1268782D1*
X459288Y1274857D1*
X468496Y1279550D1*
X478326Y1282743D1*
X488533Y1284360D1*
X498869D1*
X509076Y1282743D1*
X518906Y1279550D1*
X528114Y1274857D1*
X536475Y1268782D1*
X543782Y1261475D1*
X549857Y1253114D1*
X554550Y1243906D1*
X557322Y1235574D1*
X563335Y1237986D1*
X567645Y1239135D1*
X470512Y1336397D1*
X466530Y1342357D1*
X464049Y1349082D1*
X463206Y1356201D1*
X463219Y1356528D1*
X463206Y1372852D1*
X705946Y2034374D2*
X703798Y2020810D1*
X699555Y2007750D1*
X693320Y1995513D1*
X685248Y1984403D1*
X675538Y1974693D1*
X664428Y1966621D1*
X652192Y1960386D1*
X639131Y1956143D1*
X625567Y1953995D1*
X611835D1*
X598271Y1956143D1*
X585210Y1960386D1*
X572974Y1966621D1*
X561864Y1974693D1*
X552154Y1984403D1*
X544082Y1995513D1*
X537847Y2007750D1*
X533604Y2020810D1*
X531456Y2034374D1*
Y2048107D1*
X533604Y2061671D1*
X537847Y2074731D1*
X544082Y2086967D1*
X552154Y2098078D1*
X561864Y2107788D1*
X572974Y2115860D1*
X585210Y2122095D1*
X598271Y2126337D1*
X611835Y2128486D1*
X625567D1*
X639131Y2126337D1*
X652192Y2122095D1*
X664428Y2115860D1*
X675538Y2107788D1*
X685248Y2098078D1*
X693320Y2086967D1*
X699555Y2074731D1*
X703798Y2061671D1*
X705946Y2048107D1*
Y2034374D1*
X2065921Y2139134D2*
X2073992Y2136654D1*
X2080494Y2133341D1*
X2085281Y2130095D1*
X2084709Y2137368D1*
X2085281Y2144641D1*
X2086984Y2151735D1*
X2089776Y2158475D1*
X2093588Y2164696D1*
X2098326Y2170243D1*
X2103874Y2174981D1*
X2110093Y2178793D1*
X2116834Y2181584D1*
X2123928Y2183288D1*
X2131201Y2183860D1*
X2138474Y2183288D1*
X2145568Y2181584D1*
X2152309Y2178793D1*
X2158528Y2174981D1*
X2164076Y2170243D1*
X2168814Y2164696D1*
X2172626Y2158475D1*
X2175418Y2151735D1*
X2177121Y2144641D1*
X2177693Y2137368D1*
X2177377Y2132261D1*
X2199218Y2132180D1*
X2206248Y2130782D1*
X2212759Y2127781D1*
X2218389Y2123343D1*
X2218610Y2123103D1*
X2454390Y1887209D1*
X2458372Y1881248D1*
X2460853Y1874523D1*
X2461696Y1867403D1*
X2461683Y1867058D1*
X2461696Y1653781D1*
X2466554Y1648895D1*
X2470841Y1642994D1*
X2474154Y1636492D1*
X2476408Y1629554D1*
X2477550Y1622349D1*
Y1615053D1*
X2476408Y1607848D1*
X2474154Y1600910D1*
X2470841Y1594408D1*
X2466554Y1588507D1*
X2461395Y1583348D1*
X2455494Y1579061D1*
X2448992Y1575748D1*
X2442054Y1573494D1*
X2439467Y1572979D1*
X2437918Y1566834D1*
X2435126Y1560093D1*
X2431314Y1553874D1*
X2426576Y1548326D1*
X2421028Y1543588D1*
X2414809Y1539776D1*
X2408068Y1536984D1*
X2402499Y1535584D1*
X2402550Y1527553D1*
X2401408Y1520348D1*
X2399154Y1513410D1*
X2395841Y1506908D1*
X2391554Y1501007D1*
X2386395Y1495848D1*
X2380494Y1491561D1*
X2373992Y1488248D1*
X2367054Y1485994D1*
X2359849Y1484852D1*
X2352553D1*
X2350217Y1485129D1*
X2350235Y1380946D1*
X2358181Y1372528D1*
X2361684Y1366273D1*
X2363630Y1359373D1*
X2364005Y1354603D1*
Y1334145D1*
X2368637Y1326785D1*
X2371428Y1320045D1*
X2373131Y1312950D1*
X2373704Y1305677D1*
X2373131Y1298404D1*
X2371428Y1291310D1*
X2368637Y1284570D1*
X2366915Y1281498D1*
X2371641Y1277373D1*
X2376378Y1271824D1*
X2380191Y1265605D1*
X2382982Y1258865D1*
X2384685Y1251771D1*
X2385257Y1244498D1*
X2384942Y1231998D1*
X2384801Y1024900D1*
X2383667Y1017744D1*
X2381428Y1010852D1*
X2378138Y1004397D1*
X2373878Y998534D1*
X2336062Y960516D1*
X2319711Y943719D1*
X2314163Y938982D1*
X2307944Y935170D1*
X2301204Y932378D1*
X2294109Y930675D1*
X2286836Y930103D1*
X2279563Y930675D1*
X2272469Y932378D1*
X2265729Y935170D1*
X2259509Y938982D1*
X2253961Y943719D1*
X2249223Y949268D1*
X2245411Y955487D1*
X2242620Y962227D1*
X2240916Y969322D1*
X2240344Y976595D1*
X2240916Y983868D1*
X2242620Y990962D1*
X2245411Y997702D1*
X2249223Y1003921D1*
X2253961Y1009470D1*
X2263023Y1018086D1*
X2292612Y1047675D1*
X2292588Y1210408D1*
X2102689Y1020491D1*
X2102121Y1011428D1*
X2100418Y1004334D1*
X2097626Y997593D1*
X2093814Y991374D1*
X2089076Y985826D1*
X2083528Y981088D1*
X2077309Y977276D1*
X2070568Y974484D1*
X2063474Y972781D1*
X2056201Y972209D1*
X2048928Y972781D1*
X2041834Y974484D1*
X2035093Y977276D1*
X2028874Y981088D1*
X2023326Y985826D1*
X2018588Y991374D1*
X2014776Y997593D1*
X2011984Y1004334D1*
X2010281Y1011428D1*
X2009709Y1018701D1*
X2010281Y1025974D1*
X2011984Y1033068D1*
X2014776Y1039809D1*
X2018588Y1046028D1*
X2023326Y1051576D1*
X2028874Y1056314D1*
X2035093Y1060126D1*
X2041834Y1062918D1*
X2048928Y1064621D1*
X2056201Y1065193D1*
X2060882Y1064928D1*
X2263292Y1267347D1*
X2263281Y1634928D1*
X2259855Y1629473D1*
X2255117Y1623925D1*
X2249570Y1619188D1*
X2243349Y1615376D1*
X2236609Y1612583D1*
X2229515Y1610881D1*
X2222242Y1610309D1*
X2214969Y1610881D1*
X2207876Y1612583D1*
X2201135Y1615376D1*
X2194915Y1619188D1*
X2189368Y1623925D1*
X2184629Y1629473D1*
X2180818Y1635693D1*
X2178025Y1642433D1*
X2176322Y1649528D1*
X2175750Y1656801D1*
X2176322Y1664074D1*
X2178025Y1671167D1*
X2180818Y1677907D1*
X2184629Y1684128D1*
X2189368Y1689675D1*
X2194915Y1694414D1*
X2201135Y1698225D1*
X2207876Y1701017D1*
X2214969Y1702719D1*
X2222242Y1703293D1*
X2230117Y1702600D1*
X2234544Y1707055D1*
X2234542Y1797205D1*
X2069424Y1962293D1*
X1873628Y1962274D1*
X1870841Y1956908D1*
X1866554Y1951007D1*
X1861395Y1945848D1*
X1855494Y1941561D1*
X1848992Y1938248D1*
X1842054Y1935994D1*
X1834849Y1934852D1*
X1827553D1*
X1820348Y1935994D1*
X1813410Y1938248D1*
X1806908Y1941561D1*
X1801007Y1945848D1*
X1795848Y1951007D1*
X1791561Y1956908D1*
X1788248Y1963410D1*
X1785994Y1970348D1*
X1784852Y1977553D1*
Y1984849D1*
X1785994Y1992054D1*
X1788248Y1998992D1*
X1791561Y2005494D1*
X1795848Y2011395D1*
X1801007Y2016554D1*
X1806908Y2020841D1*
X1813410Y2024154D1*
X1820348Y2026408D1*
X1827553Y2027550D1*
X1834849D1*
X1842054Y2026408D1*
X1847668Y2024643D1*
X1847209Y2031201D1*
X1847781Y2038474D1*
X1849484Y2045568D1*
X1852276Y2052309D1*
X1856088Y2058528D1*
X1860826Y2064076D1*
X1866374Y2068814D1*
X1872593Y2072626D1*
X1879334Y2075418D1*
X1885435Y2076923D1*
X1886984Y2083068D1*
X1889776Y2089809D1*
X1893588Y2096028D1*
X1898326Y2101576D1*
X1903874Y2106314D1*
X1910093Y2110126D1*
X1916834Y2112918D1*
X1923928Y2114621D1*
X1931201Y2115193D1*
X1938474Y2114621D1*
X1945568Y2112918D1*
X1952309Y2110126D1*
X1958528Y2106314D1*
X1964076Y2101576D1*
X1968735Y2096129D1*
X1978563Y2095772D1*
X1985462Y2093826D1*
X1987987Y2092626D1*
X1988206Y2121475D1*
Y2133340D1*
X1983759Y2140449D1*
X1980967Y2147189D1*
X1979264Y2154284D1*
X1978692Y2161557D1*
X1979264Y2168830D1*
X1980967Y2175924D1*
X1983759Y2182664D1*
X1987571Y2188883D1*
X1992309Y2194432D1*
X1997857Y2199170D1*
X2004076Y2202982D1*
X2010816Y2205773D1*
X2017911Y2207477D1*
X2025184Y2208049D1*
X2032457Y2207477D1*
X2039551Y2205773D1*
X2046292Y2202982D1*
X2052511Y2199170D1*
X2058059Y2194432D1*
X2062797Y2188883D1*
X2066609Y2182664D1*
X2069400Y2175924D1*
X2071104Y2168830D1*
X2071676Y2161557D1*
X2071104Y2154284D1*
X2069400Y2147189D1*
X2065891Y2139168D1*
X2064125Y700897D2*
X2068588Y708528D1*
X2073326Y714076D1*
X2078874Y718814D1*
X2085093Y722626D1*
X2091834Y725418D1*
X2098928Y727121D1*
X2106201Y727693D1*
X2109463Y727565D1*
X2148897Y766890D1*
X2154857Y770872D1*
X2161582Y773353D1*
X2164330Y773868D1*
X2120958Y774079D1*
X2045128D1*
X2040374Y768571D1*
X2034826Y763834D1*
X2028607Y760021D1*
X2021866Y757230D1*
X2014772Y755526D1*
X2009963Y755051D1*
X2064129Y700906D1*
X2266656Y2220474D2*
X2263004Y2227484D1*
X2260750Y2234423D1*
X2259608Y2241628D1*
Y2248924D1*
X2260750Y2256129D1*
X2263004Y2263067D1*
X2266316Y2269568D1*
X2270604Y2275470D1*
X2275763Y2280629D1*
X2281664Y2284916D1*
X2288166Y2288229D1*
X2295104Y2290483D1*
X2302309Y2291625D1*
X2309605D1*
X2316810Y2290483D1*
X2323748Y2288229D1*
X2330250Y2284916D1*
X2336151Y2280629D1*
X2341049Y2275752D1*
X2391065Y2275771D1*
X2397226Y2281408D1*
X2403481Y2284911D1*
X2410379Y2286857D1*
X2415150Y2287232D1*
X2556995D1*
X2565171Y2290784D1*
X2572265Y2292487D1*
X2579538Y2293059D1*
X2586811Y2292487D1*
X2593906Y2290784D1*
X2600646Y2287992D1*
X2606865Y2284180D1*
X2612414Y2279442D1*
X2617151Y2273894D1*
X2620963Y2267675D1*
X2623755Y2260935D1*
X2625458Y2253840D1*
X2626030Y2246567D1*
X2625458Y2239294D1*
X2623755Y2232200D1*
X2620963Y2225460D1*
X2617151Y2219240D1*
X2612414Y2213692D1*
X2606865Y2208954D1*
X2600646Y2205142D1*
X2595284Y2202858D1*
X2597677Y2195603D1*
X2598819Y2188398D1*
Y2181101D1*
X2597677Y2173897D1*
X2595423Y2166958D1*
X2592110Y2160457D1*
X2587823Y2154555D1*
X2582664Y2149397D1*
X2576763Y2145109D1*
X2570261Y2141797D1*
X2563323Y2139542D1*
X2556118Y2138400D1*
X2548822D1*
X2541617Y2139542D1*
X2534679Y2141797D1*
X2528177Y2145109D1*
X2522276Y2149397D1*
X2517117Y2154555D1*
X2512830Y2160457D1*
X2509517Y2166958D1*
X2507263Y2173897D1*
X2506121Y2181101D1*
Y2188398D1*
X2507263Y2195603D1*
X2509517Y2202541D1*
X2511819Y2207238D1*
X2454328Y2207235D1*
X2442326Y2195781D1*
X2436071Y2192278D1*
X2429172Y2190332D1*
X2424402Y2189957D1*
X2349450D1*
X2348911Y2184217D1*
X2347208Y2177122D1*
X2344416Y2170382D1*
X2340604Y2164163D1*
X2335866Y2158614D1*
X2330318Y2153877D1*
X2324099Y2150065D1*
X2317358Y2147273D1*
X2310264Y2145570D1*
X2302991Y2144998D1*
X2295718Y2145570D1*
X2288624Y2147273D1*
X2281883Y2150065D1*
X2275664Y2153877D1*
X2270116Y2158614D1*
X2265378Y2164163D1*
X2261566Y2170382D1*
X2258774Y2177122D1*
X2257071Y2184217D1*
X2256499Y2191490D1*
X2257071Y2198763D1*
X2258774Y2205857D1*
X2261566Y2212597D1*
X2265378Y2218816D1*
X2266658Y2220441D1*
X1089774Y1315631D2*
X1094663Y1321404D1*
X1100211Y1326142D1*
X1103607Y1328372D1*
X1103605Y1663009D1*
X1065101Y1624453D1*
X1065133Y1340289D1*
X1089795Y1315649D1*
X1835483Y1073113D2*
X1830343Y1074861D1*
X1823841Y1078173D1*
X1817940Y1082461D1*
X1812490Y1087990D1*
X1761200Y1036670D1*
X1803810Y1036696D1*
X1805372Y1043173D1*
X1808163Y1049914D1*
X1811975Y1056133D1*
X1816713Y1061681D1*
X1822261Y1066419D1*
X1828481Y1070231D1*
X1835454Y1073088D1*
X1477075Y2125200D2*
X1474550Y2130294D1*
X1472295Y2137232D1*
X1471154Y2144437D1*
Y2151734D1*
X1472295Y2158939D1*
X1474550Y2165877D1*
X1477862Y2172378D1*
X1482150Y2178280D1*
X1487026Y2183177D1*
X1487008Y2196474D1*
X1400750Y2282701D1*
X1400890Y2217253D1*
X1401129Y2171122D1*
X1405866Y2165574D1*
X1409679Y2159355D1*
X1412470Y2152614D1*
X1414173Y2145520D1*
X1414746Y2138247D1*
X1414173Y2130974D1*
X1412837Y2125184D1*
X1477066Y2125205D1*
X1565439Y2445679D2*
X1559000Y2442402D1*
X1552062Y2440147D1*
X1544857Y2439005D1*
X1537561D1*
X1530356Y2440147D1*
X1523418Y2442402D1*
X1516916Y2445714D1*
X1511015Y2450002D1*
X1504876Y2456403D1*
X1452313Y2508946D1*
X1377574Y2508916D1*
X1565465Y2321012D1*
X1565432Y2445626D1*
X1004135Y1415214D2*
X959181Y1370260D1*
X959210Y1324864D1*
X973860Y1310213D1*
X1009624Y1310206D1*
X1006465Y1316011D1*
X1004519Y1322910D1*
X1004143Y1327680D1*
Y1415229D1*
X1865904Y1266534D2*
X1910444Y1311074D1*
X1910465Y1483862D1*
X1866260Y1528016D1*
X1865931Y1506671D1*
Y1266583D1*
X1971454Y1472858D2*
Y1333112D1*
X2010369Y1372091D1*
X2010387Y1433941D1*
X1971431Y1472845D1*
D32*
X618701Y2518701D3*
Y2802166D3*
D34*
X1890869Y1387688D3*
X1990869D3*
X2090869D3*
X2190869D3*
Y2687688D3*
X2090869D3*
X1990869D3*
X1890869D3*
X984179Y1353561D3*
X1084179D3*
X1184179D3*
X1284179D3*
Y2653561D3*
X1184179D3*
X1084179D3*
X984179D3*
D35*
X1518701Y1368701D3*
D36*
Y1468701D3*
Y1568701D3*
Y1668701D3*
D35*
X1631201D3*
D36*
Y1568701D3*
Y1468701D3*
Y1368701D3*
X923798Y466386D3*
X823798D3*
X723798D3*
X623798D3*
X2475631Y465458D3*
X2375631D3*
X2275631D3*
X2175631D3*
X918701Y685131D3*
X818701D3*
X718701D3*
X618701D3*
X2481201Y673708D3*
X2381201D3*
X2281201D3*
X2181201D3*
D45*
X1516973Y2882820D3*
D46*
X1438232D3*
X1359492D3*
X1280752D3*
Y2804080D3*
X1359492D3*
X1438232D3*
X1516973D3*
D47*
X443701Y456201D3*
Y531201D3*
Y606201D3*
Y681201D3*
Y756201D3*
Y831201D3*
X518701Y456201D3*
Y531201D3*
Y606201D3*
Y681201D3*
Y756201D3*
Y831201D3*
D14*
X1934958Y2456568D3*
X1936229Y2507015D3*
D35*
X1831201Y478454D3*
D36*
X1731201D3*
X1631201D3*
D35*
X1493701D3*
D36*
X1393701D3*
X1293701D3*
D34*
X493701Y1631201D3*
X749607D3*
X493701Y1431201D3*
X749607D3*
X493701Y1218701D3*
X749607D3*
X493701Y1006201D3*
X749607D3*
D48*
X618701Y1856201D3*
D49*
Y2041240D3*
Y2226280D3*
D45*
X1733347Y2782921D3*
D46*
X1633347D3*
X1733347Y2882921D3*
X1633347D3*
M02*
