M48
INCH
T01C0.0157
T02C0.019
T03C0.0354
T04C0.0433
T05C0.0512
T06C0.0728
T07C0.105
T08C0.1693
%
T01
X+019350Y+024566
X+019362Y+025070
T02
X+022730Y+025836
X+024001Y+024952
X+023060Y+022453
X+023030Y+021915
X+024738Y+021810
X+025525Y+021847
X+025795Y+022466
X+023770Y+020149
X+021312Y+021374
X+020562Y+020937
X+020252Y+021616
X+019312Y+020687
X+018937Y+020312
X+018312Y+019812
X+017630Y+021097
X+016108Y+020897
X+015642Y+021343
X+015175Y+021481
X+015364Y+020435
X+014958Y+020063
X+015249Y+019629
X+015657Y+019330
X+015602Y+018852
X+015936Y+018466
X+015767Y+017408
X+018394Y+015925
X+018713Y+016317
X+020341Y+016639
X+021375Y+015804
X+021866Y+014875
X+022222Y+016568
X+023562Y+015312
X+023937Y+015812
X+024312Y+016187
X+023272Y+013057
X+023388Y+012445
X+022020Y+012786
X+022591Y+010969
X+022868Y+009766
X+020562Y+010187
X+019435Y+009213
X+020145Y+008569
X+020075Y+008014
X+021062Y+006812
X+021517Y+005702
X+018210Y+007349
X+017685Y+007330
X+016748Y+007671
X+016773Y+008523
X+016310Y+008505
X+015821Y+008478
X+015346Y+008463
X+014879Y+008548
X+013747Y+008015
X+012983Y+007583
X+013120Y+006877
X+012139Y+007617
X+011475Y+006751
X+012979Y+008683
X+012187Y+010437
X+012732Y+010722
X+011627Y+010117
X+010701Y+012477
X+011275Y+012885
X+009734Y+012309
X+007880Y+013023
X+006416Y+012916
X+005938Y+013472
X+005777Y+011938
X+006230Y+011541
X+007845Y+010902
X+008136Y+015253
X+007837Y+017152
X+008156Y+017649
X+008959Y+019041
X+010900Y+019598
X+012873Y+019617
X+013491Y+020567
X+013683Y+021382
X+013027Y+021352
X+011328Y+021600
X+013770Y+023595
X+013727Y+024124
X+013459Y+025551
X+015412Y+024854
X+016477Y+023975
X+016162Y+027025
X+011569Y+027882
X+010187Y+027812
X+006687Y+029437
X+005687Y+029437
X+010440Y+017218
X+011812Y+016687
X+011812Y+016062
X+011812Y+015437
X+012096Y+014919
X+012455Y+015741
X+012987Y+015328
X+014562Y+012437
X+014569Y+011958
X+015012Y+011750
X+014937Y+010812
X+015163Y+010179
X+016191Y+010782
X+017053Y+008901
X+018496Y+010288
X+018858Y+010582
X+018981Y+011097
X+018481Y+011178
X+017974Y+012665
X+017812Y+013187
X+017962Y+014043
X+019885Y+018209
X+025571Y+009833
X+025386Y+009403
X+024937Y+008187
X+016812Y+006687
X+015562Y+006687
X+026144Y+029344
T03
X+015170Y+028828
X+014382Y+028828
X+013595Y+028828
X+012808Y+028828
X+012808Y+028041
X+013595Y+028041
X+014382Y+028041
X+015170Y+028041
X+016333Y+027829
X+017333Y+027829
X+017333Y+028829
X+016333Y+028829
X+005187Y+008312
X+004437Y+008312
X+004437Y+007562
X+005187Y+007562
X+005187Y+006812
X+004437Y+006812
X+004437Y+006062
X+004437Y+005312
X+004437Y+004562
X+005187Y+004562
X+005187Y+005312
X+005187Y+006062
T04
X+015187Y+013687
X+015187Y+014687
X+015187Y+015687
X+015187Y+016687
X+016312Y+016687
X+016312Y+015687
X+016312Y+014687
X+016312Y+013687
X+021812Y+006737
X+022812Y+006737
X+023812Y+006737
X+024812Y+006737
X+024756Y+004655
X+023756Y+004655
X+022756Y+004655
X+021756Y+004655
X+018312Y+004785
X+017312Y+004785
X+016312Y+004785
X+014937Y+004785
X+013937Y+004785
X+012937Y+004785
X+009238Y+004664
X+008238Y+004664
X+007238Y+004664
X+006238Y+004664
X+006187Y+006851
X+007187Y+006851
X+008187Y+006851
X+009187Y+006851
T05
X+018909Y+013877
X+019909Y+013877
X+020909Y+013877
X+021909Y+013877
X+012842Y+013536
X+011842Y+013536
X+010842Y+013536
X+009842Y+013536
X+007496Y+014312
X+007496Y+016312
X+004937Y+016312
X+004937Y+014312
X+004937Y+012187
X+004937Y+010062
X+007496Y+010062
X+007496Y+012187
X+009842Y+026536
X+010842Y+026536
X+011842Y+026536
X+012842Y+026536
X+018909Y+026877
X+019909Y+026877
X+020909Y+026877
X+021909Y+026877
T06
X+006187Y+018562
X+006187Y+020412
X+006187Y+022263
T07
X+010682Y+004812
X+020062Y+004812
X+020062Y+029312
X+010682Y+029312
T08
X+006187Y+025187
X+006187Y+028022
T00
M30
