G04 DipTrace 3.0.0.2*
G04 TopMask.gbr*
%MOIN*%
G04 #@! TF.FileFunction,Soldermask,Top*
G04 #@! TF.Part,Single*
%AMOUTLINE0*
4,1,4,
0.0055,-0.033,
-0.0055,-0.033,
-0.0055,0.033,
0.0055,0.033,
0.0055,-0.033,
0*%
%AMOUTLINE1*
4,1,4,
-0.033,-0.0055,
-0.033,0.0055,
0.033,0.0055,
0.033,-0.0055,
-0.033,-0.0055,
0*%
%ADD28R,0.0615X0.014*%
%ADD29R,0.014X0.066*%
%ADD35R,0.066929X0.066929*%
%ADD36C,0.066929*%
%ADD52C,0.105*%
%ADD61C,0.129921*%
%ADD63R,0.129921X0.129921*%
%ADD65C,0.047244*%
%ADD67C,0.066929*%
%ADD70R,0.108268X0.070866*%
%ADD72R,0.070866X0.108268*%
%ADD74R,0.047244X0.051181*%
%ADD76R,0.051181X0.047244*%
%ADD78R,0.086614X0.016535*%
%ADD80C,0.074803*%
%ADD81R,0.074803X0.074803*%
%ADD82C,0.086614*%
%ADD83R,0.283465X0.244094*%
%ADD85R,0.15748X0.086614*%
%ADD87R,0.066874X0.086874*%
%ADD100OUTLINE0*%
%ADD101OUTLINE1*%
%FSLAX26Y26*%
G04*
G70*
G90*
G75*
G01*
G04 TopMask*
%LPD*%
D28*
X1568034Y733709D3*
Y759299D3*
Y784890D3*
Y810481D3*
X1434534D3*
Y784890D3*
Y759299D3*
Y733709D3*
D29*
X1383494Y1205735D3*
X1357903D3*
X1332313D3*
X1306722D3*
X1281131D3*
X1255541D3*
X1229950D3*
X1204360D3*
Y983735D3*
X1229950D3*
X1255541D3*
X1281131D3*
X1306722D3*
X1332313D3*
X1357903D3*
X1383494D3*
D87*
X1001276Y2288341D3*
X1092276D3*
X1183276D3*
D85*
X1092276Y2536773D3*
D83*
X618701Y2518701D3*
Y2802166D3*
D82*
X1890869Y1387688D3*
X1990869D3*
X2090869D3*
X2190869D3*
Y2687688D3*
X2090869D3*
X1990869D3*
X1890869D3*
X984179Y1353561D3*
X1084179D3*
X1184179D3*
X1284179D3*
Y2653561D3*
X1184179D3*
X1084179D3*
X984179D3*
D81*
X1518701Y1368701D3*
D80*
Y1468701D3*
Y1568701D3*
Y1668701D3*
D78*
X1364288Y1512282D3*
Y1537873D3*
Y1563463D3*
Y1589054D3*
Y1614645D3*
Y1640235D3*
Y1665826D3*
Y1691416D3*
Y1717007D3*
Y1742597D3*
Y1768188D3*
Y1793778D3*
X1104445D3*
Y1768188D3*
Y1742597D3*
Y1717007D3*
Y1691416D3*
Y1665826D3*
Y1640235D3*
Y1614645D3*
Y1589054D3*
Y1563463D3*
Y1537873D3*
Y1512282D3*
D76*
X1426998Y673236D3*
X1360068D3*
D74*
X1445554Y1049624D3*
Y1116553D3*
X1676158Y2268713D3*
Y2335642D3*
D76*
X2318701Y1943701D3*
X2385630D3*
X2318701Y1893701D3*
X2385630D3*
X2352815Y2182415D3*
X2419744D3*
D72*
X2127481Y960047D3*
Y822252D3*
D76*
X1871933Y2505814D3*
X1805004D3*
X1871726Y2450101D3*
X1804797D3*
D74*
X2281201Y895777D3*
Y828848D3*
D72*
X981500Y1913673D3*
Y1775878D3*
D76*
X1118579Y1908411D3*
X1185508D3*
D72*
X2131201Y1221112D3*
Y1083316D3*
D74*
X2260118Y1221436D3*
Y1154507D3*
D72*
X979986Y1620192D3*
Y1482397D3*
D74*
X865574Y1764782D3*
Y1831711D3*
D70*
X1188906Y2099701D3*
X1051110D3*
D72*
X850689Y2274470D3*
Y2136675D3*
D74*
X1622642Y2269642D3*
Y2336571D3*
X1952677Y1661983D3*
Y1595054D3*
D72*
X1507904Y2240029D3*
Y2377824D3*
D76*
X2281861Y2494032D3*
X2348790D3*
X2282767Y2439571D3*
X2349696D3*
X2283131Y2385222D3*
X2350061D3*
X2283393Y2327625D3*
X2350322D3*
D81*
X1631201Y1668701D3*
D80*
Y1568701D3*
Y1468701D3*
Y1368701D3*
D78*
X1718701Y1254805D3*
Y1229214D3*
Y1203624D3*
Y1178033D3*
Y1152442D3*
Y1126852D3*
Y1101261D3*
Y1075671D3*
Y1050080D3*
Y1024490D3*
Y998899D3*
Y973309D3*
X1978544D3*
Y998899D3*
Y1024490D3*
Y1050080D3*
Y1075671D3*
Y1101261D3*
Y1126852D3*
Y1152442D3*
Y1178033D3*
Y1203624D3*
Y1229214D3*
Y1254805D3*
D52*
X1068201Y481201D3*
X2006201D3*
X1068201Y2931201D3*
X2006201D3*
D80*
X923798Y466386D3*
X823798D3*
X723798D3*
X623798D3*
X2475631Y465458D3*
X2375631D3*
X2275631D3*
X2175631D3*
X918701Y685131D3*
X818701D3*
X718701D3*
X618701D3*
X2481201Y673708D3*
X2381201D3*
X2281201D3*
X2181201D3*
D35*
X1516973Y2882820D3*
D36*
X1438232D3*
X1359492D3*
X1280752D3*
Y2804080D3*
X1359492D3*
X1438232D3*
X1516973D3*
D76*
X2513408Y2693365D3*
X2446478D3*
X2513408Y2805865D3*
X2446478D3*
X1267785Y2206874D3*
X1334715D3*
X947248Y2839337D3*
X880318D3*
X2513408Y2930865D3*
X2446478D3*
D100*
X2143701Y2256201D3*
X2124016D3*
X2104331D3*
X2084646D3*
X2064961D3*
X2045276D3*
X2025591D3*
X2005906D3*
X1986221D3*
X1966536D3*
X1946851D3*
X1927166D3*
X1907481D3*
X1887795D3*
X1868110D3*
X1848425D3*
X1828740D3*
X1809055D3*
X1789370D3*
X1769685D3*
D101*
X1696193Y2182710D3*
Y2163024D3*
Y2143340D3*
Y2123655D3*
Y2103969D3*
Y2084285D3*
Y2064599D3*
Y2044915D3*
Y2025230D3*
Y2005544D3*
Y1985860D3*
Y1966173D3*
Y1946488D3*
Y1926805D3*
Y1907118D3*
Y1887435D3*
Y1867748D3*
Y1848063D3*
Y1828379D3*
Y1808693D3*
D100*
X1769685Y1735202D3*
X1789370D3*
X1809055D3*
X1828740D3*
X1848425D3*
X1868110D3*
X1887795D3*
X1907481D3*
X1927166D3*
X1946851D3*
X1966536D3*
X1986221D3*
X2005906D3*
X2025591D3*
X2045276D3*
X2064961D3*
X2084646D3*
X2104331D3*
X2124016D3*
X2143701D3*
D101*
X2217193Y1808693D3*
Y1828379D3*
Y1848063D3*
Y1867748D3*
Y1887435D3*
Y1907118D3*
Y1926805D3*
Y1946488D3*
Y1966173D3*
Y1985860D3*
Y2005544D3*
Y2025230D3*
Y2044915D3*
Y2064599D3*
Y2084285D3*
Y2103969D3*
Y2123655D3*
Y2143340D3*
Y2163024D3*
Y2182710D3*
D67*
X443701Y456201D3*
Y531201D3*
Y606201D3*
Y681201D3*
Y756201D3*
Y831201D3*
X518701Y456201D3*
Y531201D3*
Y606201D3*
Y681201D3*
Y756201D3*
Y831201D3*
D65*
X1934958Y2456568D3*
X1936229Y2507015D3*
D76*
X2352221Y2130024D3*
X2419150D3*
D74*
X855881Y1609181D3*
Y1676110D3*
X854982Y1414578D3*
Y1481507D3*
X853255Y1201565D3*
Y1268494D3*
X859723Y980302D3*
Y1047231D3*
D76*
X1270145Y2274578D3*
X1337074D3*
X2313408Y2693365D3*
X2380337D3*
X2313408Y2805865D3*
X2380337D3*
X2313408Y2930865D3*
X2380337D3*
X884748Y2901837D3*
X951677D3*
X884748Y2776837D3*
X951677D3*
D81*
X1831201Y478454D3*
D80*
X1731201D3*
X1631201D3*
D81*
X1493701D3*
D80*
X1393701D3*
X1293701D3*
D82*
X493701Y1631201D3*
X749607D3*
X493701Y1431201D3*
X749607D3*
X493701Y1218701D3*
X749607D3*
X493701Y1006201D3*
X749607D3*
D63*
X618701Y1856201D3*
D61*
Y2041240D3*
Y2226280D3*
D35*
X1733347Y2782921D3*
D36*
X1633347D3*
X1733347Y2882921D3*
X1633347D3*
M02*
