G04 DipTrace 3.0.0.2*
G04 TopSilk.gbr*
%MOIN*%
G04 #@! TF.FileFunction,Legend,Top*
G04 #@! TF.Part,Single*
%ADD10C,0.009843*%
%ADD22C,0.025*%
%ADD23O,0.148965X0.063841*%
%ADD24O,0.155171X0.062954*%
%ADD25C,0.001312*%
%ADD26C,0.006*%
%ADD33C,0.000394*%
%ADD37C,0.024987*%
%ADD41C,0.023616*%
%ADD43C,0.023676*%
%ADD93C,0.003088*%
%ADD94C,0.00772*%
%ADD95C,0.004632*%
%ADD96C,0.012351*%
%ADD98C,0.006176*%
%ADD99C,0.003281*%
%FSLAX26Y26*%
G04*
G70*
G90*
G75*
G01*
G04 TopSilk*
%LPD*%
X1439291Y714090D2*
D26*
Y705095D1*
X1563287Y830088D2*
Y839097D1*
X1439291D1*
Y830088D1*
Y705095D2*
X1563287D1*
Y714090D1*
X1187927Y1162749D2*
Y1026724D1*
X1399927D2*
Y1162749D1*
G36*
X1237450Y930735D2*
X1222440D1*
Y940737D1*
X1237450D1*
Y930735D1*
G37*
X968136Y2481128D2*
D10*
X1215521D1*
Y2350763D1*
X968136D1*
Y2481128D1*
X778678Y2350683D2*
X458710D1*
X718681Y2972933D2*
X512457D1*
X781187Y2891683D2*
Y2347933D1*
X456201D2*
Y2891683D1*
X781187Y2897933D2*
X724932Y2966683D1*
X456201Y2891683D2*
X506206Y2966683D1*
X1678723Y2885484D2*
D33*
X2503540D1*
Y1186021D1*
X1678723D1*
Y2885484D1*
X772033Y2851357D2*
X1596849D1*
Y1151893D1*
X772033D1*
Y2851357D1*
X1468696Y1318683D2*
D10*
X1568701D1*
Y1718719D1*
X1468696D1*
Y1318683D1*
X1103132Y1496780D2*
X1365601D1*
Y1809280D1*
X1103132D1*
Y1496780D1*
D37*
X1296869Y1521780D3*
X2212126Y806521D2*
D10*
X2176694Y806497D1*
X2212126Y806521D2*
Y946219D1*
X2182602Y975778D2*
X2212126Y946219D1*
X2182602Y975778D2*
X2176694Y975802D1*
X2078268Y806497D2*
X2042835Y806521D1*
Y946219D1*
X2072359Y975778D2*
X2042835Y946219D1*
X2078268Y975802D2*
X2072359Y975778D1*
D41*
X2182610Y997430D3*
X1066146Y1760147D2*
D10*
X1030713Y1760123D1*
X1066146Y1760147D2*
Y1899845D1*
X1036621Y1929404D2*
X1066146Y1899845D1*
X1036621Y1929404D2*
X1030713Y1929428D1*
X932287Y1760123D2*
X896855Y1760147D1*
Y1899845D1*
X926379Y1929404D2*
X896855Y1899845D1*
X932287Y1929428D2*
X926379Y1929404D1*
D41*
X1036630Y1951056D3*
X2215847Y1067586D2*
D10*
X2180414Y1067562D1*
X2215847Y1067586D2*
Y1207283D1*
X2186322Y1236843D2*
X2215847Y1207283D1*
X2186322Y1236843D2*
X2180414Y1236866D1*
X2081988Y1067562D2*
X2046555Y1067586D1*
Y1207283D1*
X2076080Y1236843D2*
X2046555Y1207283D1*
X2081988Y1236866D2*
X2076080Y1236843D1*
D41*
X2186331Y1258494D3*
X1064631Y1466666D2*
D10*
X1029199Y1466642D1*
X1064631Y1466666D2*
Y1606363D1*
X1035107Y1635923D2*
X1064631Y1606363D1*
X1035107Y1635923D2*
X1029199Y1635947D1*
X930773Y1466642D2*
X895340Y1466666D1*
Y1606363D1*
X924865Y1635923D2*
X895340Y1606363D1*
X930773Y1635947D2*
X924865Y1635923D1*
D41*
X1035116Y1657574D3*
X1035380Y2015055D2*
D10*
X1035356Y2050488D1*
X1035380Y2015055D2*
X1175077D1*
X1204637Y2044580D2*
X1175077Y2015055D1*
X1204637Y2044580D2*
X1204660Y2050488D1*
X1035356Y2148914D2*
X1035380Y2184347D1*
X1175077D1*
X1204637Y2154822D2*
X1175077Y2184347D1*
X1204660Y2148914D2*
X1204637Y2154822D1*
D43*
X1226288Y2044571D3*
X935335Y2120944D2*
D10*
X899902Y2120920D1*
X935335Y2120944D2*
Y2260642D1*
X905810Y2290201D2*
X935335Y2260642D1*
X905810Y2290201D2*
X899902Y2290225D1*
X801476Y2120920D2*
X766044Y2120944D1*
Y2260642D1*
X795568Y2290201D2*
X766044Y2260642D1*
X801476Y2290225D2*
X795568Y2290201D1*
D41*
X905819Y2311852D3*
X1423259Y2393555D2*
D10*
X1458691Y2393579D1*
X1423259Y2393555D2*
Y2253857D1*
X1452783Y2224298D2*
X1423259Y2253857D1*
X1452783Y2224298D2*
X1458691Y2224274D1*
X1557117Y2393579D2*
X1592550Y2393555D1*
Y2253857D1*
X1563026Y2224298D2*
X1592550Y2253857D1*
X1557117Y2224274D2*
X1563026Y2224298D1*
D41*
X1452775Y2202647D3*
X1681206Y1718719D2*
D10*
X1581201D1*
Y1318683D1*
X1681206D1*
Y1718719D1*
X1979857Y1270307D2*
X1717388D1*
Y957807D1*
X1979857D1*
Y1270307D1*
D37*
X1786120Y1245307D3*
X973780Y416381D2*
D10*
X573798D1*
Y522635D1*
X973780D1*
Y416381D1*
X2525613Y415453D2*
X2125631D1*
Y521708D1*
X2525613D1*
Y415453D1*
X968683Y635126D2*
X568701D1*
Y741381D1*
X968683D1*
Y635126D1*
X2531183Y623702D2*
X2131201D1*
Y729957D1*
X2531183D1*
Y623702D1*
X1564217Y2756836D2*
X1233508D1*
Y2930065D1*
X1564217D1*
Y2756836D1*
X2542444Y2655865D2*
Y2730865D1*
X2517438Y2630865D2*
X2492444Y2655865D1*
Y2630865D2*
X2467438Y2655865D1*
X2517438Y2643365D2*
Y2630865D1*
X2492444Y2643365D2*
Y2630865D1*
X2542444Y2768365D2*
Y2843365D1*
X2517438Y2743365D2*
X2492444Y2768365D1*
Y2743365D2*
X2467438Y2768365D1*
X2517438Y2755865D2*
Y2743365D1*
X2492444Y2755865D2*
Y2743365D1*
X1238750Y2244374D2*
Y2169374D1*
X1263755Y2269374D2*
X1288750Y2244374D1*
Y2269374D2*
X1313755Y2244374D1*
X1263755Y2256874D2*
Y2269374D1*
X1288750Y2256874D2*
Y2269374D1*
X976284Y2801837D2*
Y2876837D1*
X951278Y2776837D2*
X926284Y2801837D1*
Y2776837D2*
X901278Y2801837D1*
X951278Y2789337D2*
Y2776837D1*
X926284Y2789337D2*
Y2776837D1*
X2542444Y2893365D2*
Y2968365D1*
X2517438Y2868365D2*
X2492444Y2893365D1*
Y2868365D2*
X2467438Y2893365D1*
X2517438Y2880865D2*
Y2868365D1*
X2492444Y2880865D2*
Y2868365D1*
X2201662Y2201734D2*
D26*
Y2240708D1*
X2162663Y1750703D2*
X2201662D1*
X1711724Y1789677D2*
Y1750703D1*
Y2240708D2*
Y2201734D1*
Y1750703D2*
X1750724D1*
X2201662D2*
Y1789677D1*
Y2240708D2*
X2162663D1*
X1750724D2*
X1711724D1*
G36*
X1974061Y2309209D2*
X1959013D1*
Y2299170D1*
X1974061D1*
Y2309209D1*
G37*
G36*
X1777183D2*
X1762198D1*
Y2299170D1*
X1777183D1*
Y2309209D1*
G37*
G36*
X1653162Y2013028D2*
X1643193D1*
Y1998068D1*
X1653162D1*
Y2013028D1*
G37*
G36*
Y1816186D2*
X1643193D1*
Y1801226D1*
X1653162D1*
Y1816186D1*
G37*
G36*
X1954373Y1682202D2*
X1939325D1*
Y1692175D1*
X1954373D1*
Y1682202D1*
G37*
G36*
X2151189D2*
X2136203D1*
Y1692175D1*
X2151189D1*
Y1682202D1*
G37*
G36*
X2260224Y1993343D2*
X2270193D1*
Y1978383D1*
X2260224D1*
Y1993343D1*
G37*
G36*
Y2190186D2*
X2270193D1*
Y2175226D1*
X2260224D1*
Y2190186D1*
G37*
X2216832Y2437072D2*
D10*
X1972117D1*
Y2521445D1*
X2216832D1*
Y2437072D1*
X1881182Y428449D2*
X1581220D1*
Y528454D1*
X1881182D1*
Y428449D1*
X1543682D2*
X1243720D1*
Y528454D1*
X1543682D1*
Y428449D1*
X426088Y1714098D2*
X814508D1*
Y1547021D1*
X426088D1*
Y1714098D1*
Y1514098D2*
X814508D1*
Y1347021D1*
X426088D1*
Y1514098D1*
Y1301598D2*
X814508D1*
Y1134521D1*
X426088D1*
Y1301598D1*
Y1089098D2*
X814508D1*
Y922021D1*
X426088D1*
Y1089098D1*
X484843Y2297146D2*
X591153D1*
X534049Y2041240D2*
G02X534049Y2041240I84652J0D01*
G01*
X539966Y1785335D2*
X484843D1*
Y1789276D2*
Y2297146D1*
X646249D2*
X752559D1*
Y1785335D1*
X701372D1*
X1583347Y2732921D2*
Y2932921D1*
X1783347Y2732921D2*
X1583347D1*
X1783347Y2932921D2*
X1583347D1*
X1783347Y2732921D2*
Y2932921D1*
D22*
X2218701Y2256201D3*
D23*
X482433Y831207D3*
D24*
X480215Y756282D3*
X2593701Y799717D2*
D25*
X2693701D1*
X2593003Y1263393D2*
X2705503D1*
X1425535Y871689D2*
D93*
Y872640D1*
X1426486Y874563D1*
X1427436Y875514D1*
X1429360Y876464D1*
X1433184D1*
X1435086Y875514D1*
X1436036Y874563D1*
X1437009Y872640D1*
Y870738D1*
X1436036Y868815D1*
X1434135Y865963D1*
X1424562Y856390D1*
X1437960D1*
X1447009Y876486D2*
Y860215D1*
X1447960Y857363D1*
X1449883Y856390D1*
X1451785D1*
X1444135Y869788D2*
X1450834D1*
X1462736D2*
X1460834Y868837D1*
X1458911Y866914D1*
X1457960Y864040D1*
Y862138D1*
X1458911Y859264D1*
X1460834Y857363D1*
X1462736Y856390D1*
X1465610D1*
X1467533Y857363D1*
X1469434Y859264D1*
X1470407Y862138D1*
Y864040D1*
X1469434Y866914D1*
X1467533Y868837D1*
X1465610Y869788D1*
X1462736D1*
X1486156Y856390D2*
Y876464D1*
X1476583Y863089D1*
X1490931D1*
X1497107Y853074D2*
X1515279D1*
X1521455Y876486D2*
Y856390D1*
X1528154D1*
X1531028Y857363D1*
X1532951Y859264D1*
X1533902Y861188D1*
X1534852Y864040D1*
Y868837D1*
X1533902Y871711D1*
X1532951Y873612D1*
X1531028Y875536D1*
X1528154Y876486D1*
X1521455D1*
X1541028Y864040D2*
X1552502D1*
Y865963D1*
X1551551Y867886D1*
X1550601Y868837D1*
X1548677Y869788D1*
X1545803D1*
X1543902Y868837D1*
X1541979Y866914D1*
X1541028Y864040D1*
Y862138D1*
X1541979Y859264D1*
X1543902Y857363D1*
X1545803Y856390D1*
X1548677D1*
X1550601Y857363D1*
X1552502Y859264D1*
X1570174Y866914D2*
X1568250Y868837D1*
X1566327Y869788D1*
X1563475D1*
X1561552Y868837D1*
X1559650Y866914D1*
X1558678Y864040D1*
Y862138D1*
X1559650Y859264D1*
X1561552Y857363D1*
X1563475Y856390D1*
X1566327D1*
X1568250Y857363D1*
X1570174Y859264D1*
X1576349Y872640D2*
X1578273Y873612D1*
X1581147Y876464D1*
Y856390D1*
X1158660Y987974D2*
Y998475D1*
X1166309Y992749D1*
Y995623D1*
X1167260Y997524D1*
X1168210Y998475D1*
X1171084Y999448D1*
X1172986D1*
X1175860Y998475D1*
X1177783Y996574D1*
X1178734Y993700D1*
Y990826D1*
X1177783Y987974D1*
X1176810Y987023D1*
X1174909Y986051D1*
X1158638Y1008498D2*
X1174909Y1008497D1*
X1177761Y1009448D1*
X1178734Y1011371D1*
Y1013273D1*
X1165336Y1005623D2*
Y1012322D1*
Y1024224D2*
X1166287Y1022322D1*
X1168210Y1020399D1*
X1171084Y1019448D1*
X1172986D1*
X1175860Y1020399D1*
X1177761Y1022322D1*
X1178734Y1024224D1*
Y1027098D1*
X1177761Y1029021D1*
X1175860Y1030922D1*
X1172985Y1031895D1*
X1171084D1*
X1168210Y1030922D1*
X1166287Y1029021D1*
X1165336Y1027098D1*
Y1024224D1*
X1158660Y1042846D2*
X1159610Y1039994D1*
X1161512Y1039021D1*
X1163435D1*
X1165336Y1039994D1*
X1166309Y1041895D1*
X1167260Y1045720D1*
X1168210Y1048594D1*
X1170134Y1050495D1*
X1172035Y1051446D1*
X1174909D1*
X1176810Y1050495D1*
X1177783Y1049545D1*
X1178734Y1046671D1*
Y1042846D1*
X1177783Y1039994D1*
X1176810Y1039021D1*
X1174909Y1038071D1*
X1172035D1*
X1170134Y1039021D1*
X1168210Y1040945D1*
X1167260Y1043797D1*
X1166309Y1047621D1*
X1165336Y1049545D1*
X1163435Y1050495D1*
X1161512D1*
X1159610Y1049545D1*
X1158660Y1046671D1*
Y1042846D1*
X1182050Y1057622D2*
Y1075794D1*
X1178734Y1097269D2*
X1158638D1*
X1178734Y1089619D1*
X1158638Y1081970D1*
X1178734D1*
X1165336Y1108220D2*
X1166287Y1106318D1*
X1168210Y1104395D1*
X1171084Y1103444D1*
X1172985D1*
X1175859Y1104395D1*
X1177761Y1106318D1*
X1178734Y1108220D1*
Y1111094D1*
X1177761Y1113017D1*
X1175859Y1114918D1*
X1172985Y1115891D1*
X1171084D1*
X1168210Y1114918D1*
X1166287Y1113017D1*
X1165336Y1111094D1*
Y1108220D1*
X1158638Y1124941D2*
X1174909D1*
X1177761Y1125891D1*
X1178734Y1127815D1*
Y1129716D1*
X1165336Y1122067D2*
Y1128765D1*
Y1140667D2*
X1166287Y1138766D1*
X1168210Y1136842D1*
X1171084Y1135892D1*
X1172985D1*
X1175859Y1136842D1*
X1177761Y1138766D1*
X1178734Y1140667D1*
Y1143541D1*
X1177761Y1145464D1*
X1175859Y1147366D1*
X1172985Y1148338D1*
X1171084D1*
X1168210Y1147366D1*
X1166287Y1145464D1*
X1165336Y1143541D1*
Y1140667D1*
Y1154514D2*
X1178733D1*
X1171084D2*
X1168210Y1155487D1*
X1166287Y1157388D1*
X1165336Y1159312D1*
Y1162186D1*
X1158638Y1168361D2*
X1178733D1*
X1165336Y1174537D2*
X1178733D1*
X1169161D2*
X1166287Y1177411D1*
X1165336Y1179334D1*
Y1182186D1*
X1166287Y1184110D1*
X1169161Y1185060D1*
X1178733D1*
X1033607Y2605410D2*
X1044108D1*
X1038382Y2597761D1*
X1041256D1*
X1043157Y2596810D1*
X1044108Y2595860D1*
X1045081Y2592986D1*
Y2591085D1*
X1044108Y2588211D1*
X1042207Y2586287D1*
X1039333Y2585336D1*
X1036459D1*
X1033607Y2586287D1*
X1032656Y2587260D1*
X1031683Y2589161D1*
X1051256Y2605432D2*
X1058906Y2585336D1*
X1066555Y2605432D1*
X1074654Y2605410D2*
X1085155D1*
X1079429Y2597761D1*
X1082303D1*
X1084205Y2596810D1*
X1085155Y2595860D1*
X1086128Y2592986D1*
Y2591085D1*
X1085155Y2588211D1*
X1083254Y2586287D1*
X1080380Y2585336D1*
X1077506D1*
X1074654Y2586287D1*
X1073703Y2587260D1*
X1072731Y2589161D1*
X1092304Y2595860D2*
X1100904D1*
X1103778Y2596833D1*
X1104750Y2597783D1*
X1105701Y2599684D1*
Y2601608D1*
X1104750Y2603509D1*
X1103778Y2604482D1*
X1100904Y2605432D1*
X1092304D1*
Y2585336D1*
X1099002Y2595860D2*
X1105701Y2585336D1*
X1111877Y2592986D2*
X1123351D1*
Y2594909D1*
X1122400Y2596833D1*
X1121449Y2597783D1*
X1119526Y2598734D1*
X1116652D1*
X1114751Y2597783D1*
X1112827Y2595860D1*
X1111877Y2592986D1*
Y2591085D1*
X1112827Y2588211D1*
X1114751Y2586309D1*
X1116652Y2585336D1*
X1119526D1*
X1121449Y2586309D1*
X1123351Y2588211D1*
X1141000Y2597783D2*
Y2582462D1*
X1140050Y2579611D1*
X1139099Y2578638D1*
X1137176Y2577687D1*
X1134302D1*
X1132400Y2578638D1*
X1141000Y2594909D2*
X1139099Y2596810D1*
X1137176Y2597783D1*
X1134302D1*
X1132400Y2596810D1*
X1130477Y2594909D1*
X1129526Y2592035D1*
Y2590112D1*
X1130477Y2587260D1*
X1132400Y2585336D1*
X1134302Y2584386D1*
X1137176D1*
X1139099Y2585336D1*
X1141000Y2587260D1*
X1147176Y2601586D2*
X1149099Y2602558D1*
X1151973Y2605410D1*
Y2585336D1*
X617482Y3002223D2*
Y2982127D1*
X626104D1*
X628978Y2983099D1*
X629929Y2984050D1*
X630879Y2985951D1*
Y2988825D1*
X629929Y2990749D1*
X628978Y2991699D1*
X626104Y2992650D1*
X628978Y2993623D1*
X629929Y2994573D1*
X630879Y2996474D1*
Y2998398D1*
X629929Y3000299D1*
X628978Y3001272D1*
X626104Y3002223D1*
X617482D1*
Y2992650D2*
X626104D1*
X652376Y2982127D2*
X644704Y3002223D1*
X637055Y2982127D1*
X639929Y2988825D2*
X649502D1*
X665250Y3002223D2*
Y2982127D1*
X658551Y3002223D2*
X671949D1*
X684823D2*
Y2982127D1*
X678124Y3002223D2*
X691522D1*
X710122D2*
X697697D1*
Y2982127D1*
X710122D1*
X697697Y2992650D2*
X705347D1*
X716298D2*
X724898D1*
X727772Y2993623D1*
X728744Y2994573D1*
X729695Y2996474D1*
Y2998398D1*
X728744Y3000299D1*
X727772Y3001272D1*
X724898Y3002223D1*
X716298D1*
Y2982127D1*
X722996Y2992650D2*
X729695Y2982127D1*
X735871Y3002223D2*
X743520Y2992650D1*
Y2982127D1*
X751169Y3002223D2*
X743520Y2992650D1*
X2069160Y2914773D2*
Y2894677D1*
X2077782D1*
X2080656Y2895650D1*
X2081606Y2896600D1*
X2082557Y2898502D1*
Y2901376D1*
X2081606Y2903299D1*
X2080656Y2904250D1*
X2077782Y2905200D1*
X2080656Y2906173D1*
X2081606Y2907124D1*
X2082557Y2909025D1*
Y2910948D1*
X2081606Y2912850D1*
X2080656Y2913822D1*
X2077782Y2914773D1*
X2069160D1*
Y2905200D2*
X2077782D1*
X2088733Y2914773D2*
Y2894677D1*
X2097355D1*
X2100229Y2895650D1*
X2101179Y2896600D1*
X2102130Y2898502D1*
Y2901376D1*
X2101179Y2903299D1*
X2100229Y2904250D1*
X2097355Y2905200D1*
X2100229Y2906173D1*
X2101179Y2907124D1*
X2102130Y2909025D1*
Y2910948D1*
X2101179Y2912850D1*
X2100229Y2913822D1*
X2097355Y2914773D1*
X2088733D1*
Y2905200D2*
X2097355D1*
X2108306Y2910926D2*
X2110229Y2911899D1*
X2113103Y2914751D1*
Y2894677D1*
X1158169Y2880646D2*
Y2860550D1*
X1166792D1*
X1169666Y2861522D1*
X1170616Y2862473D1*
X1171567Y2864374D1*
Y2867248D1*
X1170616Y2869172D1*
X1169666Y2870122D1*
X1166792Y2871073D1*
X1169666Y2872046D1*
X1170616Y2872996D1*
X1171567Y2874898D1*
Y2876821D1*
X1170616Y2878722D1*
X1169666Y2879695D1*
X1166792Y2880646D1*
X1158169D1*
Y2871073D2*
X1166792D1*
X1177742Y2880646D2*
Y2860550D1*
X1186365D1*
X1189239Y2861522D1*
X1190189Y2862473D1*
X1191140Y2864374D1*
Y2867248D1*
X1190189Y2869172D1*
X1189239Y2870122D1*
X1186365Y2871073D1*
X1189239Y2872046D1*
X1190189Y2872996D1*
X1191140Y2874898D1*
Y2876821D1*
X1190189Y2878722D1*
X1189239Y2879695D1*
X1186365Y2880646D1*
X1177742D1*
Y2871073D2*
X1186365D1*
X1198288Y2875848D2*
Y2876799D1*
X1199239Y2878722D1*
X1200190Y2879673D1*
X1202113Y2880624D1*
X1205938D1*
X1207839Y2879673D1*
X1208789Y2878722D1*
X1209762Y2876799D1*
Y2874898D1*
X1208789Y2872974D1*
X1206888Y2870122D1*
X1197316Y2860550D1*
X1210713D1*
X1476265Y1787360D2*
Y1767264D1*
X1484887D1*
X1487761Y1768237D1*
X1488712Y1769188D1*
X1489663Y1771089D1*
Y1773963D1*
X1488712Y1775886D1*
X1487761Y1776837D1*
X1484887Y1777788D1*
X1487761Y1778760D1*
X1488712Y1779711D1*
X1489663Y1781612D1*
Y1783536D1*
X1488712Y1785437D1*
X1487761Y1786410D1*
X1484887Y1787360D1*
X1476265D1*
Y1777788D2*
X1484887D1*
X1511137Y1767264D2*
Y1787360D1*
X1503488Y1767264D1*
X1495838Y1787360D1*
Y1767264D1*
X1207144Y1838570D2*
Y1818474D1*
X1215766D1*
X1218640Y1819446D1*
X1219591Y1820397D1*
X1220541Y1822298D1*
Y1825172D1*
X1219591Y1827096D1*
X1218640Y1828046D1*
X1215766Y1828997D1*
X1218640Y1829970D1*
X1219591Y1830920D1*
X1220541Y1832822D1*
Y1834745D1*
X1219591Y1836646D1*
X1218640Y1837619D1*
X1215766Y1838570D1*
X1207144D1*
Y1828997D2*
X1215766D1*
X1242016Y1818474D2*
Y1838570D1*
X1234366Y1818474D1*
X1226717Y1838570D1*
Y1818474D1*
X1248191Y1838570D2*
Y1818474D1*
X1254890D1*
X1257764Y1819446D1*
X1259687Y1821348D1*
X1260638Y1823271D1*
X1261589Y1826123D1*
Y1830920D1*
X1260638Y1833794D1*
X1259687Y1835696D1*
X1257764Y1837619D1*
X1254890Y1838570D1*
X1248191D1*
X1395220Y717435D2*
X1394270Y719337D1*
X1392346Y721260D1*
X1390445Y722211D1*
X1386621D1*
X1384697Y721260D1*
X1382796Y719337D1*
X1381823Y717435D1*
X1380872Y714561D1*
Y709764D1*
X1381823Y706912D1*
X1382796Y704989D1*
X1384697Y703087D1*
X1386621Y702115D1*
X1390445D1*
X1392346Y703087D1*
X1394270Y704989D1*
X1395220Y706912D1*
X1401396Y718364D2*
X1403320Y719337D1*
X1406194Y722189D1*
Y702115D1*
X1401355Y1080476D2*
X1399454Y1079525D1*
X1397530Y1077602D1*
X1396580Y1075700D1*
Y1071876D1*
X1397530Y1069952D1*
X1399454Y1068051D1*
X1401355Y1067078D1*
X1404229Y1066128D1*
X1409026D1*
X1411878Y1067078D1*
X1413802Y1068051D1*
X1415703Y1069952D1*
X1416676Y1071876D1*
Y1075700D1*
X1415703Y1077602D1*
X1413802Y1079525D1*
X1411878Y1080476D1*
X1401377Y1087624D2*
X1400427D1*
X1398503Y1088575D1*
X1397553Y1089525D1*
X1396602Y1091449D1*
Y1095273D1*
X1397553Y1097175D1*
X1398503Y1098125D1*
X1400427Y1099098D1*
X1402328D1*
X1404251Y1098125D1*
X1407103Y1096224D1*
X1416676Y1086651D1*
Y1100049D1*
X1631959Y2299565D2*
X1630057Y2298614D1*
X1628134Y2296691D1*
X1627183Y2294790D1*
Y2290965D1*
X1628134Y2289042D1*
X1630057Y2287140D1*
X1631959Y2286168D1*
X1634833Y2285217D1*
X1639630D1*
X1642482Y2286168D1*
X1644405Y2287140D1*
X1646307Y2289042D1*
X1647279Y2290965D1*
Y2294790D1*
X1646307Y2296691D1*
X1644405Y2298614D1*
X1642482Y2299565D1*
X1627206Y2317215D2*
Y2307664D1*
X1635806Y2306713D1*
X1634855Y2307664D1*
X1633882Y2310538D1*
Y2313390D1*
X1634855Y2316264D1*
X1636756Y2318187D1*
X1639630Y2319138D1*
X1641531D1*
X1644405Y2318187D1*
X1646329Y2316264D1*
X1647279Y2313390D1*
Y2310538D1*
X1646329Y2307664D1*
X1645356Y2306713D1*
X1643455Y2305741D1*
X2350039Y1987900D2*
X2349089Y1989801D1*
X2347165Y1991725D1*
X2345264Y1992675D1*
X2341439D1*
X2339516Y1991725D1*
X2337615Y1989801D1*
X2336642Y1987900D1*
X2335691Y1985026D1*
Y1980229D1*
X2336642Y1977377D1*
X2337615Y1975453D1*
X2339516Y1973552D1*
X2341439Y1972579D1*
X2345264D1*
X2347165Y1973552D1*
X2349089Y1975453D1*
X2350039Y1977377D1*
X2367689Y1989801D2*
X2366738Y1991703D1*
X2363864Y1992653D1*
X2361963D1*
X2359089Y1991703D1*
X2357166Y1988829D1*
X2356215Y1984053D1*
Y1979278D1*
X2357166Y1975453D1*
X2359089Y1973530D1*
X2361963Y1972579D1*
X2362914D1*
X2365766Y1973530D1*
X2367689Y1975453D1*
X2368640Y1978327D1*
Y1979278D1*
X2367689Y1982152D1*
X2365766Y1984053D1*
X2362914Y1985004D1*
X2361963D1*
X2359089Y1984053D1*
X2357166Y1982152D1*
X2356215Y1979278D1*
X2349553Y1937900D2*
X2348602Y1939801D1*
X2346679Y1941725D1*
X2344778Y1942675D1*
X2340953D1*
X2339030Y1941725D1*
X2337128Y1939801D1*
X2336156Y1937900D1*
X2335205Y1935026D1*
Y1930229D1*
X2336156Y1927377D1*
X2337128Y1925453D1*
X2339030Y1923552D1*
X2340953Y1922579D1*
X2344778D1*
X2346679Y1923552D1*
X2348602Y1925453D1*
X2349553Y1927377D1*
X2359553Y1922579D2*
X2369126Y1942653D1*
X2355729D1*
X2383678Y2226614D2*
X2382728Y2228515D1*
X2380804Y2230439D1*
X2378903Y2231389D1*
X2375078D1*
X2373155Y2230439D1*
X2371254Y2228515D1*
X2370281Y2226614D1*
X2369330Y2223740D1*
Y2218942D1*
X2370281Y2216091D1*
X2371254Y2214167D1*
X2373155Y2212266D1*
X2375078Y2211293D1*
X2378903D1*
X2380804Y2212266D1*
X2382728Y2214167D1*
X2383678Y2216091D1*
X2394629Y2231367D2*
X2391777Y2230416D1*
X2390805Y2228515D1*
Y2226592D1*
X2391777Y2224691D1*
X2393679Y2223718D1*
X2397503Y2222767D1*
X2400377Y2221816D1*
X2402279Y2219893D1*
X2403229Y2217992D1*
Y2215118D1*
X2402279Y2213217D1*
X2401328Y2212244D1*
X2398454Y2211293D1*
X2394629D1*
X2391777Y2212244D1*
X2390805Y2213217D1*
X2389854Y2215118D1*
Y2217992D1*
X2390805Y2219893D1*
X2392728Y2221816D1*
X2395580Y2222767D1*
X2399405Y2223718D1*
X2401328Y2224691D1*
X2402279Y2226592D1*
Y2228515D1*
X2401328Y2230416D1*
X2398454Y2231367D1*
X2394629D1*
X2125343Y1034758D2*
X2124393Y1036660D1*
X2122469Y1038583D1*
X2120568Y1039534D1*
X2116743D1*
X2114820Y1038583D1*
X2112919Y1036660D1*
X2111946Y1034758D1*
X2110995Y1031884D1*
Y1027087D1*
X2111946Y1024235D1*
X2112919Y1022312D1*
X2114820Y1020410D1*
X2116743Y1019438D1*
X2120568D1*
X2122469Y1020410D1*
X2124393Y1022312D1*
X2125343Y1024235D1*
X2143966Y1032835D2*
X2142993Y1029961D1*
X2141092Y1028037D1*
X2138218Y1027087D1*
X2137267D1*
X2134393Y1028037D1*
X2132492Y1029961D1*
X2131519Y1032835D1*
Y1033786D1*
X2132492Y1036660D1*
X2134393Y1038561D1*
X2137267Y1039511D1*
X2138218D1*
X2141092Y1038561D1*
X2142993Y1036660D1*
X2143966Y1032835D1*
Y1028037D1*
X2142993Y1023262D1*
X2141092Y1020388D1*
X2138218Y1019438D1*
X2136316D1*
X2133442Y1020388D1*
X2132492Y1022312D1*
X1830370Y2550013D2*
X1829419Y2551914D1*
X1827496Y2553837D1*
X1825594Y2554788D1*
X1821770D1*
X1819846Y2553837D1*
X1817945Y2551914D1*
X1816972Y2550013D1*
X1816022Y2547139D1*
Y2542341D1*
X1816972Y2539490D1*
X1817945Y2537566D1*
X1819846Y2535665D1*
X1821770Y2534692D1*
X1825594D1*
X1827496Y2535665D1*
X1829419Y2537566D1*
X1830370Y2539490D1*
X1836545Y2550941D2*
X1838469Y2551914D1*
X1841343Y2554766D1*
Y2534692D1*
X1853266Y2554766D2*
X1850392Y2553815D1*
X1848469Y2550941D1*
X1847518Y2546166D1*
Y2543292D1*
X1848469Y2538517D1*
X1850392Y2535643D1*
X1853266Y2534692D1*
X1855168D1*
X1858042Y2535643D1*
X1859943Y2538517D1*
X1860916Y2543292D1*
Y2546166D1*
X1859943Y2550941D1*
X1858042Y2553815D1*
X1855168Y2554766D1*
X1853266D1*
X1859943Y2550941D2*
X1848469Y2538517D1*
X1834462Y2494300D2*
X1833512Y2496202D1*
X1831588Y2498125D1*
X1829687Y2499076D1*
X1825862D1*
X1823939Y2498125D1*
X1822038Y2496202D1*
X1821065Y2494300D1*
X1820114Y2491426D1*
Y2486629D1*
X1821065Y2483777D1*
X1822038Y2481854D1*
X1823939Y2479952D1*
X1825862Y2478980D1*
X1829687D1*
X1831588Y2479952D1*
X1833512Y2481854D1*
X1834462Y2483777D1*
X1840638Y2495229D2*
X1842561Y2496202D1*
X1845435Y2499053D1*
Y2478980D1*
X1851611Y2495229D2*
X1853534Y2496202D1*
X1856408Y2499053D1*
Y2478980D1*
X2237002Y854214D2*
X2235101Y853263D1*
X2233177Y851340D1*
X2232227Y849438D1*
Y845614D1*
X2233177Y843690D1*
X2235101Y841789D1*
X2237002Y840816D1*
X2239876Y839866D1*
X2244673D1*
X2247525Y840816D1*
X2249449Y841789D1*
X2251350Y843690D1*
X2252323Y845614D1*
Y849438D1*
X2251350Y851340D1*
X2249449Y853263D1*
X2247525Y854214D1*
X2236074Y860389D2*
X2235101Y862313D1*
X2232249Y865187D1*
X2252323D1*
X2237024Y872335D2*
X2236074D1*
X2234150Y873286D1*
X2233200Y874236D1*
X2232249Y876160D1*
Y879984D1*
X2233200Y881886D1*
X2234150Y882836D1*
X2236074Y883809D1*
X2237975D1*
X2239898Y882836D1*
X2242750Y880935D1*
X2252323Y871362D1*
Y884760D1*
X973401Y1988384D2*
X972450Y1990286D1*
X970527Y1992209D1*
X968626Y1993160D1*
X964801D1*
X962878Y1992209D1*
X960977Y1990286D1*
X960004Y1988384D1*
X959053Y1985510D1*
Y1980713D1*
X960004Y1977861D1*
X960977Y1975938D1*
X962878Y1974036D1*
X964801Y1973064D1*
X968626D1*
X970527Y1974036D1*
X972450Y1975938D1*
X973401Y1977861D1*
X979577Y1989313D2*
X981500Y1990286D1*
X984374Y1993137D1*
Y1973064D1*
X992473Y1993137D2*
X1002975D1*
X997249Y1985488D1*
X1000123D1*
X1002024Y1984537D1*
X1002975Y1983587D1*
X1003947Y1980713D1*
Y1978812D1*
X1002975Y1975938D1*
X1001073Y1974014D1*
X998199Y1973064D1*
X995325D1*
X992473Y1974014D1*
X991523Y1974987D1*
X990550Y1976888D1*
X1143469Y1952610D2*
X1142518Y1954511D1*
X1140595Y1956435D1*
X1138694Y1957385D1*
X1134869D1*
X1132946Y1956435D1*
X1131045Y1954511D1*
X1130072Y1952610D1*
X1129121Y1949736D1*
Y1944939D1*
X1130072Y1942087D1*
X1131045Y1940163D1*
X1132946Y1938262D1*
X1134869Y1937289D1*
X1138694D1*
X1140595Y1938262D1*
X1142518Y1940163D1*
X1143469Y1942087D1*
X1149645Y1953538D2*
X1151568Y1954511D1*
X1154442Y1957363D1*
Y1937289D1*
X1170191D2*
Y1957363D1*
X1160618Y1943988D1*
X1174966D1*
X2123102Y1295823D2*
X2122151Y1297724D1*
X2120228Y1299647D1*
X2118327Y1300598D1*
X2114502D1*
X2112579Y1299647D1*
X2110677Y1297724D1*
X2109705Y1295823D1*
X2108754Y1292949D1*
Y1288151D1*
X2109705Y1285299D1*
X2110677Y1283376D1*
X2112579Y1281475D1*
X2114502Y1280502D1*
X2118327D1*
X2120228Y1281475D1*
X2122151Y1283376D1*
X2123102Y1285299D1*
X2129278Y1296751D2*
X2131201Y1297724D1*
X2134075Y1300576D1*
Y1280502D1*
X2151725Y1300576D2*
X2142174D1*
X2141223Y1291976D1*
X2142174Y1292926D1*
X2145048Y1293899D1*
X2147900D1*
X2150774Y1292926D1*
X2152697Y1291025D1*
X2153648Y1288151D1*
Y1286250D1*
X2152697Y1283376D1*
X2150774Y1281452D1*
X2147900Y1280502D1*
X2145048D1*
X2142174Y1281452D1*
X2141223Y1282425D1*
X2140251Y1284326D1*
X2215919Y1180359D2*
X2214018Y1179408D1*
X2212095Y1177485D1*
X2211144Y1175583D1*
Y1171759D1*
X2212095Y1169835D1*
X2214018Y1167934D1*
X2215919Y1166961D1*
X2218793Y1166011D1*
X2223591D1*
X2226443Y1166961D1*
X2228366Y1167934D1*
X2230267Y1169835D1*
X2231240Y1171759D1*
Y1175583D1*
X2230267Y1177485D1*
X2228366Y1179408D1*
X2226443Y1180359D1*
X2214991Y1186534D2*
X2214018Y1188458D1*
X2211166Y1191332D1*
X2231240D1*
X2214018Y1208981D2*
X2212117Y1208031D1*
X2211166Y1205157D1*
Y1203256D1*
X2212117Y1200381D1*
X2214991Y1198458D1*
X2219766Y1197507D1*
X2224541D1*
X2228366Y1198458D1*
X2230289Y1200381D1*
X2231240Y1203255D1*
Y1204206D1*
X2230289Y1207058D1*
X2228366Y1208981D1*
X2225492Y1209932D1*
X2224541D1*
X2221667Y1208981D1*
X2219766Y1207058D1*
X2218816Y1204206D1*
Y1203255D1*
X2219766Y1200381D1*
X2221667Y1198458D1*
X2224541Y1197507D1*
X971887Y1694903D2*
X970936Y1696804D1*
X969013Y1698727D1*
X967111Y1699678D1*
X963287D1*
X961363Y1698727D1*
X959462Y1696804D1*
X958489Y1694903D1*
X957539Y1692029D1*
Y1687231D1*
X958489Y1684379D1*
X959462Y1682456D1*
X961363Y1680555D1*
X963287Y1679582D1*
X967111D1*
X969013Y1680555D1*
X970936Y1682456D1*
X971887Y1684379D1*
X978062Y1695831D2*
X979986Y1696804D1*
X982860Y1699656D1*
Y1679582D1*
X992860D2*
X1002433Y1699656D1*
X989035D1*
X821375Y1790159D2*
X819474Y1789208D1*
X817550Y1787285D1*
X816599Y1785384D1*
Y1781559D1*
X817550Y1779636D1*
X819473Y1777734D1*
X821375Y1776762D1*
X824249Y1775811D1*
X829046D1*
X831898Y1776762D1*
X833821Y1777734D1*
X835723Y1779636D1*
X836695Y1781559D1*
Y1785384D1*
X835723Y1787285D1*
X833821Y1789208D1*
X831898Y1790159D1*
X820446Y1796335D2*
X819474Y1798258D1*
X816622Y1801132D1*
X836695D1*
X816622Y1812083D2*
X817572Y1809231D1*
X819474Y1808258D1*
X821397D1*
X823298Y1809231D1*
X824271Y1811132D1*
X825222Y1814957D1*
X826172Y1817831D1*
X828096Y1819732D1*
X829997Y1820683D1*
X832871D1*
X834772Y1819732D1*
X835745Y1818782D1*
X836695Y1815908D1*
Y1812083D1*
X835745Y1809231D1*
X834772Y1808258D1*
X832871Y1807308D1*
X829997D1*
X828096Y1808258D1*
X826172Y1810182D1*
X825222Y1813034D1*
X824271Y1816858D1*
X823298Y1818782D1*
X821397Y1819732D1*
X819474D1*
X817572Y1818782D1*
X816622Y1815908D1*
Y1812083D1*
X1112384Y2208861D2*
X1111434Y2210762D1*
X1109510Y2212685D1*
X1107609Y2213636D1*
X1103784D1*
X1101861Y2212685D1*
X1099960Y2210762D1*
X1098987Y2208861D1*
X1098036Y2205987D1*
Y2201189D1*
X1098987Y2198337D1*
X1099960Y2196414D1*
X1101861Y2194513D1*
X1103784Y2193540D1*
X1107609D1*
X1109510Y2194513D1*
X1111434Y2196414D1*
X1112384Y2198337D1*
X1118560Y2209789D2*
X1120483Y2210762D1*
X1123357Y2213614D1*
Y2193540D1*
X1141980Y2206937D2*
X1141007Y2204063D1*
X1139106Y2202140D1*
X1136232Y2201189D1*
X1135281D1*
X1132407Y2202140D1*
X1130506Y2204063D1*
X1129533Y2206937D1*
Y2207888D1*
X1130506Y2210762D1*
X1132407Y2212663D1*
X1135281Y2213614D1*
X1136232D1*
X1139106Y2212663D1*
X1141007Y2210762D1*
X1141980Y2206937D1*
Y2202140D1*
X1141007Y2197365D1*
X1139106Y2194491D1*
X1136232Y2193540D1*
X1134331D1*
X1131456Y2194491D1*
X1130506Y2196414D1*
X838290Y2349181D2*
X837340Y2351082D1*
X835416Y2353005D1*
X833515Y2353956D1*
X829690D1*
X827767Y2353005D1*
X825866Y2351082D1*
X824893Y2349181D1*
X823942Y2346307D1*
Y2341509D1*
X824893Y2338658D1*
X825866Y2336734D1*
X827767Y2334833D1*
X829690Y2333860D1*
X833515D1*
X835416Y2334833D1*
X837340Y2336734D1*
X838290Y2338658D1*
X845439Y2349159D2*
Y2350109D1*
X846389Y2352033D1*
X847340Y2352983D1*
X849263Y2353934D1*
X853088D1*
X854989Y2352983D1*
X855940Y2352033D1*
X856913Y2350109D1*
Y2348208D1*
X855940Y2346285D1*
X854039Y2343433D1*
X844466Y2333860D1*
X857863D1*
X869787Y2353934D2*
X866913Y2352983D1*
X864990Y2350109D1*
X864039Y2345334D1*
Y2342460D1*
X864990Y2337685D1*
X866913Y2334811D1*
X869787Y2333860D1*
X871688D1*
X874562Y2334811D1*
X876463Y2337685D1*
X877436Y2342460D1*
Y2345334D1*
X876463Y2350109D1*
X874562Y2352983D1*
X871688Y2353934D1*
X869787D1*
X876463Y2350109D2*
X864990Y2337685D1*
X1578443Y2295008D2*
X1576542Y2294057D1*
X1574618Y2292134D1*
X1573668Y2290232D1*
Y2286408D1*
X1574618Y2284484D1*
X1576542Y2282583D1*
X1578443Y2281610D1*
X1581317Y2280660D1*
X1586114D1*
X1588966Y2281610D1*
X1590890Y2282583D1*
X1592791Y2284484D1*
X1593764Y2286408D1*
Y2290232D1*
X1592791Y2292133D1*
X1590890Y2294057D1*
X1588966Y2295007D1*
X1578465Y2302156D2*
X1577514D1*
X1575591Y2303107D1*
X1574640Y2304057D1*
X1573690Y2305981D1*
Y2309805D1*
X1574640Y2311707D1*
X1575591Y2312657D1*
X1577514Y2313630D1*
X1579416D1*
X1581339Y2312657D1*
X1584191Y2310756D1*
X1593764Y2301183D1*
Y2314580D1*
X1577514Y2320756D2*
X1576542Y2322680D1*
X1573690Y2325554D1*
X1593764D1*
X1908478Y1616120D2*
X1906577Y1615169D1*
X1904654Y1613246D1*
X1903703Y1611344D1*
Y1607520D1*
X1904654Y1605596D1*
X1906577Y1603695D1*
X1908478Y1602722D1*
X1911352Y1601772D1*
X1916150D1*
X1919002Y1602722D1*
X1920925Y1603695D1*
X1922826Y1605596D1*
X1923799Y1607520D1*
Y1611344D1*
X1922826Y1613246D1*
X1920925Y1615169D1*
X1919002Y1616120D1*
X1908501Y1623268D2*
X1907550D1*
X1905627Y1624219D1*
X1904676Y1625169D1*
X1903725Y1627093D1*
Y1630917D1*
X1904676Y1632819D1*
X1905627Y1633769D1*
X1907550Y1634742D1*
X1909451D1*
X1911375Y1633769D1*
X1914226Y1631868D1*
X1923799Y1622295D1*
Y1635693D1*
X1908501Y1642841D2*
X1907550D1*
X1905627Y1643792D1*
X1904676Y1644742D1*
X1903725Y1646666D1*
Y1650490D1*
X1904676Y1652392D1*
X1905627Y1653342D1*
X1907550Y1654315D1*
X1909451D1*
X1911375Y1653342D1*
X1914226Y1651441D1*
X1923799Y1641868D1*
Y1655266D1*
X1495505Y2452535D2*
X1494555Y2454436D1*
X1492631Y2456360D1*
X1490730Y2457310D1*
X1486905D1*
X1484982Y2456360D1*
X1483081Y2454436D1*
X1482108Y2452535D1*
X1481157Y2449661D1*
Y2444864D1*
X1482108Y2442012D1*
X1483081Y2440088D1*
X1484982Y2438187D1*
X1486905Y2437214D1*
X1490730D1*
X1492631Y2438187D1*
X1494555Y2440088D1*
X1495505Y2442012D1*
X1502654Y2452513D2*
Y2453464D1*
X1503604Y2455387D1*
X1504555Y2456338D1*
X1506478Y2457288D1*
X1510303D1*
X1512204Y2456338D1*
X1513155Y2455387D1*
X1514128Y2453464D1*
Y2451562D1*
X1513155Y2449639D1*
X1511254Y2446787D1*
X1501681Y2437214D1*
X1515078D1*
X1523177Y2457288D2*
X1533679D1*
X1527953Y2449639D1*
X1530827D1*
X1532728Y2448688D1*
X1533679Y2447738D1*
X1534651Y2444864D1*
Y2442962D1*
X1533679Y2440088D1*
X1531777Y2438165D1*
X1528903Y2437214D1*
X1526029D1*
X1523177Y2438165D1*
X1522227Y2439138D1*
X1521254Y2441039D1*
X2302451Y2538231D2*
X2301501Y2540132D1*
X2299577Y2542055D1*
X2297676Y2543006D1*
X2293851D1*
X2291928Y2542055D1*
X2290027Y2540132D1*
X2289054Y2538231D1*
X2288103Y2535357D1*
Y2530559D1*
X2289054Y2527707D1*
X2290027Y2525784D1*
X2291928Y2523883D1*
X2293851Y2522910D1*
X2297676D1*
X2299577Y2523883D1*
X2301501Y2525784D1*
X2302451Y2527707D1*
X2309600Y2538209D2*
Y2539159D1*
X2310550Y2541083D1*
X2311501Y2542033D1*
X2313424Y2542984D1*
X2317249D1*
X2319150Y2542033D1*
X2320101Y2541083D1*
X2321074Y2539159D1*
Y2537258D1*
X2320101Y2535335D1*
X2318200Y2532483D1*
X2308627Y2522910D1*
X2322024D1*
X2337773D2*
Y2542984D1*
X2328200Y2529609D1*
X2342548D1*
X2303832Y2483770D2*
X2302881Y2485671D1*
X2300958Y2487595D1*
X2299057Y2488545D1*
X2295232D1*
X2293309Y2487595D1*
X2291408Y2485671D1*
X2290435Y2483770D1*
X2289484Y2480896D1*
Y2476099D1*
X2290435Y2473247D1*
X2291408Y2471323D1*
X2293309Y2469422D1*
X2295232Y2468449D1*
X2299057D1*
X2300958Y2469422D1*
X2302881Y2471323D1*
X2303832Y2473247D1*
X2310981Y2483748D2*
Y2484699D1*
X2311931Y2486622D1*
X2312882Y2487573D1*
X2314805Y2488523D1*
X2318630D1*
X2320531Y2487573D1*
X2321482Y2486622D1*
X2322455Y2484699D1*
Y2482797D1*
X2321482Y2480874D1*
X2319581Y2478022D1*
X2310008Y2468449D1*
X2323405D1*
X2341055Y2488523D2*
X2331504D1*
X2330554Y2479923D1*
X2331504Y2480874D1*
X2334378Y2481847D1*
X2337230D1*
X2340104Y2480874D1*
X2342028Y2478973D1*
X2342978Y2476099D1*
Y2474197D1*
X2342028Y2471323D1*
X2340104Y2469400D1*
X2337230Y2468449D1*
X2334378D1*
X2331504Y2469400D1*
X2330554Y2470373D1*
X2329581Y2472274D1*
X2304683Y2429421D2*
X2303733Y2431322D1*
X2301809Y2433246D1*
X2299908Y2434196D1*
X2296083D1*
X2294160Y2433246D1*
X2292259Y2431322D1*
X2291286Y2429421D1*
X2290335Y2426547D1*
Y2421750D1*
X2291286Y2418898D1*
X2292259Y2416974D1*
X2294160Y2415073D1*
X2296083Y2414100D1*
X2299908D1*
X2301809Y2415073D1*
X2303733Y2416974D1*
X2304683Y2418898D1*
X2311832Y2429399D2*
Y2430350D1*
X2312782Y2432273D1*
X2313733Y2433224D1*
X2315656Y2434174D1*
X2319481D1*
X2321382Y2433224D1*
X2322333Y2432273D1*
X2323306Y2430350D1*
Y2428448D1*
X2322333Y2426525D1*
X2320432Y2423673D1*
X2310859Y2414100D1*
X2324256D1*
X2341906Y2431322D2*
X2340955Y2433224D1*
X2338081Y2434174D1*
X2336180D1*
X2333306Y2433224D1*
X2331383Y2430350D1*
X2330432Y2425574D1*
Y2420799D1*
X2331383Y2416974D1*
X2333306Y2415051D1*
X2336180Y2414100D1*
X2337131D1*
X2339983Y2415051D1*
X2341906Y2416974D1*
X2342857Y2419848D1*
Y2420799D1*
X2341906Y2423673D1*
X2339983Y2425574D1*
X2337131Y2426525D1*
X2336180D1*
X2333306Y2425574D1*
X2331383Y2423673D1*
X2330432Y2420799D1*
X2304458Y2371824D2*
X2303507Y2373725D1*
X2301584Y2375649D1*
X2299683Y2376599D1*
X2295858D1*
X2293935Y2375649D1*
X2292034Y2373725D1*
X2291061Y2371824D1*
X2290110Y2368950D1*
Y2364152D1*
X2291061Y2361301D1*
X2292034Y2359377D1*
X2293935Y2357476D1*
X2295858Y2356503D1*
X2299683D1*
X2301584Y2357476D1*
X2303507Y2359377D1*
X2304458Y2361301D1*
X2311607Y2371802D2*
Y2372752D1*
X2312557Y2374676D1*
X2313508Y2375626D1*
X2315431Y2376577D1*
X2319256D1*
X2321157Y2375626D1*
X2322108Y2374676D1*
X2323081Y2372752D1*
Y2370851D1*
X2322108Y2368928D1*
X2320207Y2366076D1*
X2310634Y2356503D1*
X2324031D1*
X2334032D2*
X2343604Y2376577D1*
X2330207D1*
X1651687Y1787360D2*
X1639240D1*
Y1767264D1*
Y1777788D2*
X1646890D1*
X1673162Y1767264D2*
Y1787360D1*
X1665512Y1767264D1*
X1657863Y1787360D1*
Y1767264D1*
X1834322Y1299596D2*
X1821875D1*
Y1279500D1*
Y1290023D2*
X1829525D1*
X1855796Y1279500D2*
Y1299596D1*
X1848147Y1279500D1*
X1840498Y1299596D1*
Y1279500D1*
X1861972Y1299596D2*
Y1279500D1*
X1868671D1*
X1871545Y1280473D1*
X1873468Y1282374D1*
X1874419Y1284297D1*
X1875369Y1287149D1*
Y1291947D1*
X1874419Y1294821D1*
X1873468Y1296722D1*
X1871545Y1298645D1*
X1868671Y1299596D1*
X1861972D1*
X737252Y551925D2*
Y531829D1*
X743427Y542352D2*
X752027D1*
X754901Y543325D1*
X755874Y544275D1*
X756825Y546177D1*
Y548100D1*
X755874Y550001D1*
X754901Y550974D1*
X752027Y551925D1*
X743427D1*
Y531829D1*
X750126Y542352D2*
X756825Y531829D1*
X763000Y541866D2*
X774054D1*
X792677Y551925D2*
X780230D1*
Y531829D1*
Y542352D2*
X787879D1*
X798852Y551925D2*
Y531829D1*
X810326D1*
X2288123Y550997D2*
Y530901D1*
X2294299Y541424D2*
X2302899D1*
X2305773Y542397D1*
X2306746Y543347D1*
X2307696Y545249D1*
Y547172D1*
X2306746Y549073D1*
X2305773Y550046D1*
X2302899Y550997D1*
X2294299D1*
Y530901D1*
X2300998Y541424D2*
X2307696Y530901D1*
X2313872Y540938D2*
X2324926D1*
X2343548Y550997D2*
X2331102D1*
Y530901D1*
Y541424D2*
X2338751D1*
X2349724D2*
X2358324D1*
X2361198Y542397D1*
X2362171Y543347D1*
X2363121Y545249D1*
Y547172D1*
X2362171Y549073D1*
X2361198Y550046D1*
X2358324Y550997D1*
X2349724D1*
Y530901D1*
X2356423Y541424D2*
X2363121Y530901D1*
X741466Y770670D2*
Y750574D1*
X747641Y761097D2*
X756241D1*
X759115Y762070D1*
X760088Y763021D1*
X761039Y764922D1*
Y766845D1*
X760088Y768747D1*
X759115Y769719D1*
X756241Y770670D1*
X747641D1*
Y750574D1*
X754340Y761097D2*
X761039Y750574D1*
X767214Y760611D2*
X778268D1*
X784444Y770670D2*
Y750574D1*
X795918D1*
X2303004Y759246D2*
Y739150D1*
X2309180Y749673D2*
X2317780D1*
X2320654Y750646D1*
X2321626Y751597D1*
X2322577Y753498D1*
Y755421D1*
X2321626Y757323D1*
X2320654Y758296D1*
X2317780Y759246D1*
X2309180D1*
Y739150D1*
X2315878Y749673D2*
X2322577Y739150D1*
X2328753Y749187D2*
X2339807D1*
X2345982Y749673D2*
X2354582D1*
X2357456Y750646D1*
X2358429Y751597D1*
X2359380Y753498D1*
Y755421D1*
X2358429Y757323D1*
X2357456Y758296D1*
X2354582Y759246D1*
X2345982D1*
Y739150D1*
X2352681Y749673D2*
X2359380Y739150D1*
X1398162Y2959354D2*
Y2944055D1*
X1397212Y2941181D1*
X1396239Y2940230D1*
X1394338Y2939258D1*
X1392414D1*
X1390513Y2940230D1*
X1389562Y2941181D1*
X1388590Y2944055D1*
Y2945956D1*
X1404338Y2955507D2*
X1406261Y2956480D1*
X1409135Y2959332D1*
Y2939258D1*
X2453324Y2760154D2*
Y2740058D1*
X2464798D1*
X2483398Y2760154D2*
X2470974D1*
Y2740058D1*
X2483398D1*
X2470974Y2750582D2*
X2478623D1*
X2489574Y2760154D2*
Y2740058D1*
X2496272D1*
X2499147Y2741031D1*
X2501070Y2742932D1*
X2502021Y2744856D1*
X2502971Y2747708D1*
Y2752505D1*
X2502021Y2755379D1*
X2501070Y2757280D1*
X2499147Y2759204D1*
X2496272Y2760154D1*
X2489574D1*
X2509147Y2756308D2*
X2511070Y2757280D1*
X2513944Y2760132D1*
Y2740058D1*
X2449024Y2872654D2*
Y2852558D1*
X2460498D1*
X2479098Y2872654D2*
X2466674D1*
Y2852558D1*
X2479098D1*
X2466674Y2863082D2*
X2474323D1*
X2485274Y2872654D2*
Y2852558D1*
X2491973D1*
X2494847Y2853531D1*
X2496770Y2855432D1*
X2497721Y2857356D1*
X2498671Y2860208D1*
Y2865005D1*
X2497721Y2867879D1*
X2496770Y2869780D1*
X2494847Y2871704D1*
X2491973Y2872654D1*
X2485274D1*
X2505820Y2867857D2*
Y2868808D1*
X2506770Y2870731D1*
X2507721Y2871682D1*
X2509644Y2872632D1*
X2513469D1*
X2515370Y2871682D1*
X2516321Y2870731D1*
X2517294Y2868808D1*
Y2866906D1*
X2516321Y2864983D1*
X2514420Y2862131D1*
X2504847Y2852558D1*
X2518244D1*
X1262949Y2298663D2*
Y2278567D1*
X1274423D1*
X1293023Y2298663D2*
X1280599D1*
Y2278567D1*
X1293023D1*
X1280599Y2289091D2*
X1288248D1*
X1299199Y2298663D2*
Y2278567D1*
X1305898D1*
X1308772Y2279540D1*
X1310695Y2281441D1*
X1311646Y2283365D1*
X1312596Y2286217D1*
Y2291014D1*
X1311646Y2293888D1*
X1310695Y2295789D1*
X1308772Y2297713D1*
X1305898Y2298663D1*
X1299199D1*
X1320695Y2298641D2*
X1331197D1*
X1325471Y2290992D1*
X1328345D1*
X1330246Y2290041D1*
X1331197Y2289091D1*
X1332169Y2286217D1*
Y2284315D1*
X1331197Y2281441D1*
X1329295Y2279518D1*
X1326421Y2278567D1*
X1323547D1*
X1320695Y2279518D1*
X1319745Y2280491D1*
X1318772Y2282392D1*
X882388Y2906127D2*
Y2886031D1*
X893862D1*
X912463Y2906127D2*
X900038D1*
Y2886031D1*
X912463D1*
X900038Y2896554D2*
X907687D1*
X918638Y2906127D2*
Y2886031D1*
X925337D1*
X928211Y2887003D1*
X930134Y2888905D1*
X931085Y2890828D1*
X932036Y2893680D1*
Y2898477D1*
X931085Y2901351D1*
X930134Y2903253D1*
X928211Y2905176D1*
X925337Y2906127D1*
X918638D1*
X947784Y2886031D2*
Y2906105D1*
X938211Y2892729D1*
X952559D1*
X2449024Y2997654D2*
Y2977558D1*
X2460498D1*
X2479098Y2997654D2*
X2466674D1*
Y2977558D1*
X2479098D1*
X2466674Y2988082D2*
X2474323D1*
X2485274Y2997654D2*
Y2977558D1*
X2491973D1*
X2494847Y2978531D1*
X2496770Y2980432D1*
X2497721Y2982356D1*
X2498671Y2985208D1*
Y2990005D1*
X2497721Y2992879D1*
X2496770Y2994780D1*
X2494847Y2996704D1*
X2491973Y2997654D1*
X2485274D1*
X2516321Y2997632D2*
X2506770D1*
X2505820Y2989032D1*
X2506770Y2989983D1*
X2509644Y2990956D1*
X2512496D1*
X2515370Y2989983D1*
X2517294Y2988082D1*
X2518244Y2985208D1*
Y2983306D1*
X2517294Y2980432D1*
X2515370Y2978509D1*
X2512496Y2977558D1*
X2509644D1*
X2506770Y2978509D1*
X2505820Y2979482D1*
X2504847Y2981383D1*
X1914935Y2347535D2*
Y2367631D1*
X1907285Y2347535D1*
X1899636Y2367631D1*
Y2347535D1*
X1934508Y2364757D2*
X1932606Y2366681D1*
X1929732Y2367631D1*
X1925908D1*
X1923034Y2366681D1*
X1921110Y2364757D1*
Y2362856D1*
X1922083Y2360933D1*
X1923034Y2359982D1*
X1924935Y2359031D1*
X1930683Y2357108D1*
X1932606Y2356157D1*
X1933557Y2355185D1*
X1934508Y2353283D1*
Y2350409D1*
X1932606Y2348508D1*
X1929732Y2347535D1*
X1925908D1*
X1923034Y2348508D1*
X1921110Y2350409D1*
X1940683Y2357108D2*
X1949305D1*
X1952157Y2358059D1*
X1953130Y2359031D1*
X1954081Y2360933D1*
Y2363807D1*
X1953130Y2365708D1*
X1952157Y2366681D1*
X1949305Y2367631D1*
X1940683D1*
Y2347535D1*
X1969829D2*
Y2367609D1*
X1960256Y2354234D1*
X1974604D1*
X1982703Y2367609D2*
X1993205D1*
X1987479Y2359960D1*
X1990353D1*
X1992254Y2359009D1*
X1993205Y2358059D1*
X1994177Y2355185D1*
Y2353283D1*
X1993205Y2350409D1*
X1991303Y2348486D1*
X1988429Y2347535D1*
X1985555D1*
X1982703Y2348486D1*
X1981753Y2349459D1*
X1980780Y2351360D1*
X2006101Y2367609D2*
X2003227Y2366659D1*
X2001304Y2363785D1*
X2000353Y2359009D1*
Y2356135D1*
X2001304Y2351360D1*
X2003227Y2348486D1*
X2006101Y2347535D1*
X2008002D1*
X2010876Y2348486D1*
X2012778Y2351360D1*
X2013750Y2356135D1*
Y2359009D1*
X2012778Y2363785D1*
X2010876Y2366659D1*
X2008002Y2367609D1*
X2006101D1*
X2012778Y2363785D2*
X2001304Y2351360D1*
X2058654Y2555989D2*
X2056753Y2555060D1*
X2054829Y2553137D1*
X2053879Y2551214D1*
X2052906Y2548340D1*
Y2543564D1*
X2053879Y2540690D1*
X2054829Y2538789D1*
X2056753Y2536866D1*
X2058654Y2535915D1*
X2062478D1*
X2064402Y2536866D1*
X2066303Y2538789D1*
X2067254Y2540690D1*
X2068227Y2543564D1*
Y2548340D1*
X2067254Y2551214D1*
X2066303Y2553137D1*
X2064402Y2555060D1*
X2062478Y2555989D1*
X2058654D1*
X2061528Y2539740D2*
X2067254Y2533992D1*
X2074402Y2552142D2*
X2076326Y2553115D1*
X2079200Y2555967D1*
Y2535893D1*
X2373500Y2169425D2*
X2382100D1*
X2384974Y2170398D1*
X2385947Y2171349D1*
X2386897Y2173250D1*
Y2175173D1*
X2385947Y2177075D1*
X2384974Y2178047D1*
X2382100Y2178998D1*
X2373500D1*
Y2158902D1*
X2380199Y2169425D2*
X2386897Y2158902D1*
X2393073Y2175151D2*
X2394996Y2176124D1*
X2397870Y2178976D1*
Y2158902D1*
X816479Y1626161D2*
Y1634761D1*
X815507Y1637635D1*
X814556Y1638607D1*
X812655Y1639558D1*
X810731D1*
X808830Y1638608D1*
X807857Y1637635D1*
X806907Y1634761D1*
Y1626161D1*
X827003D1*
X816479Y1632859D2*
X827003Y1639558D1*
X811704Y1646707D2*
X810753D1*
X808830Y1647657D1*
X807879Y1648608D1*
X806929Y1650531D1*
Y1654356D1*
X807879Y1656257D1*
X808830Y1657208D1*
X810753Y1658180D1*
X812655D1*
X814578Y1657208D1*
X817430Y1655306D1*
X827003Y1645734D1*
Y1659131D1*
X815580Y1431557D2*
Y1440157D1*
X814608Y1443031D1*
X813657Y1444004D1*
X811756Y1444954D1*
X809832D1*
X807931Y1444004D1*
X806958Y1443031D1*
X806008Y1440157D1*
Y1431557D1*
X826104D1*
X815580Y1438256D2*
X826104Y1444954D1*
X806030Y1453054D2*
Y1463555D1*
X813679Y1457829D1*
Y1460703D1*
X814630Y1462604D1*
X815580Y1463555D1*
X818454Y1464527D1*
X820356D1*
X823230Y1463555D1*
X825153Y1461653D1*
X826104Y1458779D1*
Y1455905D1*
X825153Y1453053D1*
X824180Y1452103D1*
X822279Y1451130D1*
X813853Y1218069D2*
Y1226669D1*
X812881Y1229543D1*
X811930Y1230515D1*
X810029Y1231466D1*
X808105D1*
X806204Y1230515D1*
X805231Y1229543D1*
X804281Y1226669D1*
Y1218069D1*
X824377D1*
X813853Y1224767D2*
X824377Y1231466D1*
Y1247214D2*
X804303D1*
X817678Y1237642D1*
Y1251990D1*
X820322Y997282D2*
Y1005881D1*
X819349Y1008755D1*
X818398Y1009728D1*
X816497Y1010679D1*
X814574D1*
X812672Y1009728D1*
X811700Y1008755D1*
X810749Y1005881D1*
Y997282D1*
X830845D1*
X820322Y1003980D2*
X830845Y1010679D1*
X810771Y1028328D2*
Y1018778D1*
X819371Y1017827D1*
X818421Y1018778D1*
X817448Y1021652D1*
Y1024504D1*
X818421Y1027378D1*
X820322Y1029301D1*
X823196Y1030252D1*
X825097D1*
X827971Y1029301D1*
X829894Y1027378D1*
X830845Y1024504D1*
Y1021652D1*
X829894Y1018778D1*
X828922Y1017827D1*
X827020Y1016854D1*
X1287610Y2313979D2*
X1296210D1*
X1299084Y2314952D1*
X1300057Y2315903D1*
X1301008Y2317804D1*
Y2319727D1*
X1300057Y2321629D1*
X1299084Y2322601D1*
X1296210Y2323552D1*
X1287610D1*
Y2303456D1*
X1294309Y2313979D2*
X1301008Y2303456D1*
X1318657Y2320678D2*
X1317707Y2322579D1*
X1314833Y2323530D1*
X1312931D1*
X1310057Y2322579D1*
X1308134Y2319705D1*
X1307183Y2314930D1*
Y2310155D1*
X1308134Y2306330D1*
X1310057Y2304407D1*
X1312931Y2303456D1*
X1313882D1*
X1316734Y2304407D1*
X1318657Y2306330D1*
X1319608Y2309204D1*
Y2310155D1*
X1318657Y2313029D1*
X1316734Y2314930D1*
X1313882Y2315880D1*
X1312931D1*
X1310057Y2314930D1*
X1308134Y2313029D1*
X1307183Y2310155D1*
X2330388Y2732767D2*
X2338988D1*
X2341862Y2733739D1*
X2342834Y2734690D1*
X2343785Y2736591D1*
Y2738515D1*
X2342834Y2740416D1*
X2341862Y2741389D1*
X2338988Y2742339D1*
X2330388D1*
Y2722243D1*
X2337086Y2732767D2*
X2343785Y2722243D1*
X2353785D2*
X2363358Y2742317D1*
X2349961D1*
X2330399Y2845267D2*
X2338999D1*
X2341873Y2846239D1*
X2342845Y2847190D1*
X2343796Y2849091D1*
Y2851015D1*
X2342845Y2852916D1*
X2341873Y2853889D1*
X2338999Y2854839D1*
X2330399D1*
Y2834743D1*
X2337097Y2845267D2*
X2343796Y2834743D1*
X2354747Y2854817D2*
X2351895Y2853867D1*
X2350922Y2851965D1*
Y2850042D1*
X2351895Y2848141D1*
X2353796Y2847168D1*
X2357621Y2846217D1*
X2360495Y2845267D1*
X2362396Y2843343D1*
X2363347Y2841442D1*
Y2838568D1*
X2362396Y2836667D1*
X2361446Y2835694D1*
X2358572Y2834743D1*
X2354747D1*
X2351895Y2835694D1*
X2350922Y2836667D1*
X2349972Y2838568D1*
Y2841442D1*
X2350922Y2843343D1*
X2352846Y2845267D1*
X2355698Y2846217D1*
X2359522Y2847168D1*
X2361446Y2848141D1*
X2362396Y2850042D1*
Y2851965D1*
X2361446Y2853867D1*
X2358572Y2854817D1*
X2354747D1*
X2330863Y2970267D2*
X2339463D1*
X2342337Y2971239D1*
X2343310Y2972190D1*
X2344260Y2974091D1*
Y2976015D1*
X2343310Y2977916D1*
X2342337Y2978889D1*
X2339463Y2979839D1*
X2330863D1*
Y2959743D1*
X2337562Y2970267D2*
X2344260Y2959743D1*
X2362883Y2973141D2*
X2361910Y2970267D1*
X2360009Y2968343D1*
X2357135Y2967393D1*
X2356184D1*
X2353310Y2968343D1*
X2351409Y2970267D1*
X2350436Y2973141D1*
Y2974091D1*
X2351409Y2976965D1*
X2353310Y2978867D1*
X2356184Y2979817D1*
X2357135D1*
X2360009Y2978867D1*
X2361910Y2976965D1*
X2362883Y2973141D1*
Y2968343D1*
X2361910Y2963568D1*
X2360009Y2960694D1*
X2357135Y2959743D1*
X2355233D1*
X2352359Y2960694D1*
X2351409Y2962617D1*
X895766Y2941239D2*
X904366D1*
X907240Y2942212D1*
X908212Y2943162D1*
X909163Y2945064D1*
Y2946987D1*
X908212Y2948888D1*
X907240Y2949861D1*
X904366Y2950812D1*
X895766D1*
Y2930716D1*
X902464Y2941239D2*
X909163Y2930716D1*
X915339Y2946965D2*
X917262Y2947938D1*
X920136Y2950790D1*
Y2930716D1*
X935885D2*
Y2950790D1*
X926312Y2937414D1*
X940660D1*
X896241Y2816239D2*
X904841D1*
X907715Y2817212D1*
X908688Y2818162D1*
X909638Y2820064D1*
Y2821987D1*
X908688Y2823888D1*
X907715Y2824861D1*
X904841Y2825812D1*
X896241D1*
Y2805716D1*
X902940Y2816239D2*
X909638Y2805716D1*
X915814Y2821965D2*
X917737Y2822938D1*
X920612Y2825790D1*
Y2805716D1*
X938261Y2825790D2*
X928711D1*
X927760Y2817190D1*
X928711Y2818140D1*
X931585Y2819113D1*
X934437D1*
X937311Y2818140D1*
X939234Y2816239D1*
X940185Y2813365D1*
Y2811464D1*
X939234Y2808590D1*
X937311Y2806666D1*
X934437Y2805716D1*
X931585D1*
X928711Y2806666D1*
X927760Y2807639D1*
X926787Y2809540D1*
X1670356Y548171D2*
X1678956D1*
X1681830Y549144D1*
X1682802Y550094D1*
X1683753Y551995D1*
Y553919D1*
X1682802Y555820D1*
X1681830Y556793D1*
X1678956Y557744D1*
X1670356D1*
Y537648D1*
X1677054Y548171D2*
X1683753Y537648D1*
X1689929Y545297D2*
X1701403D1*
Y547220D1*
X1700452Y549144D1*
X1699501Y550094D1*
X1697578Y551045D1*
X1694704D1*
X1692803Y550094D1*
X1690879Y548171D1*
X1689929Y545297D1*
Y543396D1*
X1690879Y540522D1*
X1692803Y538620D1*
X1694704Y537648D1*
X1697578D1*
X1699501Y538620D1*
X1701403Y540522D1*
X1715228Y557744D2*
X1713326D1*
X1711403Y556793D1*
X1710452Y553919D1*
Y537648D1*
X1707578Y551045D2*
X1714277D1*
X1721403Y557744D2*
Y537648D1*
X1727579Y545297D2*
X1739053D1*
Y547220D1*
X1738102Y549144D1*
X1737152Y550094D1*
X1735228Y551045D1*
X1732354D1*
X1730453Y550094D1*
X1728530Y548171D1*
X1727579Y545297D1*
Y543396D1*
X1728530Y540522D1*
X1730453Y538620D1*
X1732354Y537648D1*
X1735228D1*
X1737152Y538620D1*
X1739053Y540522D1*
X1756725Y548171D2*
X1754801Y550094D1*
X1752878Y551045D1*
X1750026D1*
X1748103Y550094D1*
X1746202Y548171D1*
X1745229Y545297D1*
Y543396D1*
X1746202Y540522D1*
X1748103Y538620D1*
X1750026Y537648D1*
X1752878D1*
X1754801Y538620D1*
X1756725Y540522D1*
X1765775Y557744D2*
Y541472D1*
X1766725Y538620D1*
X1768649Y537648D1*
X1770550D1*
X1762901Y551045D2*
X1769599D1*
X1792046Y537648D2*
X1784375Y557744D1*
X1776726Y537648D1*
X1779600Y544346D2*
X1789172D1*
X1333817Y548171D2*
X1342417D1*
X1345291Y549144D1*
X1346264Y550094D1*
X1347215Y551995D1*
Y553919D1*
X1346264Y555820D1*
X1345291Y556793D1*
X1342417Y557744D1*
X1333817D1*
Y537648D1*
X1340516Y548171D2*
X1347215Y537648D1*
X1353390Y545297D2*
X1364864D1*
Y547220D1*
X1363914Y549144D1*
X1362963Y550094D1*
X1361040Y551045D1*
X1358166D1*
X1356264Y550094D1*
X1354341Y548171D1*
X1353390Y545297D1*
Y543396D1*
X1354341Y540522D1*
X1356264Y538620D1*
X1358166Y537648D1*
X1361040D1*
X1362963Y538620D1*
X1364864Y540522D1*
X1378689Y557744D2*
X1376788D1*
X1374865Y556793D1*
X1373914Y553919D1*
Y537648D1*
X1371040Y551045D2*
X1377739D1*
X1384865Y557744D2*
Y537648D1*
X1391041Y545297D2*
X1402515D1*
Y547220D1*
X1401564Y549144D1*
X1400614Y550094D1*
X1398690Y551045D1*
X1395816D1*
X1393915Y550094D1*
X1391991Y548171D1*
X1391041Y545297D1*
Y543396D1*
X1391991Y540522D1*
X1393915Y538620D1*
X1395816Y537648D1*
X1398690D1*
X1400614Y538620D1*
X1402515Y540522D1*
X1420187Y548171D2*
X1418263Y550094D1*
X1416340Y551045D1*
X1413488D1*
X1411564Y550094D1*
X1409663Y548171D1*
X1408690Y545297D1*
Y543396D1*
X1409663Y540522D1*
X1411564Y538620D1*
X1413488Y537648D1*
X1416340D1*
X1418263Y538620D1*
X1420187Y540522D1*
X1429236Y557744D2*
Y541472D1*
X1430187Y538620D1*
X1432110Y537648D1*
X1434012D1*
X1426362Y551045D2*
X1433061D1*
X1440187Y557744D2*
Y537648D1*
X1448809D1*
X1451683Y538620D1*
X1452634Y539571D1*
X1453585Y541472D1*
Y544346D1*
X1452634Y546270D1*
X1451683Y547220D1*
X1448809Y548171D1*
X1451683Y549144D1*
X1452634Y550094D1*
X1453585Y551995D1*
Y553919D1*
X1452634Y555820D1*
X1451683Y556793D1*
X1448809Y557744D1*
X1440187D1*
Y548171D2*
X1448809D1*
X621510Y1740513D2*
X619609Y1742437D1*
X616735Y1743387D1*
X612910D1*
X610036Y1742437D1*
X608113Y1740513D1*
Y1738612D1*
X609086Y1736689D1*
X610036Y1735738D1*
X611938Y1734787D1*
X617686Y1732864D1*
X619609Y1731913D1*
X620560Y1730941D1*
X621510Y1729039D1*
Y1726165D1*
X619609Y1724264D1*
X616735Y1723291D1*
X612910D1*
X610036Y1724264D1*
X608113Y1726165D1*
X627686Y1739540D2*
X629609Y1740513D1*
X632483Y1743365D1*
Y1723291D1*
X617210Y1540513D2*
X615309Y1542437D1*
X612435Y1543387D1*
X608610D1*
X605736Y1542437D1*
X603813Y1540513D1*
Y1538612D1*
X604786Y1536689D1*
X605736Y1535738D1*
X607638Y1534787D1*
X613386Y1532864D1*
X615309Y1531913D1*
X616260Y1530941D1*
X617210Y1529039D1*
Y1526165D1*
X615309Y1524264D1*
X612435Y1523291D1*
X608610D1*
X605736Y1524264D1*
X603813Y1526165D1*
X624359Y1538590D2*
Y1539540D1*
X625309Y1541464D1*
X626260Y1542414D1*
X628183Y1543365D1*
X632008D1*
X633909Y1542414D1*
X634860Y1541464D1*
X635833Y1539540D1*
Y1537639D1*
X634860Y1535716D1*
X632959Y1532864D1*
X623386Y1523291D1*
X636783D1*
X617210Y1328013D2*
X615309Y1329937D1*
X612435Y1330887D1*
X608610D1*
X605736Y1329937D1*
X603813Y1328013D1*
Y1326112D1*
X604786Y1324189D1*
X605736Y1323238D1*
X607638Y1322287D1*
X613386Y1320364D1*
X615309Y1319413D1*
X616260Y1318441D1*
X617210Y1316539D1*
Y1313665D1*
X615309Y1311764D1*
X612435Y1310791D1*
X608610D1*
X605736Y1311764D1*
X603813Y1313665D1*
X625309Y1330865D2*
X635811D1*
X630085Y1323216D1*
X632959D1*
X634860Y1322265D1*
X635811Y1321315D1*
X636783Y1318441D1*
Y1316539D1*
X635811Y1313665D1*
X633909Y1311742D1*
X631035Y1310791D1*
X628161D1*
X625309Y1311742D1*
X624359Y1312715D1*
X623386Y1314616D1*
X616735Y1115513D2*
X614834Y1117437D1*
X611960Y1118387D1*
X608135D1*
X605261Y1117437D1*
X603338Y1115513D1*
Y1113612D1*
X604310Y1111689D1*
X605261Y1110738D1*
X607162Y1109787D1*
X612910Y1107864D1*
X614834Y1106913D1*
X615784Y1105941D1*
X616735Y1104039D1*
Y1101165D1*
X614834Y1099264D1*
X611960Y1098291D1*
X608135D1*
X605261Y1099264D1*
X603338Y1101165D1*
X632483Y1098291D2*
Y1118365D1*
X622911Y1104990D1*
X637259D1*
X615613Y2323561D2*
X613712Y2325484D1*
X610838Y2326435D1*
X607013D1*
X604139Y2325484D1*
X602216Y2323561D1*
Y2321660D1*
X603189Y2319736D1*
X604139Y2318786D1*
X606040Y2317835D1*
X611788Y2315912D1*
X613712Y2314961D1*
X614663Y2313988D1*
X615613Y2312087D1*
Y2309213D1*
X613712Y2307312D1*
X610838Y2306339D1*
X607013D1*
X604139Y2307312D1*
X602216Y2309213D1*
X633263Y2326413D2*
X623712D1*
X622762Y2317813D1*
X623712Y2318764D1*
X626586Y2319736D1*
X629438D1*
X632312Y2318764D1*
X634236Y2316862D1*
X635186Y2313988D1*
Y2312087D1*
X634236Y2309213D1*
X632312Y2307290D1*
X629438Y2306339D1*
X626586D1*
X623712Y2307290D1*
X622762Y2308262D1*
X621789Y2310164D1*
X1667598Y2959337D2*
X1665697Y2961260D1*
X1662823Y2962211D1*
X1658998D1*
X1656124Y2961260D1*
X1654201Y2959337D1*
Y2957435D1*
X1655174Y2955512D1*
X1656124Y2954561D1*
X1658026Y2953611D1*
X1663774Y2951687D1*
X1665697Y2950737D1*
X1666648Y2949764D1*
X1667598Y2947863D1*
Y2944989D1*
X1665697Y2943087D1*
X1662823Y2942115D1*
X1658998D1*
X1656124Y2943087D1*
X1654201Y2944989D1*
X1673774Y2962211D2*
Y2942115D1*
X1682396D1*
X1685270Y2943087D1*
X1686221Y2944038D1*
X1687171Y2945939D1*
Y2948813D1*
X1686221Y2950737D1*
X1685270Y2951687D1*
X1682396Y2952638D1*
X1685270Y2953611D1*
X1686221Y2954561D1*
X1687171Y2956463D1*
Y2958386D1*
X1686221Y2960287D1*
X1685270Y2961260D1*
X1682396Y2962211D1*
X1673774D1*
Y2952638D2*
X1682396D1*
X1693347Y2962211D2*
X1698144Y2942115D1*
X1702920Y2962211D1*
X1707695Y2942115D1*
X1712492Y2962211D1*
X2579460Y2954556D2*
X2559364D1*
X2576586D2*
X2578488Y2952633D1*
X2579460Y2950731D1*
Y2947857D1*
X2578488Y2945934D1*
X2576586Y2944033D1*
X2573712Y2943060D1*
X2571789D1*
X2568937Y2944033D1*
X2567014Y2945934D1*
X2566063Y2947857D1*
Y2950731D1*
X2567014Y2952633D1*
X2568937Y2954556D1*
X2586137Y2932109D2*
X2585186Y2934961D1*
X2583285Y2935934D1*
X2581362D1*
X2579460Y2934961D1*
X2578488Y2933060D1*
X2577537Y2929235D1*
X2576586Y2926361D1*
X2574663Y2924460D1*
X2572762Y2923509D1*
X2569888D1*
X2567986Y2924460D1*
X2567014Y2925410D1*
X2566063Y2928284D1*
Y2932109D1*
X2567014Y2934961D1*
X2567986Y2935934D1*
X2569888Y2936884D1*
X2572762D1*
X2574663Y2935934D1*
X2576586Y2934010D1*
X2577537Y2931158D1*
X2578488Y2927334D1*
X2579460Y2925410D1*
X2581362Y2924460D1*
X2583285D1*
X2585186Y2925410D1*
X2586137Y2928284D1*
Y2932109D1*
X2567986Y2916383D2*
X2567014Y2917333D1*
X2566063Y2916383D1*
X2567014Y2915410D1*
X2567986Y2916383D1*
X2581362Y2908261D2*
X2582312D1*
X2584236Y2907311D1*
X2585186Y2906360D1*
X2586137Y2904437D1*
Y2900612D1*
X2585186Y2898711D1*
X2584236Y2897760D1*
X2582312Y2896788D1*
X2580411D1*
X2578488Y2897760D1*
X2575636Y2899662D1*
X2566063Y2909234D1*
Y2895837D1*
X2579460Y2829410D2*
X2559364D1*
X2576586D2*
X2578488Y2827487D1*
X2579460Y2825586D1*
Y2822712D1*
X2578488Y2820788D1*
X2576586Y2818887D1*
X2573712Y2817914D1*
X2571789D1*
X2568937Y2818887D1*
X2567014Y2820788D1*
X2566063Y2822712D1*
Y2825586D1*
X2567014Y2827487D1*
X2568937Y2829410D1*
X2586137Y2806963D2*
X2585186Y2809815D1*
X2583285Y2810788D1*
X2581362D1*
X2579460Y2809815D1*
X2578488Y2807914D1*
X2577537Y2804089D1*
X2576586Y2801215D1*
X2574663Y2799314D1*
X2572762Y2798363D1*
X2569888D1*
X2567986Y2799314D1*
X2567014Y2800265D1*
X2566063Y2803139D1*
Y2806963D1*
X2567014Y2809815D1*
X2567986Y2810788D1*
X2569888Y2811739D1*
X2572762D1*
X2574663Y2810788D1*
X2576586Y2808865D1*
X2577537Y2806013D1*
X2578488Y2802188D1*
X2579460Y2800265D1*
X2581362Y2799314D1*
X2583285D1*
X2585186Y2800265D1*
X2586137Y2803139D1*
Y2806963D1*
X2567986Y2791237D2*
X2567014Y2792188D1*
X2566063Y2791237D1*
X2567014Y2790264D1*
X2567986Y2791237D1*
X2582312Y2784089D2*
X2583285Y2782165D1*
X2586137Y2779291D1*
X2566063D1*
X2579460Y2723856D2*
X2559364D1*
X2576586D2*
X2578488Y2721933D1*
X2579460Y2720032D1*
Y2717158D1*
X2578488Y2715234D1*
X2576586Y2713333D1*
X2573712Y2712360D1*
X2571789D1*
X2568937Y2713333D1*
X2567014Y2715234D1*
X2566063Y2717158D1*
Y2720032D1*
X2567014Y2721933D1*
X2568937Y2723856D1*
X2586137Y2701409D2*
X2585186Y2704261D1*
X2583285Y2705234D1*
X2581362D1*
X2579460Y2704261D1*
X2578488Y2702360D1*
X2577537Y2698535D1*
X2576586Y2695661D1*
X2574663Y2693760D1*
X2572762Y2692810D1*
X2569888D1*
X2567986Y2693760D1*
X2567014Y2694711D1*
X2566063Y2697585D1*
Y2701409D1*
X2567014Y2704261D1*
X2567986Y2705234D1*
X2569888Y2706185D1*
X2572762D1*
X2574663Y2705234D1*
X2576586Y2703311D1*
X2577537Y2700459D1*
X2578488Y2696634D1*
X2579460Y2694711D1*
X2581362Y2693760D1*
X2583285D1*
X2585186Y2694711D1*
X2586137Y2697585D1*
Y2701409D1*
X2567986Y2685683D2*
X2567014Y2686634D1*
X2566063Y2685683D1*
X2567014Y2684710D1*
X2567986Y2685683D1*
X2586137Y2672787D2*
X2585186Y2675661D1*
X2582312Y2677584D1*
X2577537Y2678535D1*
X2574663D1*
X2569888Y2677584D1*
X2567014Y2675661D1*
X2566063Y2672787D1*
Y2670885D1*
X2567014Y2668011D1*
X2569888Y2666110D1*
X2574663Y2665137D1*
X2577537D1*
X2582312Y2666110D1*
X2585186Y2668011D1*
X2586137Y2670885D1*
Y2672787D1*
X2582312Y2666110D2*
X2569888Y2677584D1*
X2602929Y434364D2*
D94*
X2653169D1*
Y455919D1*
X2650737Y463104D1*
X2648360Y465481D1*
X2643607Y467857D1*
X2636422D1*
X2631614Y465481D1*
X2629237Y463104D1*
X2626860Y455919D1*
X2624429Y463104D1*
X2622052Y465481D1*
X2617299Y467857D1*
X2612490D1*
X2607737Y465481D1*
X2605305Y463104D1*
X2602929Y455919D1*
Y434364D1*
X2626860D2*
Y455919D1*
X2602929Y531898D2*
X2653169D1*
X2602929Y565391D2*
X2653169D1*
X2626860Y531898D2*
Y565391D1*
X2602929Y580830D2*
X2605305Y583207D1*
X2602929Y585639D1*
X2600497Y583207D1*
X2602929Y580830D1*
X2619675Y583207D2*
X2653169D1*
X2622052Y629763D2*
X2660354D1*
X2667484Y627386D1*
X2669915Y625009D1*
X2672292Y620201D1*
Y613016D1*
X2669915Y608263D1*
X2629237Y629763D2*
X2624484Y625010D1*
X2622052Y620201D1*
Y613016D1*
X2624484Y608263D1*
X2629237Y603454D1*
X2636422Y601078D1*
X2641231D1*
X2648360Y603454D1*
X2653169Y608263D1*
X2655545Y613016D1*
Y620201D1*
X2653169Y625010D1*
X2648360Y629763D1*
X2622052Y673887D2*
X2660354D1*
X2667484Y671510D1*
X2669915Y669134D1*
X2672292Y664325D1*
Y657140D1*
X2669915Y652387D1*
X2629237Y673887D2*
X2624484Y669134D1*
X2622052Y664325D1*
Y657140D1*
X2624484Y652387D1*
X2629237Y647579D1*
X2636422Y645202D1*
X2641231D1*
X2648360Y647579D1*
X2653169Y652387D1*
X2655545Y657140D1*
Y664325D1*
X2653169Y669134D1*
X2648360Y673887D1*
X2602929Y689326D2*
X2605305Y691703D1*
X2602929Y694135D1*
X2600497Y691703D1*
X2602929Y689326D1*
X2619675Y691703D2*
X2653169D1*
X2619675Y709574D2*
X2653169D1*
X2629237D2*
X2622052Y716759D1*
X2619675Y721567D1*
Y728697D1*
X2622052Y733505D1*
X2629237Y735882D1*
X2653169D1*
X2626860Y777630D2*
X2622052Y775253D1*
X2619675Y768068D1*
Y760883D1*
X2622052Y753698D1*
X2626860Y751321D1*
X2631614Y753698D1*
X2634045Y758506D1*
X2636422Y770445D1*
X2638799Y775253D1*
X2643607Y777630D1*
X2645984D1*
X2650737Y775253D1*
X2653169Y768068D1*
Y760883D1*
X2650737Y753698D1*
X2645984Y751321D1*
X2652939Y1308760D2*
X2602699Y1289582D1*
X2652939Y1270459D1*
X2636192Y1277644D2*
Y1301575D1*
X2614637Y1408670D2*
X2609884Y1406294D1*
X2605076Y1401485D1*
X2602699Y1396732D1*
Y1387171D1*
X2605076Y1382362D1*
X2609884Y1377609D1*
X2614637Y1375177D1*
X2621822Y1372800D1*
X2633816D1*
X2640946Y1375177D1*
X2645754Y1377609D1*
X2650507Y1382362D1*
X2652939Y1387171D1*
Y1396732D1*
X2650507Y1401485D1*
X2645754Y1406294D1*
X2640946Y1408670D1*
X2633816D1*
Y1396732D1*
X2619446Y1424110D2*
X2643377D1*
X2650507Y1426486D1*
X2652939Y1431295D1*
Y1438480D1*
X2650507Y1443233D1*
X2643377Y1450418D1*
X2619446D2*
X2652939D1*
X2602699Y1465857D2*
X2605076Y1468234D1*
X2602699Y1470666D1*
X2600267Y1468234D1*
X2602699Y1465857D1*
X2619446Y1468234D2*
X2652939D1*
X2602699Y1514790D2*
X2652939D1*
X2626631D2*
X2621822Y1510037D1*
X2619446Y1505228D1*
Y1498043D1*
X2621822Y1493290D1*
X2626631Y1488481D1*
X2633816Y1486105D1*
X2638569D1*
X2645754Y1488481D1*
X2650507Y1493290D1*
X2652939Y1498043D1*
Y1505228D1*
X2650507Y1510037D1*
X2645754Y1514790D1*
X2619446Y1558914D2*
X2652939D1*
X2626631D2*
X2621822Y1554161D1*
X2619446Y1549352D1*
Y1542222D1*
X2621822Y1537414D1*
X2626631Y1532661D1*
X2633816Y1530229D1*
X2638569D1*
X2645754Y1532661D1*
X2650507Y1537414D1*
X2652939Y1542222D1*
Y1549352D1*
X2650507Y1554161D1*
X2645754Y1558914D1*
X2619446Y1574353D2*
X2652939D1*
X2633816D2*
X2626631Y1576785D1*
X2621822Y1581538D1*
X2619446Y1586347D1*
Y1593532D1*
X2633816Y1608971D2*
Y1637656D1*
X2629007D1*
X2624199Y1635279D1*
X2621822Y1632903D1*
X2619446Y1628094D1*
Y1620909D1*
X2621822Y1616156D1*
X2626631Y1611347D1*
X2633816Y1608971D1*
X2638569D1*
X2645754Y1611347D1*
X2650507Y1616156D1*
X2652939Y1620909D1*
Y1628094D1*
X2650507Y1632903D1*
X2645754Y1637656D1*
X2602699Y1653095D2*
X2652939D1*
X2602699Y1668534D2*
X2652939D1*
X2602699Y1683974D2*
X2605076Y1686350D1*
X2602699Y1688782D1*
X2600267Y1686350D1*
X2602699Y1683974D1*
X2619446Y1686350D2*
X2652939D1*
X2603238Y814358D2*
X2653478D1*
X2603238Y847851D2*
X2636732Y814358D1*
X2624738Y826296D2*
X2653478Y847851D1*
X2629547Y911891D2*
Y933446D1*
X2627170Y940576D1*
X2624738Y943008D1*
X2619985Y945384D1*
X2612800D1*
X2608047Y943008D1*
X2605615Y940576D1*
X2603238Y933446D1*
Y911891D1*
X2653478D1*
X2619985Y960824D2*
X2643917D1*
X2651047Y963200D1*
X2653478Y968009D1*
Y975194D1*
X2651047Y979947D1*
X2643917Y987132D1*
X2619985D2*
X2653478D1*
X2619985Y1002571D2*
X2653478D1*
X2634355D2*
X2627170Y1005003D1*
X2622362Y1009756D1*
X2619985Y1014565D1*
Y1021750D1*
Y1065874D2*
X2653478D1*
X2627170D2*
X2622362Y1061121D1*
X2619985Y1056312D1*
Y1049182D1*
X2622362Y1044374D1*
X2627170Y1039621D1*
X2634355Y1037189D1*
X2639108D1*
X2646293Y1039621D1*
X2651047Y1044374D1*
X2653478Y1049182D1*
Y1056312D1*
X2651047Y1061121D1*
X2646293Y1065874D1*
X2627170Y1110053D2*
X2622362Y1105245D1*
X2619985Y1100436D1*
Y1093306D1*
X2622362Y1088498D1*
X2627170Y1083745D1*
X2634355Y1081313D1*
X2639108D1*
X2646293Y1083745D1*
X2651047Y1088498D1*
X2653478Y1093306D1*
Y1100436D1*
X2651047Y1105245D1*
X2646293Y1110053D1*
X2603238Y1125492D2*
X2653478D1*
X2629547D2*
X2622362Y1132677D1*
X2619985Y1137486D1*
Y1144671D1*
X2622362Y1149424D1*
X2629547Y1151801D1*
X2653478D1*
X2634355Y1167240D2*
Y1195925D1*
X2629547D1*
X2624738Y1193548D1*
X2622362Y1191172D1*
X2619985Y1186363D1*
Y1179178D1*
X2622362Y1174425D1*
X2627170Y1169617D1*
X2634355Y1167240D1*
X2639108D1*
X2646293Y1169617D1*
X2651047Y1174425D1*
X2653478Y1179178D1*
Y1186363D1*
X2651047Y1191172D1*
X2646293Y1195925D1*
X2619985Y1211364D2*
X2653478Y1225734D1*
X2619985Y1240049D1*
X552622Y875713D2*
D95*
X568374D1*
X559785Y864239D1*
X564096D1*
X566948Y862813D1*
X568374Y861387D1*
X569833Y857076D1*
Y854224D1*
X568374Y849913D1*
X565522Y847028D1*
X561211Y845602D1*
X556900D1*
X552622Y847028D1*
X551196Y848487D1*
X549737Y851339D1*
X579097Y875746D2*
X590571Y845602D1*
X602045Y875746D1*
X614193Y875713D2*
X629945D1*
X621356Y864239D1*
X625667D1*
X628519Y862813D1*
X629945Y861387D1*
X631404Y857076D1*
Y854224D1*
X629945Y849913D1*
X627093Y847028D1*
X622782Y845602D1*
X618471D1*
X614193Y847028D1*
X612767Y848487D1*
X611308Y851339D1*
X574807Y783721D2*
X573381Y786573D1*
X570496Y789458D1*
X567644Y790884D1*
X561907D1*
X559022Y789458D1*
X556170Y786573D1*
X554711Y783721D1*
X553285Y779410D1*
Y772214D1*
X554711Y767936D1*
X556170Y765051D1*
X559022Y762199D1*
X561907Y760740D1*
X567644D1*
X570496Y762199D1*
X573381Y765051D1*
X574807Y767936D1*
Y772214D1*
X567644D1*
X604166Y790884D2*
Y760740D1*
X584070Y790884D1*
Y760740D1*
X613430Y790884D2*
Y760740D1*
X623478D1*
X627789Y762199D1*
X630674Y765051D1*
X632100Y767936D1*
X633526Y772214D1*
Y779410D1*
X632100Y783721D1*
X630674Y786573D1*
X627789Y789458D1*
X623478Y790884D1*
X613430D1*
X2429972Y2569381D2*
D98*
X2447172D1*
X2452920Y2571327D1*
X2454865Y2573228D1*
X2456766Y2577030D1*
Y2580877D1*
X2454865Y2584680D1*
X2452920Y2586625D1*
X2447172Y2588526D1*
X2429972D1*
Y2548334D1*
X2443369Y2569381D2*
X2456766Y2548334D1*
X2469118Y2563633D2*
X2492066D1*
Y2567480D1*
X2490164Y2571327D1*
X2488263Y2573228D1*
X2484416Y2575129D1*
X2478668D1*
X2474866Y2573228D1*
X2471019Y2569381D1*
X2469118Y2563633D1*
Y2559830D1*
X2471019Y2554082D1*
X2474866Y2550280D1*
X2478668Y2548334D1*
X2484416D1*
X2488263Y2550280D1*
X2492066Y2554082D1*
X2504417Y2575129D2*
X2515913Y2548334D1*
X2527365Y2575129D1*
X2578597Y2580833D2*
X2582444Y2582778D1*
X2588192Y2588482D1*
Y2548334D1*
X2602445Y2552181D2*
X2600543Y2550236D1*
X2602445Y2548334D1*
X2604390Y2550236D1*
X2602445Y2552181D1*
X2628238Y2588482D2*
X2622490Y2586581D1*
X2618643Y2580833D1*
X2616741Y2571282D1*
Y2565534D1*
X2618643Y2555984D1*
X2622490Y2550236D1*
X2628238Y2548334D1*
X2632040D1*
X2637788Y2550236D1*
X2641591Y2555984D1*
X2643536Y2565534D1*
Y2571282D1*
X2641591Y2580833D1*
X2637788Y2586581D1*
X2632040Y2588482D1*
X2628238D1*
X2641591Y2580833D2*
X2618643Y2555984D1*
X1588291Y748999D2*
D99*
Y777684D1*
X1600284Y756129D2*
X1576353Y770499D1*
Y756129D2*
X1600284Y770499D1*
X1369019Y1226742D2*
X1340334D1*
X1361889Y1238735D2*
X1347519Y1214803D1*
X1361889D2*
X1347519Y1238735D1*
X1022655Y2443602D2*
D98*
X1037954Y2403410D1*
X1053252Y2443602D1*
X1065604Y2430205D2*
Y2403410D1*
Y2418709D2*
X1067549Y2424457D1*
X1071352Y2428303D1*
X1075199Y2430205D1*
X1080947D1*
X1093298Y2418709D2*
X1116246D1*
Y2422555D1*
X1114345Y2426402D1*
X1112443Y2428303D1*
X1108597Y2430205D1*
X1102849D1*
X1099046Y2428303D1*
X1095199Y2424457D1*
X1093298Y2418709D1*
Y2414906D1*
X1095199Y2409158D1*
X1099046Y2405356D1*
X1102849Y2403410D1*
X1108597D1*
X1112443Y2405356D1*
X1116246Y2409158D1*
X1151545Y2428303D2*
Y2397662D1*
X1149644Y2391958D1*
X1147743Y2390013D1*
X1143896Y2388111D1*
X1138148D1*
X1134345Y2390013D1*
X1151545Y2422555D2*
X1147743Y2426358D1*
X1143896Y2428303D1*
X1138148D1*
X1134345Y2426358D1*
X1130499Y2422555D1*
X1128597Y2416807D1*
Y2412961D1*
X1130499Y2407257D1*
X1134345Y2403410D1*
X1138148Y2401509D1*
X1143896D1*
X1147743Y2403410D1*
X1151545Y2407257D1*
X845080Y2835507D2*
D96*
Y2791292D1*
X879524Y2498905D2*
X810636D1*
X845036Y2533305D2*
Y2464417D1*
X2119813Y2324708D2*
D99*
X2091128D1*
X2112683Y2336702D2*
X2098313Y2312770D1*
X2112683D2*
X2098313Y2336702D1*
M02*
